<svg width="100" height="101" viewBox="0 0 100 101" fill="none" xmlns="http://www.w3.org/2000/svg">
<path d="M96.75 58.9L92.75 57.8C91.25 57.4 90.25 56 90.45 54.4C90.55 53.1 90.65 51.8 90.65 50.4C90.65 49 90.55 47.7 90.45 46.4C90.25 44.9 91.25 43.4 92.75 43L96.75 41.9C98.55 41.4 99.55 39.6 98.95 37.9L96.85 31.3C96.25 29.6 94.35 28.7 92.75 29.3L88.85 30.8C87.45 31.4 85.75 30.8 84.95 29.5C83.65 27.3 82.15 25.3 80.55 23.4C79.55 22.2 79.45 20.5 80.45 19.3L83.15 16C84.25 14.6 84.05 12.5 82.55 11.5L76.95 7.4C75.45 6.3 73.45 6.7 72.45 8.2L70.15 11.8C69.35 13.1 67.65 13.6 66.25 13C63.95 12 61.45 11.2 58.85 10.6C57.35 10.3 56.25 8.9 56.35 7.4L56.55 3.3C56.65 1.5 55.25 0 53.45 0H46.55C44.75 0 43.35 1.5 43.45 3.3L43.65 7.4C43.75 8.9 42.65 10.3 41.15 10.6C38.55 11.2 36.15 12 33.75 13C32.35 13.6 30.65 13.1 29.85 11.8L27.55 8.2C26.55 6.7 24.55 6.3 23.05 7.4L17.45 11.5C15.95 12.6 15.75 14.6 16.85 16L19.55 19.3C20.55 20.5 20.45 22.2 19.45 23.4C17.75 25.3 16.35 27.3 15.05 29.5C14.25 30.8 12.65 31.4 11.15 30.8L7.25004 29.3C5.55004 28.6 3.65004 29.5 3.15004 31.3L1.05004 37.9C0.450044 39.6 1.45004 41.5 3.25004 41.9L7.25004 43C8.75004 43.4 9.75004 44.8 9.55004 46.4C9.45004 47.7 9.35004 49 9.35004 50.4C9.35004 51.7 9.45004 53.1 9.55004 54.4C9.75004 55.9 8.75004 57.4 7.25004 57.8L3.25004 58.9C1.45004 59.4 0.450044 61.2 1.05004 62.9L3.15004 69.5C3.75004 71.2 5.65004 72.1 7.25004 71.5L11.15 70C12.55 69.4 14.25 70 15.05 71.3C16.35 73.5 17.85 75.5 19.45 77.4C20.45 78.6 20.55 80.3 19.55 81.5L16.85 84.8C15.75 86.2 15.95 88.3 17.45 89.3L23.05 93.4C24.55 94.5 26.55 94.1 27.55 92.6L29.85 89C30.65 87.7 32.35 87.2 33.75 87.8C36.05 88.8 38.55 89.6 41.15 90.2C42.65 90.5 43.75 91.9 43.65 93.4L43.45 97.5C43.35 99.3 44.75 100.8 46.55 100.8H53.45C55.25 100.8 56.65 99.3 56.55 97.5L56.35 93.4C56.25 91.9 57.35 90.5 58.85 90.2C61.45 89.6 63.85 88.8 66.25 87.8C67.65 87.2 69.35 87.7 70.15 89L72.45 92.6C73.45 94.1 75.45 94.5 76.95 93.4L82.55 89.3C84.05 88.2 84.25 86.2 83.15 84.8L80.45 81.5C79.45 80.3 79.55 78.6 80.55 77.4C82.25 75.5 83.65 73.5 84.95 71.3C85.75 70 87.35 69.4 88.85 70L92.75 71.5C94.45 72.2 96.35 71.3 96.85 69.5L98.95 62.9C99.45 61.2 98.45 59.4 96.75 58.9ZM49.95 76.3C35.75 76.3 24.15 64.8 24.15 50.5C24.15 36.2 35.65 24.7 49.95 24.7C64.15 24.7 75.75 36.2 75.75 50.5C75.75 64.8 64.15 76.3 49.95 76.3Z" fill="url(#paint0_linear_323_2464)"/>
<path d="M96.75 58.9L92.75 57.8C91.25 57.4 90.25 56 90.45 54.4C90.55 53.1 90.65 51.8 90.65 50.4C90.65 49 90.55 47.7 90.45 46.4C90.25 44.9 91.25 43.4 92.75 43L96.75 41.9C98.55 41.4 99.55 39.6 98.95 37.9L96.85 31.3C96.25 29.6 94.35 28.7 92.75 29.3L88.85 30.8C87.45 31.4 85.75 30.8 84.95 29.5C83.65 27.3 82.15 25.3 80.55 23.4C79.55 22.2 79.45 20.5 80.45 19.3L83.15 16C84.25 14.6 84.05 12.5 82.55 11.5L76.95 7.4C75.45 6.3 73.45 6.7 72.45 8.2L70.15 11.8C69.35 13.1 67.65 13.6 66.25 13C63.95 12 61.45 11.2 58.85 10.6C57.35 10.3 56.25 8.9 56.35 7.4L56.55 3.3C56.65 1.5 55.25 0 53.45 0H46.55C44.75 0 43.35 1.5 43.45 3.3L43.65 7.4C43.75 8.9 42.65 10.3 41.15 10.6C38.55 11.2 36.15 12 33.75 13C32.35 13.6 30.65 13.1 29.85 11.8L27.55 8.2C26.55 6.7 24.55 6.3 23.05 7.4L17.45 11.5C15.95 12.6 15.75 14.6 16.85 16L19.55 19.3C20.55 20.5 20.45 22.2 19.45 23.4C17.75 25.3 16.35 27.3 15.05 29.5C14.25 30.8 12.65 31.4 11.15 30.8L7.25004 29.3C5.55004 28.6 3.65004 29.5 3.15004 31.3L1.05004 37.9C0.450044 39.6 1.45004 41.5 3.25004 41.9L7.25004 43C8.75004 43.4 9.75004 44.8 9.55004 46.4C9.45004 47.7 9.35004 49 9.35004 50.4C9.35004 51.7 9.45004 53.1 9.55004 54.4C9.75004 55.9 8.75004 57.4 7.25004 57.8L3.25004 58.9C1.45004 59.4 0.450044 61.2 1.05004 62.9L3.15004 69.5C3.75004 71.2 5.65004 72.1 7.25004 71.5L11.15 70C12.55 69.4 14.25 70 15.05 71.3C16.35 73.5 17.85 75.5 19.45 77.4C20.45 78.6 20.55 80.3 19.55 81.5L16.85 84.8C15.75 86.2 15.95 88.3 17.45 89.3L23.05 93.4C24.55 94.5 26.55 94.1 27.55 92.6L29.85 89C30.65 87.7 32.35 87.2 33.75 87.8C36.05 88.8 38.55 89.6 41.15 90.2C42.65 90.5 43.75 91.9 43.65 93.4L43.45 97.5C43.35 99.3 44.75 100.8 46.55 100.8H53.45C55.25 100.8 56.65 99.3 56.55 97.5L56.35 93.4C56.25 91.9 57.35 90.5 58.85 90.2C61.45 89.6 63.85 88.8 66.25 87.8C67.65 87.2 69.35 87.7 70.15 89L72.45 92.6C73.45 94.1 75.45 94.5 76.95 93.4L82.55 89.3C84.05 88.2 84.25 86.2 83.15 84.8L80.45 81.5C79.45 80.3 79.55 78.6 80.55 77.4C82.25 75.5 83.65 73.5 84.95 71.3C85.75 70 87.35 69.4 88.85 70L92.75 71.5C94.45 72.2 96.35 71.3 96.85 69.5L98.95 62.9C99.45 61.2 98.45 59.4 96.75 58.9ZM49.95 76.3C35.75 76.3 24.15 64.8 24.15 50.5C24.15 36.2 35.65 24.7 49.95 24.7C64.15 24.7 75.75 36.2 75.75 50.5C75.75 64.8 64.15 76.3 49.95 76.3Z" fill="url(#paint1_radial_323_2464)"/>
<path d="M96.75 58.9L92.75 57.8C91.25 57.4 90.25 56 90.45 54.4C90.55 53.1 90.65 51.8 90.65 50.4C90.65 49 90.55 47.7 90.45 46.4C90.25 44.9 91.25 43.4 92.75 43L96.75 41.9C98.55 41.4 99.55 39.6 98.95 37.9L96.85 31.3C96.25 29.6 94.35 28.7 92.75 29.3L88.85 30.8C87.45 31.4 85.75 30.8 84.95 29.5C83.65 27.3 82.15 25.3 80.55 23.4C79.55 22.2 79.45 20.5 80.45 19.3L83.15 16C84.25 14.6 84.05 12.5 82.55 11.5L76.95 7.4C75.45 6.3 73.45 6.7 72.45 8.2L70.15 11.8C69.35 13.1 67.65 13.6 66.25 13C63.95 12 61.45 11.2 58.85 10.6C57.35 10.3 56.25 8.9 56.35 7.4L56.55 3.3C56.65 1.5 55.25 0 53.45 0H46.55C44.75 0 43.35 1.5 43.45 3.3L43.65 7.4C43.75 8.9 42.65 10.3 41.15 10.6C38.55 11.2 36.15 12 33.75 13C32.35 13.6 30.65 13.1 29.85 11.8L27.55 8.2C26.55 6.7 24.55 6.3 23.05 7.4L17.45 11.5C15.95 12.6 15.75 14.6 16.85 16L19.55 19.3C20.55 20.5 20.45 22.2 19.45 23.4C17.75 25.3 16.35 27.3 15.05 29.5C14.25 30.8 12.65 31.4 11.15 30.8L7.25004 29.3C5.55004 28.6 3.65004 29.5 3.15004 31.3L1.05004 37.9C0.450044 39.6 1.45004 41.5 3.25004 41.9L7.25004 43C8.75004 43.4 9.75004 44.8 9.55004 46.4C9.45004 47.7 9.35004 49 9.35004 50.4C9.35004 51.7 9.45004 53.1 9.55004 54.4C9.75004 55.9 8.75004 57.4 7.25004 57.8L3.25004 58.9C1.45004 59.4 0.450044 61.2 1.05004 62.9L3.15004 69.5C3.75004 71.2 5.65004 72.1 7.25004 71.5L11.15 70C12.55 69.4 14.25 70 15.05 71.3C16.35 73.5 17.85 75.5 19.45 77.4C20.45 78.6 20.55 80.3 19.55 81.5L16.85 84.8C15.75 86.2 15.95 88.3 17.45 89.3L23.05 93.4C24.55 94.5 26.55 94.1 27.55 92.6L29.85 89C30.65 87.7 32.35 87.2 33.75 87.8C36.05 88.8 38.55 89.6 41.15 90.2C42.65 90.5 43.75 91.9 43.65 93.4L43.45 97.5C43.35 99.3 44.75 100.8 46.55 100.8H53.45C55.25 100.8 56.65 99.3 56.55 97.5L56.35 93.4C56.25 91.9 57.35 90.5 58.85 90.2C61.45 89.6 63.85 88.8 66.25 87.8C67.65 87.2 69.35 87.7 70.15 89L72.45 92.6C73.45 94.1 75.45 94.5 76.95 93.4L82.55 89.3C84.05 88.2 84.25 86.2 83.15 84.8L80.45 81.5C79.45 80.3 79.55 78.6 80.55 77.4C82.25 75.5 83.65 73.5 84.95 71.3C85.75 70 87.35 69.4 88.85 70L92.75 71.5C94.45 72.2 96.35 71.3 96.85 69.5L98.95 62.9C99.45 61.2 98.45 59.4 96.75 58.9ZM49.95 76.3C35.75 76.3 24.15 64.8 24.15 50.5C24.15 36.2 35.65 24.7 49.95 24.7C64.15 24.7 75.75 36.2 75.75 50.5C75.75 64.8 64.15 76.3 49.95 76.3Z" fill="url(#paint2_radial_323_2464)"/>
<path opacity="0.4" d="M49.9501 19.8999C33.0501 19.8999 19.3501 33.5999 19.3501 50.4999C19.3501 67.3999 33.0501 81.0999 49.9501 81.0999C66.8501 81.0999 80.5501 67.3999 80.5501 50.4999C80.5501 33.5999 66.8501 19.8999 49.9501 19.8999ZM49.9501 76.2999C35.7501 76.2999 24.1501 64.7999 24.1501 50.4999C24.1501 36.2999 35.6501 24.6999 49.9501 24.6999C64.1501 24.6999 75.7501 36.1999 75.7501 50.4999C75.7501 64.7999 64.1501 76.2999 49.9501 76.2999Z" fill="url(#paint3_linear_323_2464)"/>
<path d="M49.95 71.8002C61.7137 71.8002 71.25 62.2639 71.25 50.5002C71.25 38.7365 61.7137 29.2002 49.95 29.2002C38.1864 29.2002 28.65 38.7365 28.65 50.5002C28.65 62.2639 38.1864 71.8002 49.95 71.8002Z" fill="url(#paint4_linear_323_2464)"/>
<path d="M43.9174 34.7998C49.2535 34.7998 54.5895 34.7998 59.9256 34.7998C59.9256 41.6851 59.9256 48.7233 59.9256 55.6085C58.7398 55.7616 57.7022 55.9146 56.5164 56.0676C55.9235 56.0676 55.6271 56.2206 55.6271 56.9856C55.6271 57.9036 55.6271 58.6687 55.6271 59.5867C51.3286 59.5867 47.3265 59.5867 43.1763 59.5867C43.1763 59.4337 43.1763 59.2807 43.1763 59.1277C43.1763 51.4774 43.1763 43.9801 43.1763 36.3299C43.1763 35.7178 43.7692 35.2588 43.9174 34.7998ZM51.625 45.5102C51.625 44.4391 51.625 43.5211 51.625 42.6031C51.625 41.379 51.4768 41.226 50.291 41.532C48.0677 42.1441 46.7336 43.9801 46.8819 46.5812C47.0301 48.5703 48.8088 50.4064 50.8839 50.4064C53.1073 50.5594 55.0342 49.0293 55.6271 46.7342C55.7753 45.8162 55.6271 45.5102 54.7377 45.5102C53.7002 45.5102 52.6626 45.5102 51.625 45.5102ZM56.6647 44.2861C56.8129 42.1441 55.4789 40.308 53.7002 40.155C53.1073 40.155 52.6626 40.155 52.8108 40.92C52.8108 41.6851 52.8108 42.6031 52.8108 43.3681C52.8108 43.6741 53.2555 44.1331 53.4037 44.1331C54.4413 44.4391 55.4789 44.2861 56.6647 44.2861ZM51.4768 53.4665C52.2179 53.4665 52.9591 53.4665 53.552 53.4665C53.7002 53.4665 53.8484 53.1605 54.1448 53.1605C53.9966 53.0075 53.8484 52.8545 53.552 52.8545C52.8108 52.8545 51.9215 52.8545 51.1804 52.8545C50.291 52.8545 49.4017 53.0075 49.4017 51.6304C49.4017 51.4774 49.1052 51.3244 48.8088 51.3244C48.8088 51.4774 48.6606 51.6304 48.6606 51.9364C48.6606 53.1605 49.1052 53.6195 50.4392 53.6195C50.7357 53.4665 51.1804 53.4665 51.4768 53.4665ZM50.8839 55.4555C51.3286 55.4555 51.7733 55.4555 52.2179 55.4555C52.3662 55.4555 52.5144 55.3025 52.6626 55.1495C52.5144 54.9965 52.5144 54.6905 52.3662 54.6905C51.3286 54.6905 50.4392 54.6905 49.4017 54.6905C49.2535 54.6905 49.1052 54.9965 49.1052 55.1495C49.2535 55.3025 49.4017 55.4555 49.5499 55.4555C49.8464 55.4555 50.4392 55.4555 50.8839 55.4555Z" fill="#7644E4"/>
<path d="M39.9153 62.4936C39.9153 54.2313 39.9153 45.969 39.9153 37.7067C40.6564 36.9417 41.5457 37.2477 42.4351 37.4007C42.4351 37.8597 42.4351 38.3188 42.4351 38.7778C42.4351 45.663 42.4351 52.5483 42.4351 59.4335C42.4351 60.3516 42.7315 60.6576 43.6209 60.6576C47.1783 60.6576 50.5874 60.6576 54.1448 60.6576C55.3306 60.6576 56.5164 60.9636 57.4057 59.5865C57.5539 60.0455 57.5539 60.5046 57.5539 60.9636C57.5539 62.9526 57.4057 62.9526 55.627 62.9526C51.0321 62.9526 46.4371 62.9526 41.8422 62.9526C41.1011 62.7996 40.5082 62.6466 39.9153 62.4936Z" fill="#8B00FF"/>
<path d="M56.5164 58.9749C56.5164 58.2099 56.5164 57.5979 56.5164 56.9858C57.1093 56.9858 57.5539 56.9858 58.295 56.9858C57.7021 57.7509 57.2575 58.2099 56.5164 58.9749Z" fill="black"/>
<path d="M51.4767 45.9694C51.3285 46.2754 51.1803 46.4284 51.1803 46.5814C50.2909 47.1935 49.5498 47.8055 48.6605 48.4175C48.6605 48.5705 48.2158 48.5705 48.2158 48.4175C48.2158 48.2645 48.0676 47.8055 48.2158 47.8055C48.9569 47.0405 49.8462 46.4284 50.5874 45.8164C50.7356 45.8164 51.1803 45.9694 51.4767 45.9694Z" fill="black"/>
<defs>
<linearGradient id="paint0_linear_323_2464" x1="40.2652" y1="50.4" x2="-9.99666" y2="44.8228" gradientUnits="userSpaceOnUse">
<stop stop-color="#8B00FF"/>
<stop offset="1" stop-color="#EB00FF"/>
</linearGradient>
<radialGradient id="paint1_radial_323_2464" cx="0" cy="0" r="1" gradientUnits="userSpaceOnUse" gradientTransform="translate(68.8545 117.277) rotate(-45.6841) scale(43.3479 42.123)">
<stop stop-color="#0066FF"/>
<stop offset="1" stop-color="#00E0FF" stop-opacity="0"/>
</radialGradient>
<radialGradient id="paint2_radial_323_2464" cx="0" cy="0" r="1" gradientUnits="userSpaceOnUse" gradientTransform="translate(2.14624 -21.3231) rotate(74.4881) scale(74.4344 78.9497)">
<stop offset="0.0604609" stop-color="#FFF500"/>
<stop offset="1" stop-color="#8B00FF" stop-opacity="0"/>
</radialGradient>
<linearGradient id="paint3_linear_323_2464" x1="28.2893" y1="28.8834" x2="71.5938" y2="72.1879" gradientUnits="userSpaceOnUse">
<stop stop-color="#5DB6C3"/>
<stop offset="1" stop-color="#4C829F"/>
</linearGradient>
<linearGradient id="paint4_linear_323_2464" x1="34.9017" y1="35.4961" x2="64.9813" y2="65.5757" gradientUnits="userSpaceOnUse">
<stop stop-color="white"/>
<stop offset="0.2753" stop-color="#F8F8F8"/>
<stop offset="0.6731" stop-color="#E5E5E5"/>
<stop offset="1" stop-color="#D0D0D0"/>
</linearGradient>
</defs>
</svg>
