<svg width="99" height="101" viewBox="0 0 99 101" fill="none" xmlns="http://www.w3.org/2000/svg">
<path d="M96.25 58.9L92.25 57.8C90.75 57.4 89.75 56 89.95 54.4C90.05 53.1 90.15 51.8 90.15 50.4C90.15 49 90.05 47.7 89.95 46.4C89.75 44.9 90.75 43.4 92.25 43L96.25 41.9C98.05 41.4 99.05 39.6 98.45 37.9L96.35 31.3C95.75 29.6 93.85 28.7 92.25 29.3L88.35 30.8C86.95 31.4 85.25 30.8 84.45 29.5C83.15 27.3 81.65 25.3 80.05 23.4C79.05 22.2 78.95 20.5 79.95 19.3L82.65 16C83.75 14.6 83.55 12.5 82.05 11.5L76.45 7.4C74.95 6.3 72.95 6.7 71.95 8.2L69.65 11.8C68.85 13.1 67.15 13.6 65.75 13C63.45 12 60.95 11.2 58.35 10.6C56.85 10.3 55.75 8.9 55.85 7.4L56.05 3.3C56.15 1.5 54.75 0 52.95 0H46.05C44.25 0 42.85 1.5 42.95 3.3L43.15 7.4C43.25 8.9 42.15 10.3 40.65 10.6C38.05 11.2 35.65 12 33.25 13C31.85 13.6 30.15 13.1 29.35 11.8L27.05 8.2C26.05 6.7 24.05 6.3 22.55 7.4L16.95 11.5C15.45 12.6 15.25 14.6 16.35 16L19.05 19.3C20.05 20.5 19.95 22.2 18.95 23.4C17.25 25.3 15.85 27.3 14.55 29.5C13.75 30.8 12.15 31.4 10.65 30.8L6.75004 29.3C5.05004 28.6 3.15004 29.5 2.65004 31.3L0.550044 37.9C-0.0499564 39.6 0.950044 41.5 2.75004 41.9L6.75004 43C8.25004 43.4 9.25004 44.8 9.05004 46.4C8.95004 47.7 8.85004 49 8.85004 50.4C8.85004 51.7 8.95004 53.1 9.05004 54.4C9.25004 55.9 8.25004 57.4 6.75004 57.8L2.75004 58.9C0.950044 59.4 -0.0499564 61.2 0.550044 62.9L2.65004 69.5C3.25004 71.2 5.15004 72.1 6.75004 71.5L10.65 70C12.05 69.4 13.75 70 14.55 71.3C15.85 73.5 17.35 75.5 18.95 77.4C19.95 78.6 20.05 80.3 19.05 81.5L16.35 84.8C15.25 86.2 15.45 88.3 16.95 89.3L22.55 93.4C24.05 94.5 26.05 94.1 27.05 92.6L29.35 89C30.15 87.7 31.85 87.2 33.25 87.8C35.55 88.8 38.05 89.6 40.65 90.2C42.15 90.5 43.25 91.9 43.15 93.4L42.95 97.5C42.85 99.3 44.25 100.8 46.05 100.8H52.95C54.75 100.8 56.15 99.3 56.05 97.5L55.85 93.4C55.75 91.9 56.85 90.5 58.35 90.2C60.95 89.6 63.35 88.8 65.75 87.8C67.15 87.2 68.85 87.7 69.65 89L71.95 92.6C72.95 94.1 74.95 94.5 76.45 93.4L82.05 89.3C83.55 88.2 83.75 86.2 82.65 84.8L79.95 81.5C78.95 80.3 79.05 78.6 80.05 77.4C81.75 75.5 83.15 73.5 84.45 71.3C85.25 70 86.85 69.4 88.35 70L92.25 71.5C93.95 72.2 95.85 71.3 96.35 69.5L98.45 62.9C98.95 61.2 97.95 59.4 96.25 58.9ZM49.45 76.3C35.25 76.3 23.65 64.8 23.65 50.5C23.65 36.2 35.15 24.7 49.45 24.7C63.65 24.7 75.25 36.2 75.25 50.5C75.25 64.8 63.65 76.3 49.45 76.3Z" fill="url(#paint0_linear_323_2368)"/>
<path d="M96.25 58.9L92.25 57.8C90.75 57.4 89.75 56 89.95 54.4C90.05 53.1 90.15 51.8 90.15 50.4C90.15 49 90.05 47.7 89.95 46.4C89.75 44.9 90.75 43.4 92.25 43L96.25 41.9C98.05 41.4 99.05 39.6 98.45 37.9L96.35 31.3C95.75 29.6 93.85 28.7 92.25 29.3L88.35 30.8C86.95 31.4 85.25 30.8 84.45 29.5C83.15 27.3 81.65 25.3 80.05 23.4C79.05 22.2 78.95 20.5 79.95 19.3L82.65 16C83.75 14.6 83.55 12.5 82.05 11.5L76.45 7.4C74.95 6.3 72.95 6.7 71.95 8.2L69.65 11.8C68.85 13.1 67.15 13.6 65.75 13C63.45 12 60.95 11.2 58.35 10.6C56.85 10.3 55.75 8.9 55.85 7.4L56.05 3.3C56.15 1.5 54.75 0 52.95 0H46.05C44.25 0 42.85 1.5 42.95 3.3L43.15 7.4C43.25 8.9 42.15 10.3 40.65 10.6C38.05 11.2 35.65 12 33.25 13C31.85 13.6 30.15 13.1 29.35 11.8L27.05 8.2C26.05 6.7 24.05 6.3 22.55 7.4L16.95 11.5C15.45 12.6 15.25 14.6 16.35 16L19.05 19.3C20.05 20.5 19.95 22.2 18.95 23.4C17.25 25.3 15.85 27.3 14.55 29.5C13.75 30.8 12.15 31.4 10.65 30.8L6.75004 29.3C5.05004 28.6 3.15004 29.5 2.65004 31.3L0.550044 37.9C-0.0499564 39.6 0.950044 41.5 2.75004 41.9L6.75004 43C8.25004 43.4 9.25004 44.8 9.05004 46.4C8.95004 47.7 8.85004 49 8.85004 50.4C8.85004 51.7 8.95004 53.1 9.05004 54.4C9.25004 55.9 8.25004 57.4 6.75004 57.8L2.75004 58.9C0.950044 59.4 -0.0499564 61.2 0.550044 62.9L2.65004 69.5C3.25004 71.2 5.15004 72.1 6.75004 71.5L10.65 70C12.05 69.4 13.75 70 14.55 71.3C15.85 73.5 17.35 75.5 18.95 77.4C19.95 78.6 20.05 80.3 19.05 81.5L16.35 84.8C15.25 86.2 15.45 88.3 16.95 89.3L22.55 93.4C24.05 94.5 26.05 94.1 27.05 92.6L29.35 89C30.15 87.7 31.85 87.2 33.25 87.8C35.55 88.8 38.05 89.6 40.65 90.2C42.15 90.5 43.25 91.9 43.15 93.4L42.95 97.5C42.85 99.3 44.25 100.8 46.05 100.8H52.95C54.75 100.8 56.15 99.3 56.05 97.5L55.85 93.4C55.75 91.9 56.85 90.5 58.35 90.2C60.95 89.6 63.35 88.8 65.75 87.8C67.15 87.2 68.85 87.7 69.65 89L71.95 92.6C72.95 94.1 74.95 94.5 76.45 93.4L82.05 89.3C83.55 88.2 83.75 86.2 82.65 84.8L79.95 81.5C78.95 80.3 79.05 78.6 80.05 77.4C81.75 75.5 83.15 73.5 84.45 71.3C85.25 70 86.85 69.4 88.35 70L92.25 71.5C93.95 72.2 95.85 71.3 96.35 69.5L98.45 62.9C98.95 61.2 97.95 59.4 96.25 58.9ZM49.45 76.3C35.25 76.3 23.65 64.8 23.65 50.5C23.65 36.2 35.15 24.7 49.45 24.7C63.65 24.7 75.25 36.2 75.25 50.5C75.25 64.8 63.65 76.3 49.45 76.3Z" fill="url(#paint1_radial_323_2368)"/>
<path d="M96.25 58.9L92.25 57.8C90.75 57.4 89.75 56 89.95 54.4C90.05 53.1 90.15 51.8 90.15 50.4C90.15 49 90.05 47.7 89.95 46.4C89.75 44.9 90.75 43.4 92.25 43L96.25 41.9C98.05 41.4 99.05 39.6 98.45 37.9L96.35 31.3C95.75 29.6 93.85 28.7 92.25 29.3L88.35 30.8C86.95 31.4 85.25 30.8 84.45 29.5C83.15 27.3 81.65 25.3 80.05 23.4C79.05 22.2 78.95 20.5 79.95 19.3L82.65 16C83.75 14.6 83.55 12.5 82.05 11.5L76.45 7.4C74.95 6.3 72.95 6.7 71.95 8.2L69.65 11.8C68.85 13.1 67.15 13.6 65.75 13C63.45 12 60.95 11.2 58.35 10.6C56.85 10.3 55.75 8.9 55.85 7.4L56.05 3.3C56.15 1.5 54.75 0 52.95 0H46.05C44.25 0 42.85 1.5 42.95 3.3L43.15 7.4C43.25 8.9 42.15 10.3 40.65 10.6C38.05 11.2 35.65 12 33.25 13C31.85 13.6 30.15 13.1 29.35 11.8L27.05 8.2C26.05 6.7 24.05 6.3 22.55 7.4L16.95 11.5C15.45 12.6 15.25 14.6 16.35 16L19.05 19.3C20.05 20.5 19.95 22.2 18.95 23.4C17.25 25.3 15.85 27.3 14.55 29.5C13.75 30.8 12.15 31.4 10.65 30.8L6.75004 29.3C5.05004 28.6 3.15004 29.5 2.65004 31.3L0.550044 37.9C-0.0499564 39.6 0.950044 41.5 2.75004 41.9L6.75004 43C8.25004 43.4 9.25004 44.8 9.05004 46.4C8.95004 47.7 8.85004 49 8.85004 50.4C8.85004 51.7 8.95004 53.1 9.05004 54.4C9.25004 55.9 8.25004 57.4 6.75004 57.8L2.75004 58.9C0.950044 59.4 -0.0499564 61.2 0.550044 62.9L2.65004 69.5C3.25004 71.2 5.15004 72.1 6.75004 71.5L10.65 70C12.05 69.4 13.75 70 14.55 71.3C15.85 73.5 17.35 75.5 18.95 77.4C19.95 78.6 20.05 80.3 19.05 81.5L16.35 84.8C15.25 86.2 15.45 88.3 16.95 89.3L22.55 93.4C24.05 94.5 26.05 94.1 27.05 92.6L29.35 89C30.15 87.7 31.85 87.2 33.25 87.8C35.55 88.8 38.05 89.6 40.65 90.2C42.15 90.5 43.25 91.9 43.15 93.4L42.95 97.5C42.85 99.3 44.25 100.8 46.05 100.8H52.95C54.75 100.8 56.15 99.3 56.05 97.5L55.85 93.4C55.75 91.9 56.85 90.5 58.35 90.2C60.95 89.6 63.35 88.8 65.75 87.8C67.15 87.2 68.85 87.7 69.65 89L71.95 92.6C72.95 94.1 74.95 94.5 76.45 93.4L82.05 89.3C83.55 88.2 83.75 86.2 82.65 84.8L79.95 81.5C78.95 80.3 79.05 78.6 80.05 77.4C81.75 75.5 83.15 73.5 84.45 71.3C85.25 70 86.85 69.4 88.35 70L92.25 71.5C93.95 72.2 95.85 71.3 96.35 69.5L98.45 62.9C98.95 61.2 97.95 59.4 96.25 58.9ZM49.45 76.3C35.25 76.3 23.65 64.8 23.65 50.5C23.65 36.2 35.15 24.7 49.45 24.7C63.65 24.7 75.25 36.2 75.25 50.5C75.25 64.8 63.65 76.3 49.45 76.3Z" fill="url(#paint2_radial_323_2368)"/>
<path opacity="0.4" d="M49.4501 19.8999C32.5501 19.8999 18.8501 33.5999 18.8501 50.4999C18.8501 67.3999 32.5501 81.0999 49.4501 81.0999C66.3501 81.0999 80.0501 67.3999 80.0501 50.4999C80.0501 33.5999 66.3501 19.8999 49.4501 19.8999ZM49.4501 76.2999C35.2501 76.2999 23.6501 64.7999 23.6501 50.4999C23.6501 36.2999 35.1501 24.6999 49.4501 24.6999C63.6501 24.6999 75.2501 36.1999 75.2501 50.4999C75.2501 64.7999 63.6501 76.2999 49.4501 76.2999Z" fill="url(#paint3_linear_323_2368)"/>
<path d="M49.45 71.8002C61.2137 71.8002 70.75 62.2639 70.75 50.5002C70.75 38.7365 61.2137 29.2002 49.45 29.2002C37.6864 29.2002 28.15 38.7365 28.15 50.5002C28.15 62.2639 37.6864 71.8002 49.45 71.8002Z" fill="url(#paint4_linear_323_2368)"/>
<path d="M64 48.2812C64 52.0523 64 55.7291 64 59.5001C63.9213 59.8772 63.8427 60.16 63.764 60.4429C63.1348 62.0456 62.1124 62.7998 60.618 62.7998C55.3483 62.7998 50.0787 62.7998 44.809 62.7998C43 62.7998 41.1124 62.7998 39.3034 62.7998C37.8876 62.7998 36.8652 62.0456 36.236 60.5371C36.0787 60.2543 36.0787 59.8772 36 59.5944C36 55.8233 36 52.0523 36 48.2812C36.0787 48.2812 36.0787 48.2812 36.1573 48.2812C40.4831 49.9782 44.809 51.7695 49.1348 53.4664C49.764 53.7493 50.3146 53.7493 50.9438 53.4664C53.7753 52.3351 56.5281 51.2038 59.3596 50.0725C60.8539 49.5068 62.427 48.8469 64 48.2812Z" fill="#7644E4"/>
<path d="M64 42.3419C64 43.5675 64 44.8873 64 46.1129C63.9213 46.1129 63.764 46.2072 63.6854 46.2072C59.2809 47.9985 54.7978 49.6954 50.3933 51.4867C50.1573 51.581 49.8427 51.581 49.6067 51.4867C45.2022 49.6954 40.7191 47.9042 36.3146 46.2072C36.236 46.1129 36.0787 46.1129 36 46.1129C36 44.7931 36 43.5675 36 42.2476C36.0787 42.0591 36.0787 41.8705 36.1573 41.682C36.6292 39.985 37.809 39.0422 39.3034 39.0422C41.191 39.0422 43.0787 39.0422 44.9663 39.0422C45.0449 39.0422 45.2022 39.0422 45.3596 39.0422C45.3596 38.4766 45.3596 37.9109 45.3596 37.3453C45.4382 36.0254 46.382 34.8941 47.4045 34.7998C49.1348 34.7998 50.8652 34.7998 52.5169 34.7998C53.2247 34.7998 53.7753 35.2712 54.2472 35.9311C54.5618 36.4968 54.6405 37.0624 54.6405 37.7224C54.6405 38.0995 54.6405 38.4766 54.6405 38.948C54.7978 38.948 54.8764 38.948 55.0337 38.948C56.9214 38.948 58.809 38.948 60.6966 38.948C62.1124 38.948 63.1348 39.7022 63.764 41.3049C63.8427 41.5877 63.9213 41.9648 64 42.3419ZM47.7191 38.948C49.2921 38.948 50.7865 38.948 52.3596 38.948C52.3596 38.4766 52.3596 38.0995 52.3596 37.6281C50.7865 37.6281 49.2921 37.6281 47.7191 37.6281C47.7191 38.0995 47.7191 38.4766 47.7191 38.948Z" fill="#8B00FF"/>
<defs>
<linearGradient id="paint0_linear_323_2368" x1="39.7652" y1="50.4" x2="-10.4967" y2="44.8228" gradientUnits="userSpaceOnUse">
<stop stop-color="#8B00FF"/>
<stop offset="1" stop-color="#EB00FF"/>
</linearGradient>
<radialGradient id="paint1_radial_323_2368" cx="0" cy="0" r="1" gradientUnits="userSpaceOnUse" gradientTransform="translate(68.3545 117.277) rotate(-45.6841) scale(43.3479 42.123)">
<stop stop-color="#0066FF"/>
<stop offset="1" stop-color="#00E0FF" stop-opacity="0"/>
</radialGradient>
<radialGradient id="paint2_radial_323_2368" cx="0" cy="0" r="1" gradientUnits="userSpaceOnUse" gradientTransform="translate(1.64624 -21.3231) rotate(74.4881) scale(74.4344 78.9497)">
<stop offset="0.0604609" stop-color="#FFF500"/>
<stop offset="1" stop-color="#8B00FF" stop-opacity="0"/>
</radialGradient>
<linearGradient id="paint3_linear_323_2368" x1="27.7893" y1="28.8834" x2="71.0938" y2="72.1879" gradientUnits="userSpaceOnUse">
<stop stop-color="#5DB6C3"/>
<stop offset="1" stop-color="#4C829F"/>
</linearGradient>
<linearGradient id="paint4_linear_323_2368" x1="34.4017" y1="35.4961" x2="64.4813" y2="65.5757" gradientUnits="userSpaceOnUse">
<stop stop-color="white"/>
<stop offset="0.2753" stop-color="#F8F8F8"/>
<stop offset="0.6731" stop-color="#E5E5E5"/>
<stop offset="1" stop-color="#D0D0D0"/>
</linearGradient>
</defs>
</svg>
