<svg width="100" height="101" viewBox="0 0 100 101" fill="none" xmlns="http://www.w3.org/2000/svg">
<path d="M96.75 58.9L92.75 57.8C91.25 57.4 90.25 56 90.45 54.4C90.55 53.1 90.65 51.8 90.65 50.4C90.65 49 90.55 47.7 90.45 46.4C90.25 44.9 91.25 43.4 92.75 43L96.75 41.9C98.55 41.4 99.55 39.6 98.95 37.9L96.85 31.3C96.25 29.6 94.35 28.7 92.75 29.3L88.85 30.8C87.45 31.4 85.75 30.8 84.95 29.5C83.65 27.3 82.15 25.3 80.55 23.4C79.55 22.2 79.45 20.5 80.45 19.3L83.15 16C84.25 14.6 84.05 12.5 82.55 11.5L76.95 7.4C75.45 6.3 73.45 6.7 72.45 8.2L70.15 11.8C69.35 13.1 67.65 13.6 66.25 13C63.95 12 61.45 11.2 58.85 10.6C57.35 10.3 56.25 8.9 56.35 7.4L56.55 3.3C56.65 1.5 55.25 0 53.45 0H46.55C44.75 0 43.35 1.5 43.45 3.3L43.65 7.4C43.75 8.9 42.65 10.3 41.15 10.6C38.55 11.2 36.15 12 33.75 13C32.35 13.6 30.65 13.1 29.85 11.8L27.55 8.2C26.55 6.7 24.55 6.3 23.05 7.4L17.45 11.5C15.95 12.6 15.75 14.6 16.85 16L19.55 19.3C20.55 20.5 20.45 22.2 19.45 23.4C17.75 25.3 16.35 27.3 15.05 29.5C14.25 30.8 12.65 31.4 11.15 30.8L7.24998 29.3C5.54998 28.6 3.64998 29.5 3.14998 31.3L1.04998 37.9C0.449983 39.6 1.44998 41.5 3.24998 41.9L7.24998 43C8.74998 43.4 9.74998 44.8 9.54998 46.4C9.44998 47.7 9.34998 49 9.34998 50.4C9.34998 51.7 9.44998 53.1 9.54998 54.4C9.74998 55.9 8.74998 57.4 7.24998 57.8L3.24998 58.9C1.44998 59.4 0.449983 61.2 1.04998 62.9L3.14998 69.5C3.74998 71.2 5.64998 72.1 7.24998 71.5L11.15 70C12.55 69.4 14.25 70 15.05 71.3C16.35 73.5 17.85 75.5 19.45 77.4C20.45 78.6 20.55 80.3 19.55 81.5L16.85 84.8C15.75 86.2 15.95 88.3 17.45 89.3L23.05 93.4C24.55 94.5 26.55 94.1 27.55 92.6L29.85 89C30.65 87.7 32.35 87.2 33.75 87.8C36.05 88.8 38.55 89.6 41.15 90.2C42.65 90.5 43.75 91.9 43.65 93.4L43.45 97.5C43.35 99.3 44.75 100.8 46.55 100.8H53.45C55.25 100.8 56.65 99.3 56.55 97.5L56.35 93.4C56.25 91.9 57.35 90.5 58.85 90.2C61.45 89.6 63.85 88.8 66.25 87.8C67.65 87.2 69.35 87.7 70.15 89L72.45 92.6C73.45 94.1 75.45 94.5 76.95 93.4L82.55 89.3C84.05 88.2 84.25 86.2 83.15 84.8L80.45 81.5C79.45 80.3 79.55 78.6 80.55 77.4C82.25 75.5 83.65 73.5 84.95 71.3C85.75 70 87.35 69.4 88.85 70L92.75 71.5C94.45 72.2 96.35 71.3 96.85 69.5L98.95 62.9C99.45 61.2 98.45 59.4 96.75 58.9ZM49.95 76.3C35.75 76.3 24.15 64.8 24.15 50.5C24.15 36.2 35.65 24.7 49.95 24.7C64.15 24.7 75.75 36.2 75.75 50.5C75.75 64.8 64.15 76.3 49.95 76.3Z" fill="url(#paint0_linear_323_2434)"/>
<path d="M96.75 58.9L92.75 57.8C91.25 57.4 90.25 56 90.45 54.4C90.55 53.1 90.65 51.8 90.65 50.4C90.65 49 90.55 47.7 90.45 46.4C90.25 44.9 91.25 43.4 92.75 43L96.75 41.9C98.55 41.4 99.55 39.6 98.95 37.9L96.85 31.3C96.25 29.6 94.35 28.7 92.75 29.3L88.85 30.8C87.45 31.4 85.75 30.8 84.95 29.5C83.65 27.3 82.15 25.3 80.55 23.4C79.55 22.2 79.45 20.5 80.45 19.3L83.15 16C84.25 14.6 84.05 12.5 82.55 11.5L76.95 7.4C75.45 6.3 73.45 6.7 72.45 8.2L70.15 11.8C69.35 13.1 67.65 13.6 66.25 13C63.95 12 61.45 11.2 58.85 10.6C57.35 10.3 56.25 8.9 56.35 7.4L56.55 3.3C56.65 1.5 55.25 0 53.45 0H46.55C44.75 0 43.35 1.5 43.45 3.3L43.65 7.4C43.75 8.9 42.65 10.3 41.15 10.6C38.55 11.2 36.15 12 33.75 13C32.35 13.6 30.65 13.1 29.85 11.8L27.55 8.2C26.55 6.7 24.55 6.3 23.05 7.4L17.45 11.5C15.95 12.6 15.75 14.6 16.85 16L19.55 19.3C20.55 20.5 20.45 22.2 19.45 23.4C17.75 25.3 16.35 27.3 15.05 29.5C14.25 30.8 12.65 31.4 11.15 30.8L7.24998 29.3C5.54998 28.6 3.64998 29.5 3.14998 31.3L1.04998 37.9C0.449983 39.6 1.44998 41.5 3.24998 41.9L7.24998 43C8.74998 43.4 9.74998 44.8 9.54998 46.4C9.44998 47.7 9.34998 49 9.34998 50.4C9.34998 51.7 9.44998 53.1 9.54998 54.4C9.74998 55.9 8.74998 57.4 7.24998 57.8L3.24998 58.9C1.44998 59.4 0.449983 61.2 1.04998 62.9L3.14998 69.5C3.74998 71.2 5.64998 72.1 7.24998 71.5L11.15 70C12.55 69.4 14.25 70 15.05 71.3C16.35 73.5 17.85 75.5 19.45 77.4C20.45 78.6 20.55 80.3 19.55 81.5L16.85 84.8C15.75 86.2 15.95 88.3 17.45 89.3L23.05 93.4C24.55 94.5 26.55 94.1 27.55 92.6L29.85 89C30.65 87.7 32.35 87.2 33.75 87.8C36.05 88.8 38.55 89.6 41.15 90.2C42.65 90.5 43.75 91.9 43.65 93.4L43.45 97.5C43.35 99.3 44.75 100.8 46.55 100.8H53.45C55.25 100.8 56.65 99.3 56.55 97.5L56.35 93.4C56.25 91.9 57.35 90.5 58.85 90.2C61.45 89.6 63.85 88.8 66.25 87.8C67.65 87.2 69.35 87.7 70.15 89L72.45 92.6C73.45 94.1 75.45 94.5 76.95 93.4L82.55 89.3C84.05 88.2 84.25 86.2 83.15 84.8L80.45 81.5C79.45 80.3 79.55 78.6 80.55 77.4C82.25 75.5 83.65 73.5 84.95 71.3C85.75 70 87.35 69.4 88.85 70L92.75 71.5C94.45 72.2 96.35 71.3 96.85 69.5L98.95 62.9C99.45 61.2 98.45 59.4 96.75 58.9ZM49.95 76.3C35.75 76.3 24.15 64.8 24.15 50.5C24.15 36.2 35.65 24.7 49.95 24.7C64.15 24.7 75.75 36.2 75.75 50.5C75.75 64.8 64.15 76.3 49.95 76.3Z" fill="url(#paint1_radial_323_2434)"/>
<path d="M96.75 58.9L92.75 57.8C91.25 57.4 90.25 56 90.45 54.4C90.55 53.1 90.65 51.8 90.65 50.4C90.65 49 90.55 47.7 90.45 46.4C90.25 44.9 91.25 43.4 92.75 43L96.75 41.9C98.55 41.4 99.55 39.6 98.95 37.9L96.85 31.3C96.25 29.6 94.35 28.7 92.75 29.3L88.85 30.8C87.45 31.4 85.75 30.8 84.95 29.5C83.65 27.3 82.15 25.3 80.55 23.4C79.55 22.2 79.45 20.5 80.45 19.3L83.15 16C84.25 14.6 84.05 12.5 82.55 11.5L76.95 7.4C75.45 6.3 73.45 6.7 72.45 8.2L70.15 11.8C69.35 13.1 67.65 13.6 66.25 13C63.95 12 61.45 11.2 58.85 10.6C57.35 10.3 56.25 8.9 56.35 7.4L56.55 3.3C56.65 1.5 55.25 0 53.45 0H46.55C44.75 0 43.35 1.5 43.45 3.3L43.65 7.4C43.75 8.9 42.65 10.3 41.15 10.6C38.55 11.2 36.15 12 33.75 13C32.35 13.6 30.65 13.1 29.85 11.8L27.55 8.2C26.55 6.7 24.55 6.3 23.05 7.4L17.45 11.5C15.95 12.6 15.75 14.6 16.85 16L19.55 19.3C20.55 20.5 20.45 22.2 19.45 23.4C17.75 25.3 16.35 27.3 15.05 29.5C14.25 30.8 12.65 31.4 11.15 30.8L7.24998 29.3C5.54998 28.6 3.64998 29.5 3.14998 31.3L1.04998 37.9C0.449983 39.6 1.44998 41.5 3.24998 41.9L7.24998 43C8.74998 43.4 9.74998 44.8 9.54998 46.4C9.44998 47.7 9.34998 49 9.34998 50.4C9.34998 51.7 9.44998 53.1 9.54998 54.4C9.74998 55.9 8.74998 57.4 7.24998 57.8L3.24998 58.9C1.44998 59.4 0.449983 61.2 1.04998 62.9L3.14998 69.5C3.74998 71.2 5.64998 72.1 7.24998 71.5L11.15 70C12.55 69.4 14.25 70 15.05 71.3C16.35 73.5 17.85 75.5 19.45 77.4C20.45 78.6 20.55 80.3 19.55 81.5L16.85 84.8C15.75 86.2 15.95 88.3 17.45 89.3L23.05 93.4C24.55 94.5 26.55 94.1 27.55 92.6L29.85 89C30.65 87.7 32.35 87.2 33.75 87.8C36.05 88.8 38.55 89.6 41.15 90.2C42.65 90.5 43.75 91.9 43.65 93.4L43.45 97.5C43.35 99.3 44.75 100.8 46.55 100.8H53.45C55.25 100.8 56.65 99.3 56.55 97.5L56.35 93.4C56.25 91.9 57.35 90.5 58.85 90.2C61.45 89.6 63.85 88.8 66.25 87.8C67.65 87.2 69.35 87.7 70.15 89L72.45 92.6C73.45 94.1 75.45 94.5 76.95 93.4L82.55 89.3C84.05 88.2 84.25 86.2 83.15 84.8L80.45 81.5C79.45 80.3 79.55 78.6 80.55 77.4C82.25 75.5 83.65 73.5 84.95 71.3C85.75 70 87.35 69.4 88.85 70L92.75 71.5C94.45 72.2 96.35 71.3 96.85 69.5L98.95 62.9C99.45 61.2 98.45 59.4 96.75 58.9ZM49.95 76.3C35.75 76.3 24.15 64.8 24.15 50.5C24.15 36.2 35.65 24.7 49.95 24.7C64.15 24.7 75.75 36.2 75.75 50.5C75.75 64.8 64.15 76.3 49.95 76.3Z" fill="url(#paint2_radial_323_2434)"/>
<path opacity="0.4" d="M49.95 19.8999C33.05 19.8999 19.35 33.5999 19.35 50.4999C19.35 67.3999 33.05 81.0999 49.95 81.0999C66.85 81.0999 80.55 67.3999 80.55 50.4999C80.55 33.5999 66.85 19.8999 49.95 19.8999ZM49.95 76.2999C35.75 76.2999 24.15 64.7999 24.15 50.4999C24.15 36.2999 35.65 24.6999 49.95 24.6999C64.15 24.6999 75.75 36.1999 75.75 50.4999C75.75 64.7999 64.15 76.2999 49.95 76.2999Z" fill="url(#paint3_linear_323_2434)"/>
<path d="M49.95 71.8002C61.7136 71.8002 71.25 62.2639 71.25 50.5002C71.25 38.7365 61.7136 29.2002 49.95 29.2002C38.1863 29.2002 28.65 38.7365 28.65 50.5002C28.65 62.2639 38.1863 71.8002 49.95 71.8002Z" fill="url(#paint4_linear_323_2434)"/>
<path d="M47.5423 62.0467C51.0916 62.0467 54.6409 62.0467 58.1113 62.0467C58.1113 58.4186 58.1113 54.8693 58.1113 51.2411C58.0324 51.32 57.9536 51.32 57.9536 51.32C57.7958 51.3988 57.5592 51.5566 57.4014 51.6355C56.455 52.1087 55.5085 52.5031 54.4831 52.2664C54.1676 52.1876 53.8521 52.1087 53.6155 52.0298C53.4578 52.0298 53.3789 51.8721 53.3789 51.7932C53.3789 51.6355 53.3789 51.5566 53.3789 51.3988C53.4578 51.0833 53.5367 50.7679 53.6155 50.5312C53.7733 50.1369 53.8521 49.7425 53.8521 49.3481C53.8521 48.8749 53.5367 48.4017 53.0634 48.2439C52.8268 48.165 52.5902 48.165 52.2747 48.165C51.7226 48.165 51.2493 48.6383 51.1705 49.1904C51.1705 49.427 51.1705 49.6636 51.1705 49.9003C51.1705 50.2157 51.2493 50.4524 51.5648 50.689C51.7226 50.8467 51.8803 50.9256 52.0381 51.0833C52.2747 51.32 52.2747 51.6355 51.9592 51.7932C51.8014 51.8721 51.6437 51.951 51.4859 51.951C51.2493 51.951 51.0127 51.951 50.7761 51.951C49.9085 51.951 49.1198 51.7932 48.2521 51.6355C48.0155 51.5566 47.8578 51.5566 47.6212 51.4777V51.5566V51.6355C47.8578 52.2664 48.0155 52.9763 48.0155 53.6862C48.0155 54.1594 48.0155 54.5538 47.9367 55.027C47.8578 55.5003 47.5423 55.7369 47.1479 55.8157C46.9113 55.8157 46.5958 55.7369 46.4381 55.658C46.1226 55.5003 45.8071 55.3425 45.4916 55.3425C44.9395 55.2636 44.4662 55.5791 44.3085 56.1312C44.2296 56.5256 44.2296 56.8411 44.3085 57.2355C44.3874 57.6298 44.5451 57.9453 45.0183 57.9453C45.255 57.9453 45.5705 57.9453 45.8071 57.8664C46.1226 57.7876 46.4381 57.6298 46.8324 57.4721C46.9902 57.3932 47.1479 57.3932 47.3057 57.3932C47.6212 57.4721 47.8578 57.6298 48.0155 57.9453C48.0944 58.1031 48.0944 58.2608 48.1733 58.4974C48.2521 59.365 48.1733 60.2326 48.0155 61.1003C47.7 61.4946 47.6212 61.7312 47.5423 62.0467Z" fill="#7644E4"/>
<path d="M36.5 62.0463C39.9704 62.0463 43.5197 62.0463 46.9901 62.0463C46.9901 61.8886 46.9901 61.8097 46.9901 61.652C47.069 60.9421 47.2268 60.1534 47.3056 59.4435C47.3056 59.128 47.3056 58.7337 47.3056 58.4182C47.3056 58.1815 47.1479 58.1027 46.9113 58.1815C46.7535 58.2604 46.5958 58.3393 46.438 58.4182C46.1225 58.5759 45.8859 58.7337 45.4915 58.7337C44.6239 58.8125 43.993 58.4182 43.5986 57.6294C43.5197 57.5506 43.5197 57.4717 43.5197 57.3928C43.362 56.6041 43.5986 55.9731 44.0718 55.3421C44.6239 54.7111 45.2549 54.5534 45.9648 54.9477C46.1225 55.0266 46.3592 55.1055 46.5169 55.2632C47.069 55.4999 47.3056 55.3421 47.3845 54.79C47.3845 54.3956 47.3845 53.9224 47.3845 53.528C47.3845 52.9759 47.2268 52.4238 46.9901 51.9506C46.9113 51.7928 46.8324 51.7928 46.6746 51.7928C46.5958 51.7928 46.5169 51.7928 46.5169 51.7928C45.8859 51.9506 45.2549 52.0294 44.6239 52.1872C44.2296 52.2661 43.7563 52.3449 43.362 52.1872C42.9676 52.0294 42.6521 51.8717 42.5732 51.4773C42.4944 51.2407 42.5732 50.9252 42.6521 50.6886C42.731 50.3731 42.8887 50.0576 42.8887 49.7421C42.9676 48.8745 42.731 48.3224 42.0211 48.1646C41.0746 47.928 40.3648 48.559 40.5225 49.5055C40.6014 49.821 40.6803 50.2153 40.7592 50.5308C40.838 50.7675 40.9169 51.083 40.7592 51.3196C40.5225 51.7928 40.207 52.0294 39.6549 52.1083C38.6296 52.1872 37.6042 52.0294 36.6577 51.5562C36.6577 51.4773 36.5789 51.4773 36.5 51.3984C36.5 54.9477 36.5 58.497 36.5 62.0463Z" fill="#7644E4"/>
<path d="M46.9113 40.3569C43.4408 40.3569 39.9704 40.3569 36.5 40.3569C36.5 40.4358 36.5 40.5147 36.5 40.5147C36.5 43.8274 36.5 47.14 36.5 50.4527C36.5 50.8471 36.5 50.8471 36.8944 50.9259C37.8408 51.2414 38.7873 51.3203 39.7338 51.3203C39.8127 51.3203 39.8915 51.3203 39.9704 51.2414C40.1282 51.2414 40.207 51.0837 40.207 50.9259C40.207 50.7682 40.207 50.6893 40.1282 50.5316C39.8915 50.0583 39.8127 49.5062 39.8127 48.9541C39.8127 48.2443 40.2859 47.6921 40.9958 47.5344C41.469 47.4555 41.8634 47.4555 42.3366 47.5344C42.8887 47.6921 43.2831 47.9288 43.5197 48.4809C43.6775 48.8752 43.6775 49.2696 43.5986 49.664C43.5197 49.9795 43.4408 50.295 43.362 50.6893C43.2831 50.9259 43.362 51.0837 43.5197 51.2414C43.8352 51.4781 44.1507 51.5569 44.5451 51.5569C45.4127 51.3992 46.2014 51.1626 47.069 51.0837C47.069 51.0048 47.069 50.9259 47.069 50.9259C47.1479 50.3738 47.2268 49.8217 47.2268 49.2696C47.2268 48.7175 47.2268 48.1654 47.2268 47.5344C47.2268 47.3767 47.1479 47.2189 47.1479 47.0612C47.069 46.9034 46.9901 46.9034 46.8324 46.9034C46.6746 46.9823 46.5169 46.9823 46.438 47.0612C46.1225 47.2189 45.807 47.3767 45.4127 47.4555C44.7028 47.6133 44.1507 47.3767 43.7563 46.7457C43.5986 46.4302 43.5986 46.1936 43.5197 45.8781C43.5197 45.4048 43.5197 44.9316 43.7563 44.4583C43.993 43.9062 44.4662 43.5907 45.0183 43.6696C45.2549 43.6696 45.4915 43.7485 45.7282 43.8274C46.1225 43.9851 46.5169 44.1428 46.9113 44.3006C47.1479 44.3795 47.3056 44.3006 47.3056 44.064C47.3845 43.5119 47.3845 42.9598 47.3056 42.4076C47.3056 41.6978 47.1479 41.0668 46.9113 40.3569Z" fill="#8B00FF"/>
<path d="M64.5 42.0128C64.1845 42.486 63.7901 43.0381 63.4746 43.5114C62.2126 45.2466 61.0295 46.9818 59.7676 48.717C59.4521 49.1902 59.0577 49.6635 58.7422 50.1367C58.7422 50.2156 58.6633 50.2156 58.5845 50.2156C57.5591 50.2945 56.6126 50.0578 55.6662 49.6635C55.3507 49.5057 55.0352 49.2691 54.7197 49.0325C54.6408 48.9536 54.6408 48.8747 54.5619 48.7959C54.4831 48.5593 54.5619 48.4015 54.7986 48.2438C55.0352 48.086 55.2718 48.0071 55.5084 47.8494C56.0605 47.5339 56.376 47.0607 56.376 46.3508C56.376 45.7987 56.2183 45.3255 55.9028 44.8522C55.1141 43.9057 53.6155 43.9846 52.9056 45.01C52.669 45.3255 52.669 45.7198 52.5901 46.0353C52.5901 46.1931 52.5112 46.3508 52.5112 46.5085C52.4324 46.7452 52.2746 46.824 52.038 46.6663C51.8014 46.5085 51.5648 46.2719 51.3281 46.1142C50.8549 45.5621 50.3028 45.01 49.8295 44.4578C49.7507 44.379 49.7507 44.3001 49.8295 44.1424C50.3028 43.5902 50.8549 43.0381 51.3281 42.486C51.5648 42.2494 51.7225 42.0128 51.8802 41.855C52.2746 41.6973 52.3535 41.3818 52.2746 40.9874C52.2746 40.7508 52.1169 40.5931 51.8802 40.5142C51.6436 40.4353 51.3281 40.4353 51.0915 40.3564C50.9338 40.3564 50.6972 40.2776 50.5394 40.2776C50.0662 40.1198 49.7507 39.8043 49.7507 39.2522C49.7507 38.6212 49.9873 38.0691 50.4605 37.6747C50.9338 37.2804 51.4859 37.2804 51.9591 37.7536C52.1957 37.9902 52.3535 38.2269 52.5112 38.5424C52.5901 38.7001 52.669 38.8578 52.8267 39.0156C53.0633 39.3311 53.3788 39.41 53.7732 39.1733C54.0098 38.9367 54.3253 38.7001 54.4831 38.4635C55.0352 37.8325 55.2718 37.1226 55.5084 36.3339C55.5873 36.1762 55.5873 36.0184 55.6662 35.8607C55.745 35.7029 55.745 35.7029 55.9028 35.7818C56.376 36.0973 56.8493 36.4916 57.4014 36.8071C59.6887 38.4635 62.0549 40.1198 64.3422 41.855C64.4211 41.855 64.4211 41.9339 64.5 42.0128C64.5 41.9339 64.5 41.9339 64.5 42.0128Z" fill="#8B00FF"/>
<path d="M47.5423 62.0467C47.6211 61.7312 47.7 61.4946 47.7789 61.258C47.9366 60.3904 48.0944 59.5228 47.9366 58.6551C47.9366 58.4974 47.8578 58.2608 47.7789 58.103C47.6211 57.7875 47.3845 57.5509 47.069 57.5509C46.9113 57.5509 46.7535 57.5509 46.5958 57.6298C46.2803 57.7087 45.9648 57.9453 45.5704 58.0242C45.3338 58.103 45.0972 58.103 44.7817 58.103C44.3873 58.103 44.1507 57.7875 44.0719 57.3932C43.993 56.9988 43.993 56.6833 44.0719 56.289C44.2296 55.7368 44.7028 55.4213 45.2549 55.5002C45.5704 55.5791 45.9648 55.658 46.2014 55.8157C46.438 55.9735 46.6747 56.0523 46.9113 55.9735C47.3845 55.8946 47.7 55.658 47.7 55.1847C47.7789 54.7115 47.7789 54.3171 47.7789 53.8439C47.7789 53.134 47.6211 52.4242 47.3845 51.7932V51.7143C47.3845 51.7143 47.3845 51.7143 47.3845 51.6354C47.6211 51.7143 47.7789 51.7143 48.0155 51.7932C48.8042 51.9509 49.6718 52.0298 50.5395 52.1087C50.7761 52.1087 51.0127 52.1087 51.2493 52.1087C51.4071 52.1087 51.5648 52.0298 51.7226 51.9509C51.9592 51.7932 52.038 51.4777 51.8014 51.2411C51.6437 51.0833 51.4859 50.9256 51.3282 50.8467C51.0916 50.689 50.9338 50.3735 50.9338 50.058C50.9338 49.8213 50.9338 49.5847 50.9338 49.3481C51.0127 48.796 51.4859 48.3228 52.038 48.3228C52.2747 48.3228 52.5902 48.3228 52.8268 48.4016C53.3 48.5594 53.6155 48.9537 53.6155 49.5059C53.6155 49.9002 53.5366 50.2946 53.3789 50.689C53.3 51.0044 53.2211 51.3199 53.1423 51.5566C53.1423 51.6354 53.1423 51.7932 53.1423 51.9509C53.1423 52.1087 53.2211 52.1875 53.3789 52.1875C53.6944 52.2664 54.0099 52.3453 54.2465 52.4242C55.3507 52.6608 56.2972 52.2664 57.1648 51.7932C57.4014 51.7143 57.5592 51.5566 57.7169 51.4777C57.7958 51.4777 57.7958 51.3988 57.8747 51.3988C57.8747 55.027 57.8747 58.6551 57.8747 62.2044C54.6409 62.0467 51.0916 62.0467 47.5423 62.0467Z" fill="#7644E4"/>
<path d="M36.5 62.0471C36.5 58.4978 36.5 54.9485 36.5 51.3992C36.5789 51.4781 36.6577 51.4781 36.6577 51.4781C37.6042 51.9513 38.6296 52.1091 39.6549 52.0302C40.1282 51.9513 40.5225 51.7147 40.7592 51.2415C40.9169 51.0048 40.838 50.6893 40.7592 50.4527C40.6803 50.1372 40.5225 49.8217 40.5225 49.4274C40.3648 48.4809 41.0746 47.8499 42.0211 48.0865C42.731 48.2443 42.9676 48.7964 42.8887 49.5062C42.8099 49.8217 42.731 50.1372 42.6521 50.4527C42.5732 50.6893 42.4944 50.926 42.5732 51.2415C42.6521 51.6358 43.0465 51.8724 43.362 51.9513C43.7563 52.1091 44.2296 52.0302 44.6239 51.9513C45.2549 51.8724 45.8859 51.7147 46.5169 51.5569C46.5958 51.5569 46.6746 51.5569 46.6746 51.5569C46.8324 51.5569 46.9113 51.6358 46.9901 51.7147C47.1479 52.1879 47.3056 52.74 47.3845 53.2922C47.3845 53.6865 47.3845 54.1598 47.3845 54.5541C47.3845 55.1062 47.069 55.264 46.5169 55.0274C46.3592 54.9485 46.1225 54.8696 45.9648 54.7119C45.2549 54.3964 44.5451 54.4753 44.0718 55.1062C43.5986 55.7372 43.362 56.3682 43.5197 57.1569C43.5197 57.2358 43.5197 57.3147 43.5986 57.3936C44.0718 58.1823 44.7028 58.5767 45.4915 58.4978C45.807 58.4978 46.1225 58.34 46.438 58.1823C46.5958 58.1034 46.7535 58.0246 46.9113 57.9457C47.1479 57.8668 47.3056 57.9457 47.3056 58.1823C47.3056 58.4978 47.3056 58.8922 47.3056 59.2076C47.2268 59.9964 47.1479 60.7062 46.9901 61.4161C46.9901 61.5738 46.9901 61.6527 46.9901 61.8105C43.5197 62.0471 39.9704 62.0471 36.5 62.0471Z" fill="#7644E4"/>
<path d="M46.9113 40.3569C47.1479 41.0668 47.3845 41.6978 47.3845 42.4076C47.4634 42.9598 47.4634 43.5119 47.3845 44.064C47.3056 44.3006 47.2268 44.3795 46.9901 44.3006C46.5958 44.1428 46.2014 43.9851 45.807 43.8274C45.5704 43.7485 45.3338 43.6696 45.0972 43.6696C44.5451 43.5907 44.0718 43.9062 43.8352 44.4583C43.6775 45.0105 43.5986 45.4837 43.6775 45.9569C43.6775 46.2724 43.7563 46.5879 43.9141 46.8245C44.3085 47.4555 44.7817 47.6921 45.5704 47.5344C45.9648 47.4555 46.2803 47.2978 46.5958 47.14C46.7535 47.0612 46.8324 46.9823 46.9901 46.9823C47.1479 46.9034 47.2268 46.9823 47.3056 47.14C47.3845 47.2978 47.3845 47.4555 47.3845 47.6133C47.3845 48.1654 47.3845 48.7175 47.3845 49.3485C47.3845 49.9006 47.2268 50.4527 47.2268 51.0048C47.2268 51.0837 47.2268 51.0837 47.2268 51.1626C46.3592 51.2414 45.4915 51.4781 44.7028 51.6358C44.3085 51.7147 43.993 51.6358 43.6775 51.3203C43.5197 51.1626 43.4408 51.0048 43.5197 50.7682C43.5986 50.4527 43.6775 50.1372 43.7563 49.7428C43.8352 49.3485 43.8352 48.9541 43.6775 48.5598C43.4408 48.0076 43.0465 47.6921 42.4944 47.6133C42.0211 47.5344 41.6268 47.5344 41.1535 47.6133C40.4437 47.771 40.0493 48.3231 39.9704 49.033C39.9704 49.5851 40.0493 50.1372 40.2859 50.6105C40.3648 50.6893 40.3648 50.8471 40.3648 51.0048C40.3648 51.1626 40.2859 51.2414 40.1282 51.3203C40.0493 51.3203 39.9704 51.3992 39.8915 51.3992C38.9451 51.3992 37.9197 51.3203 37.0521 51.0048C36.5 50.8471 36.5 50.8471 36.5 50.4527C36.5 47.14 36.5 43.8274 36.5 40.5147C36.5 40.5147 36.5 40.4358 36.5 40.3569C39.9704 40.3569 43.4408 40.3569 46.9113 40.3569Z" fill="#7644E4"/>
<defs>
<linearGradient id="paint0_linear_323_2434" x1="40.2652" y1="50.4" x2="-9.99672" y2="44.8228" gradientUnits="userSpaceOnUse">
<stop stop-color="#8B00FF"/>
<stop offset="1" stop-color="#EB00FF"/>
</linearGradient>
<radialGradient id="paint1_radial_323_2434" cx="0" cy="0" r="1" gradientUnits="userSpaceOnUse" gradientTransform="translate(68.8544 117.277) rotate(-45.6841) scale(43.3479 42.123)">
<stop stop-color="#0066FF"/>
<stop offset="1" stop-color="#00E0FF" stop-opacity="0"/>
</radialGradient>
<radialGradient id="paint2_radial_323_2434" cx="0" cy="0" r="1" gradientUnits="userSpaceOnUse" gradientTransform="translate(2.14618 -21.3231) rotate(74.4881) scale(74.4344 78.9497)">
<stop offset="0.0604609" stop-color="#FFF500"/>
<stop offset="1" stop-color="#8B00FF" stop-opacity="0"/>
</radialGradient>
<linearGradient id="paint3_linear_323_2434" x1="28.2892" y1="28.8834" x2="71.5937" y2="72.1879" gradientUnits="userSpaceOnUse">
<stop stop-color="#5DB6C3"/>
<stop offset="1" stop-color="#4C829F"/>
</linearGradient>
<linearGradient id="paint4_linear_323_2434" x1="34.9017" y1="35.4961" x2="64.9813" y2="65.5757" gradientUnits="userSpaceOnUse">
<stop stop-color="white"/>
<stop offset="0.2753" stop-color="#F8F8F8"/>
<stop offset="0.6731" stop-color="#E5E5E5"/>
<stop offset="1" stop-color="#D0D0D0"/>
</linearGradient>
</defs>
</svg>
