<svg width="61" height="60" viewBox="0 0 61 60" fill="none" xmlns="http://www.w3.org/2000/svg">
<g clip-path="url(#clip0_325_2542)">
<path d="M1.21782 0.031154C1.51794 0.0911628 1.85503 0.102473 2.00549 0.368997C2.16232 0.646804 2.1697 0.982716 2.1697 1.32601C2.1697 10.5616 2.1697 19.8127 2.1697 29.0483C2.1697 38.4867 2.1697 47.9251 2.1697 57.3635C2.1697 58.2683 2.1697 58.2683 3.05917 58.2683C4.47919 58.2683 5.91482 58.2527 7.33485 58.2839C7.8498 58.2995 8.00585 58.1123 8.00585 57.5975C7.99025 53.7129 7.99025 49.8439 8.00585 45.9594C8.00585 44.8986 8.22432 44.6801 9.26983 44.6801C11.314 44.6801 13.3583 44.6801 15.4181 44.6801C16.5728 44.6801 16.8069 44.9142 16.8069 46.0998C16.8069 49.8284 16.8069 53.5413 16.8069 57.2698C16.8069 57.4415 16.8069 57.6287 16.8069 57.8003C16.8069 58.1123 16.9317 58.2683 17.2594 58.2683C18.5858 58.2683 19.9122 58.2683 21.2386 58.2683C21.5663 58.2683 21.7068 58.1279 21.6912 57.8003C21.6912 57.6287 21.6912 57.4571 21.6912 57.2698C21.6912 51.0764 21.6912 44.8673 21.6912 38.6739C21.6912 37.5975 21.8628 37.4258 22.9551 37.4258C25.0618 37.4258 27.1684 37.4258 29.275 37.4258C30.1957 37.4258 30.3986 37.6443 30.4142 38.5647C30.4142 44.8205 30.4142 51.0764 30.4142 57.3479C30.4142 58.2683 30.4142 58.2683 31.3505 58.2683C32.396 58.2683 33.4571 58.2683 34.5026 58.2683C35.2672 58.2683 35.2828 58.2527 35.2828 57.4883C35.2828 52.1216 35.2828 46.7706 35.2828 41.404C35.2828 38.2683 35.2828 35.1326 35.2828 31.9812C35.2828 31.7472 35.2828 31.5132 35.314 31.2792C35.3765 30.7332 35.6886 30.4212 36.2503 30.4212C38.5442 30.4212 40.8537 30.4056 43.1476 30.4212C43.7562 30.4212 44.0215 30.7176 44.0683 31.326C44.0839 31.5444 44.0683 31.7472 44.0683 31.9656C44.0683 40.4524 44.0683 48.9235 44.0683 57.4103C44.0683 58.2527 44.0683 58.2527 44.8953 58.2527C46.0033 58.2527 47.1268 58.2215 48.2347 58.2683C48.8121 58.2839 48.9681 58.0811 48.9681 57.5195C48.9525 52.262 48.9525 46.989 48.9681 41.7316C48.9681 35.3198 48.9681 28.9079 48.9681 22.4805C48.9681 21.248 49.171 21.0452 50.3882 21.0452C52.4012 21.0452 54.3986 21.0452 56.4116 21.0452C57.5039 21.0452 57.7536 21.2948 57.7536 22.3869C57.7536 31.1076 57.7536 39.8127 57.7536 48.5335C57.7536 51.4508 57.7536 54.3837 57.7536 57.301C57.7536 58.2527 57.7536 58.2371 58.7211 58.2527C58.9605 58.2588 59.2096 58.236 59.4503 58.245C60.1995 58.2729 60.9418 59.3511 60.3908 59.8596C60.2035 60.0468 59.6573 59.9064 59.2672 59.9064C39.855 59.9064 20.4584 59.9064 1.04616 59.922C0.609233 59.922 0.515605 59.8284 0.515605 59.3915C0.515605 39.8596 0.515605 20.2964 0.5 0.733182C0.5 0.140358 0.624837 -0.093651 1.21782 0.031154ZM56.0683 40.5616C56.0839 40.5616 56.0839 40.5616 56.0683 40.5616C56.0683 34.9142 56.0683 29.2511 56.0683 23.6037C56.0683 22.7457 56.0683 22.7457 55.2412 22.7457C53.9772 22.7457 52.7133 22.7457 51.4337 22.7457C50.6222 22.7457 50.6222 22.7457 50.6222 23.5413C50.6222 29.4695 50.6222 35.3978 50.6222 41.3104C50.6222 46.6926 50.6222 52.0748 50.6222 57.4415C50.6222 58.2683 50.6222 58.2683 51.4649 58.2683C52.7133 58.2683 53.9616 58.2683 55.21 58.2683C56.0527 58.2683 56.0527 58.2683 56.0527 57.4259C56.0839 51.8252 56.0683 46.1934 56.0683 40.5616ZM42.3986 45.2574C42.3986 41.1232 42.3986 36.989 42.4142 32.8549C42.4142 32.3244 42.3049 32.0748 41.712 32.0904C40.37 32.1216 39.028 32.1216 37.6703 32.0904C37.1866 32.0748 37.0306 32.262 37.0306 32.7457C37.0462 41.0452 37.0462 49.3447 37.0306 57.6599C37.0306 58.1435 37.2022 58.2995 37.686 58.2995C39.0124 58.2839 40.3387 58.2683 41.6651 58.2995C42.2737 58.3151 42.4142 58.0967 42.4142 57.5195C42.383 53.4321 42.3986 49.3447 42.3986 45.2574ZM23.3453 48.7051C23.3453 51.6848 23.3609 54.6645 23.3453 57.6443C23.3453 58.1123 23.4857 58.2995 23.9694 58.2995C25.327 58.2683 26.7003 58.2839 28.0579 58.2995C28.5416 58.3151 28.6977 58.1435 28.6977 57.6599C28.6821 51.7004 28.6821 45.741 28.6977 39.7659C28.6977 39.2355 28.4948 39.0951 27.9954 39.1107C26.6847 39.1263 25.3895 39.1419 24.0787 39.1107C23.4857 39.0951 23.2984 39.2823 23.314 39.8752C23.3609 42.8237 23.3453 45.7566 23.3453 48.7051ZM9.67555 52.34C9.67555 54.1341 9.69116 55.9282 9.67555 57.7223C9.67555 58.1591 9.8316 58.3151 10.2529 58.2995C11.6417 58.2839 13.015 58.2839 14.4038 58.2995C14.8875 58.3151 15.0436 58.1279 15.0436 57.6443C15.028 54.1029 15.028 50.5616 15.0436 47.0046C15.0436 46.521 14.8719 46.3494 14.3882 46.365C13.0306 46.3806 11.6573 46.3806 10.2997 46.365C9.80039 46.3494 9.65995 46.5366 9.65995 47.0202C9.67555 48.7987 9.67555 50.5616 9.67555 52.34Z" fill="url(#paint0_linear_325_2542)"/>
<path d="M1.21782 0.031154C1.51794 0.0911628 1.85503 0.102473 2.00549 0.368997C2.16232 0.646804 2.1697 0.982716 2.1697 1.32601C2.1697 10.5616 2.1697 19.8127 2.1697 29.0483C2.1697 38.4867 2.1697 47.9251 2.1697 57.3635C2.1697 58.2683 2.1697 58.2683 3.05917 58.2683C4.47919 58.2683 5.91482 58.2527 7.33485 58.2839C7.8498 58.2995 8.00585 58.1123 8.00585 57.5975C7.99025 53.7129 7.99025 49.8439 8.00585 45.9594C8.00585 44.8986 8.22432 44.6801 9.26983 44.6801C11.314 44.6801 13.3583 44.6801 15.4181 44.6801C16.5728 44.6801 16.8069 44.9142 16.8069 46.0998C16.8069 49.8284 16.8069 53.5413 16.8069 57.2698C16.8069 57.4415 16.8069 57.6287 16.8069 57.8003C16.8069 58.1123 16.9317 58.2683 17.2594 58.2683C18.5858 58.2683 19.9122 58.2683 21.2386 58.2683C21.5663 58.2683 21.7068 58.1279 21.6912 57.8003C21.6912 57.6287 21.6912 57.4571 21.6912 57.2698C21.6912 51.0764 21.6912 44.8673 21.6912 38.6739C21.6912 37.5975 21.8628 37.4258 22.9551 37.4258C25.0618 37.4258 27.1684 37.4258 29.275 37.4258C30.1957 37.4258 30.3986 37.6443 30.4142 38.5647C30.4142 44.8205 30.4142 51.0764 30.4142 57.3479C30.4142 58.2683 30.4142 58.2683 31.3505 58.2683C32.396 58.2683 33.4571 58.2683 34.5026 58.2683C35.2672 58.2683 35.2828 58.2527 35.2828 57.4883C35.2828 52.1216 35.2828 46.7706 35.2828 41.404C35.2828 38.2683 35.2828 35.1326 35.2828 31.9812C35.2828 31.7472 35.2828 31.5132 35.314 31.2792C35.3765 30.7332 35.6886 30.4212 36.2503 30.4212C38.5442 30.4212 40.8537 30.4056 43.1476 30.4212C43.7562 30.4212 44.0215 30.7176 44.0683 31.326C44.0839 31.5444 44.0683 31.7472 44.0683 31.9656C44.0683 40.4524 44.0683 48.9235 44.0683 57.4103C44.0683 58.2527 44.0683 58.2527 44.8953 58.2527C46.0033 58.2527 47.1268 58.2215 48.2347 58.2683C48.8121 58.2839 48.9681 58.0811 48.9681 57.5195C48.9525 52.262 48.9525 46.989 48.9681 41.7316C48.9681 35.3198 48.9681 28.9079 48.9681 22.4805C48.9681 21.248 49.171 21.0452 50.3882 21.0452C52.4012 21.0452 54.3986 21.0452 56.4116 21.0452C57.5039 21.0452 57.7536 21.2948 57.7536 22.3869C57.7536 31.1076 57.7536 39.8127 57.7536 48.5335C57.7536 51.4508 57.7536 54.3837 57.7536 57.301C57.7536 58.2527 57.7536 58.2371 58.7211 58.2527C58.9605 58.2588 59.2096 58.236 59.4503 58.245C60.1995 58.2729 60.9418 59.3511 60.3908 59.8596C60.2035 60.0468 59.6573 59.9064 59.2672 59.9064C39.855 59.9064 20.4584 59.9064 1.04616 59.922C0.609233 59.922 0.515605 59.8284 0.515605 59.3915C0.515605 39.8596 0.515605 20.2964 0.5 0.733182C0.5 0.140358 0.624837 -0.093651 1.21782 0.031154ZM56.0683 40.5616C56.0839 40.5616 56.0839 40.5616 56.0683 40.5616C56.0683 34.9142 56.0683 29.2511 56.0683 23.6037C56.0683 22.7457 56.0683 22.7457 55.2412 22.7457C53.9772 22.7457 52.7133 22.7457 51.4337 22.7457C50.6222 22.7457 50.6222 22.7457 50.6222 23.5413C50.6222 29.4695 50.6222 35.3978 50.6222 41.3104C50.6222 46.6926 50.6222 52.0748 50.6222 57.4415C50.6222 58.2683 50.6222 58.2683 51.4649 58.2683C52.7133 58.2683 53.9616 58.2683 55.21 58.2683C56.0527 58.2683 56.0527 58.2683 56.0527 57.4259C56.0839 51.8252 56.0683 46.1934 56.0683 40.5616ZM42.3986 45.2574C42.3986 41.1232 42.3986 36.989 42.4142 32.8549C42.4142 32.3244 42.3049 32.0748 41.712 32.0904C40.37 32.1216 39.028 32.1216 37.6703 32.0904C37.1866 32.0748 37.0306 32.262 37.0306 32.7457C37.0462 41.0452 37.0462 49.3447 37.0306 57.6599C37.0306 58.1435 37.2022 58.2995 37.686 58.2995C39.0124 58.2839 40.3387 58.2683 41.6651 58.2995C42.2737 58.3151 42.4142 58.0967 42.4142 57.5195C42.383 53.4321 42.3986 49.3447 42.3986 45.2574ZM23.3453 48.7051C23.3453 51.6848 23.3609 54.6645 23.3453 57.6443C23.3453 58.1123 23.4857 58.2995 23.9694 58.2995C25.327 58.2683 26.7003 58.2839 28.0579 58.2995C28.5416 58.3151 28.6977 58.1435 28.6977 57.6599C28.6821 51.7004 28.6821 45.741 28.6977 39.7659C28.6977 39.2355 28.4948 39.0951 27.9954 39.1107C26.6847 39.1263 25.3895 39.1419 24.0787 39.1107C23.4857 39.0951 23.2984 39.2823 23.314 39.8752C23.3609 42.8237 23.3453 45.7566 23.3453 48.7051ZM9.67555 52.34C9.67555 54.1341 9.69116 55.9282 9.67555 57.7223C9.67555 58.1591 9.8316 58.3151 10.2529 58.2995C11.6417 58.2839 13.015 58.2839 14.4038 58.2995C14.8875 58.3151 15.0436 58.1279 15.0436 57.6443C15.028 54.1029 15.028 50.5616 15.0436 47.0046C15.0436 46.521 14.8719 46.3494 14.3882 46.365C13.0306 46.3806 11.6573 46.3806 10.2997 46.365C9.80039 46.3494 9.65995 46.5366 9.65995 47.0202C9.67555 48.7987 9.67555 50.5616 9.67555 52.34Z" fill="url(#paint1_radial_325_2542)"/>
<path d="M1.21782 0.031154C1.51794 0.0911628 1.85503 0.102473 2.00549 0.368997C2.16232 0.646804 2.1697 0.982716 2.1697 1.32601C2.1697 10.5616 2.1697 19.8127 2.1697 29.0483C2.1697 38.4867 2.1697 47.9251 2.1697 57.3635C2.1697 58.2683 2.1697 58.2683 3.05917 58.2683C4.47919 58.2683 5.91482 58.2527 7.33485 58.2839C7.8498 58.2995 8.00585 58.1123 8.00585 57.5975C7.99025 53.7129 7.99025 49.8439 8.00585 45.9594C8.00585 44.8986 8.22432 44.6801 9.26983 44.6801C11.314 44.6801 13.3583 44.6801 15.4181 44.6801C16.5728 44.6801 16.8069 44.9142 16.8069 46.0998C16.8069 49.8284 16.8069 53.5413 16.8069 57.2698C16.8069 57.4415 16.8069 57.6287 16.8069 57.8003C16.8069 58.1123 16.9317 58.2683 17.2594 58.2683C18.5858 58.2683 19.9122 58.2683 21.2386 58.2683C21.5663 58.2683 21.7068 58.1279 21.6912 57.8003C21.6912 57.6287 21.6912 57.4571 21.6912 57.2698C21.6912 51.0764 21.6912 44.8673 21.6912 38.6739C21.6912 37.5975 21.8628 37.4258 22.9551 37.4258C25.0618 37.4258 27.1684 37.4258 29.275 37.4258C30.1957 37.4258 30.3986 37.6443 30.4142 38.5647C30.4142 44.8205 30.4142 51.0764 30.4142 57.3479C30.4142 58.2683 30.4142 58.2683 31.3505 58.2683C32.396 58.2683 33.4571 58.2683 34.5026 58.2683C35.2672 58.2683 35.2828 58.2527 35.2828 57.4883C35.2828 52.1216 35.2828 46.7706 35.2828 41.404C35.2828 38.2683 35.2828 35.1326 35.2828 31.9812C35.2828 31.7472 35.2828 31.5132 35.314 31.2792C35.3765 30.7332 35.6886 30.4212 36.2503 30.4212C38.5442 30.4212 40.8537 30.4056 43.1476 30.4212C43.7562 30.4212 44.0215 30.7176 44.0683 31.326C44.0839 31.5444 44.0683 31.7472 44.0683 31.9656C44.0683 40.4524 44.0683 48.9235 44.0683 57.4103C44.0683 58.2527 44.0683 58.2527 44.8953 58.2527C46.0033 58.2527 47.1268 58.2215 48.2347 58.2683C48.8121 58.2839 48.9681 58.0811 48.9681 57.5195C48.9525 52.262 48.9525 46.989 48.9681 41.7316C48.9681 35.3198 48.9681 28.9079 48.9681 22.4805C48.9681 21.248 49.171 21.0452 50.3882 21.0452C52.4012 21.0452 54.3986 21.0452 56.4116 21.0452C57.5039 21.0452 57.7536 21.2948 57.7536 22.3869C57.7536 31.1076 57.7536 39.8127 57.7536 48.5335C57.7536 51.4508 57.7536 54.3837 57.7536 57.301C57.7536 58.2527 57.7536 58.2371 58.7211 58.2527C58.9605 58.2588 59.2096 58.236 59.4503 58.245C60.1995 58.2729 60.9418 59.3511 60.3908 59.8596C60.2035 60.0468 59.6573 59.9064 59.2672 59.9064C39.855 59.9064 20.4584 59.9064 1.04616 59.922C0.609233 59.922 0.515605 59.8284 0.515605 59.3915C0.515605 39.8596 0.515605 20.2964 0.5 0.733182C0.5 0.140358 0.624837 -0.093651 1.21782 0.031154ZM56.0683 40.5616C56.0839 40.5616 56.0839 40.5616 56.0683 40.5616C56.0683 34.9142 56.0683 29.2511 56.0683 23.6037C56.0683 22.7457 56.0683 22.7457 55.2412 22.7457C53.9772 22.7457 52.7133 22.7457 51.4337 22.7457C50.6222 22.7457 50.6222 22.7457 50.6222 23.5413C50.6222 29.4695 50.6222 35.3978 50.6222 41.3104C50.6222 46.6926 50.6222 52.0748 50.6222 57.4415C50.6222 58.2683 50.6222 58.2683 51.4649 58.2683C52.7133 58.2683 53.9616 58.2683 55.21 58.2683C56.0527 58.2683 56.0527 58.2683 56.0527 57.4259C56.0839 51.8252 56.0683 46.1934 56.0683 40.5616ZM42.3986 45.2574C42.3986 41.1232 42.3986 36.989 42.4142 32.8549C42.4142 32.3244 42.3049 32.0748 41.712 32.0904C40.37 32.1216 39.028 32.1216 37.6703 32.0904C37.1866 32.0748 37.0306 32.262 37.0306 32.7457C37.0462 41.0452 37.0462 49.3447 37.0306 57.6599C37.0306 58.1435 37.2022 58.2995 37.686 58.2995C39.0124 58.2839 40.3387 58.2683 41.6651 58.2995C42.2737 58.3151 42.4142 58.0967 42.4142 57.5195C42.383 53.4321 42.3986 49.3447 42.3986 45.2574ZM23.3453 48.7051C23.3453 51.6848 23.3609 54.6645 23.3453 57.6443C23.3453 58.1123 23.4857 58.2995 23.9694 58.2995C25.327 58.2683 26.7003 58.2839 28.0579 58.2995C28.5416 58.3151 28.6977 58.1435 28.6977 57.6599C28.6821 51.7004 28.6821 45.741 28.6977 39.7659C28.6977 39.2355 28.4948 39.0951 27.9954 39.1107C26.6847 39.1263 25.3895 39.1419 24.0787 39.1107C23.4857 39.0951 23.2984 39.2823 23.314 39.8752C23.3609 42.8237 23.3453 45.7566 23.3453 48.7051ZM9.67555 52.34C9.67555 54.1341 9.69116 55.9282 9.67555 57.7223C9.67555 58.1591 9.8316 58.3151 10.2529 58.2995C11.6417 58.2839 13.015 58.2839 14.4038 58.2995C14.8875 58.3151 15.0436 58.1279 15.0436 57.6443C15.028 54.1029 15.028 50.5616 15.0436 47.0046C15.0436 46.521 14.8719 46.3494 14.3882 46.365C13.0306 46.3806 11.6573 46.3806 10.2997 46.365C9.80039 46.3494 9.65995 46.5366 9.65995 47.0202C9.67555 48.7987 9.67555 50.5616 9.67555 52.34Z" fill="url(#paint2_radial_325_2542)"/>
<path d="M60.4391 8.48822C60.4361 8.70345 60.3756 8.91906 60.2037 9.04856C59.7601 9.38266 59.1983 9.28484 58.6587 9.29799C57.7536 9.29799 57.7536 9.298 57.7536 10.1872C57.7536 12.3869 57.7536 14.5866 57.7536 16.8019C57.7536 17.8471 57.5039 18.0811 56.4896 18.0811C54.383 18.0811 52.2763 18.0811 50.1697 18.0811C49.2178 18.0811 48.9681 17.8315 48.9681 16.8487C48.9681 14.571 48.9525 12.2933 48.9838 10C48.9838 9.4384 48.7965 9.21999 48.2503 9.26679C47.9226 9.298 47.5949 9.26679 47.2516 9.26679C46.8459 9.26679 46.5182 9.11079 46.3466 8.73637C46.1749 8.37756 46.3153 8.04994 46.5494 7.76913C47.8446 6.20907 49.1242 4.63341 50.4194 3.07335C51.1759 2.16295 51.945 1.23997 52.7041 0.326999C52.8681 0.129752 53.1172 0.015625 53.3737 0.015625C53.6312 0.015625 53.8693 0.130569 54.0332 0.329075C56.0825 2.81044 58.1447 5.30462 60.2073 7.79929C60.3653 7.99039 60.4426 8.24028 60.4391 8.48822ZM49.1896 7.20303C49.0598 7.36054 49.1541 7.61313 49.3583 7.61313C50.4974 7.65993 50.6378 7.80034 50.6378 8.92358C50.6378 11.2013 50.6534 13.479 50.6378 15.7723C50.6378 16.2559 50.7939 16.4275 51.2776 16.4275C52.6352 16.4119 54.0085 16.3963 55.3661 16.4275C55.9434 16.4431 56.0995 16.2247 56.0839 15.6786C56.0527 13.3386 56.0683 10.9985 56.0839 8.65837C56.0839 7.89394 56.3336 7.65993 57.0982 7.61313C57.4804 7.58373 57.5603 7.25216 57.3176 6.95545C56.0614 5.41992 54.8165 3.89562 53.5715 2.37132C53.3843 2.13731 53.2438 2.27771 53.1034 2.44932C52.8225 2.79254 52.5416 3.13575 52.2451 3.49456C51.2465 4.70688 50.2479 5.91919 49.1896 7.20303Z" fill="url(#paint3_linear_325_2542)"/>
<path d="M60.4391 8.48822C60.4361 8.70345 60.3756 8.91906 60.2037 9.04856C59.7601 9.38266 59.1983 9.28484 58.6587 9.29799C57.7536 9.29799 57.7536 9.298 57.7536 10.1872C57.7536 12.3869 57.7536 14.5866 57.7536 16.8019C57.7536 17.8471 57.5039 18.0811 56.4896 18.0811C54.383 18.0811 52.2763 18.0811 50.1697 18.0811C49.2178 18.0811 48.9681 17.8315 48.9681 16.8487C48.9681 14.571 48.9525 12.2933 48.9838 10C48.9838 9.4384 48.7965 9.21999 48.2503 9.26679C47.9226 9.298 47.5949 9.26679 47.2516 9.26679C46.8459 9.26679 46.5182 9.11079 46.3466 8.73637C46.1749 8.37756 46.3153 8.04994 46.5494 7.76913C47.8446 6.20907 49.1242 4.63341 50.4194 3.07335C51.1759 2.16295 51.945 1.23997 52.7041 0.326999C52.8681 0.129752 53.1172 0.015625 53.3737 0.015625C53.6312 0.015625 53.8693 0.130569 54.0332 0.329075C56.0825 2.81044 58.1447 5.30462 60.2073 7.79929C60.3653 7.99039 60.4426 8.24028 60.4391 8.48822ZM49.1896 7.20303C49.0598 7.36054 49.1541 7.61313 49.3583 7.61313C50.4974 7.65993 50.6378 7.80034 50.6378 8.92358C50.6378 11.2013 50.6534 13.479 50.6378 15.7723C50.6378 16.2559 50.7939 16.4275 51.2776 16.4275C52.6352 16.4119 54.0085 16.3963 55.3661 16.4275C55.9434 16.4431 56.0995 16.2247 56.0839 15.6786C56.0527 13.3386 56.0683 10.9985 56.0839 8.65837C56.0839 7.89394 56.3336 7.65993 57.0982 7.61313C57.4804 7.58373 57.5603 7.25216 57.3176 6.95545C56.0614 5.41992 54.8165 3.89562 53.5715 2.37132C53.3843 2.13731 53.2438 2.27771 53.1034 2.44932C52.8225 2.79254 52.5416 3.13575 52.2451 3.49456C51.2465 4.70688 50.2479 5.91919 49.1896 7.20303Z" fill="url(#paint4_radial_325_2542)"/>
<path d="M60.4391 8.48822C60.4361 8.70345 60.3756 8.91906 60.2037 9.04856C59.7601 9.38266 59.1983 9.28484 58.6587 9.29799C57.7536 9.29799 57.7536 9.298 57.7536 10.1872C57.7536 12.3869 57.7536 14.5866 57.7536 16.8019C57.7536 17.8471 57.5039 18.0811 56.4896 18.0811C54.383 18.0811 52.2763 18.0811 50.1697 18.0811C49.2178 18.0811 48.9681 17.8315 48.9681 16.8487C48.9681 14.571 48.9525 12.2933 48.9838 10C48.9838 9.4384 48.7965 9.21999 48.2503 9.26679C47.9226 9.298 47.5949 9.26679 47.2516 9.26679C46.8459 9.26679 46.5182 9.11079 46.3466 8.73637C46.1749 8.37756 46.3153 8.04994 46.5494 7.76913C47.8446 6.20907 49.1242 4.63341 50.4194 3.07335C51.1759 2.16295 51.945 1.23997 52.7041 0.326999C52.8681 0.129752 53.1172 0.015625 53.3737 0.015625C53.6312 0.015625 53.8693 0.130569 54.0332 0.329075C56.0825 2.81044 58.1447 5.30462 60.2073 7.79929C60.3653 7.99039 60.4426 8.24028 60.4391 8.48822ZM49.1896 7.20303C49.0598 7.36054 49.1541 7.61313 49.3583 7.61313C50.4974 7.65993 50.6378 7.80034 50.6378 8.92358C50.6378 11.2013 50.6534 13.479 50.6378 15.7723C50.6378 16.2559 50.7939 16.4275 51.2776 16.4275C52.6352 16.4119 54.0085 16.3963 55.3661 16.4275C55.9434 16.4431 56.0995 16.2247 56.0839 15.6786C56.0527 13.3386 56.0683 10.9985 56.0839 8.65837C56.0839 7.89394 56.3336 7.65993 57.0982 7.61313C57.4804 7.58373 57.5603 7.25216 57.3176 6.95545C56.0614 5.41992 54.8165 3.89562 53.5715 2.37132C53.3843 2.13731 53.2438 2.27771 53.1034 2.44932C52.8225 2.79254 52.5416 3.13575 52.2451 3.49456C51.2465 4.70688 50.2479 5.91919 49.1896 7.20303Z" fill="url(#paint5_radial_325_2542)"/>
<path d="M20.1619 33.635C11.8914 33.635 5.2126 26.9423 5.18139 18.6896C5.15018 10.78 11.5013 3.68176 20.1775 3.68176C28.5884 3.68176 35.1424 10.468 35.1736 18.7052C35.1736 26.9267 28.4168 33.635 20.1619 33.635ZM20.1619 5.41343C13.0149 5.27303 6.85109 11.2169 6.85109 18.6428C6.85109 26.0219 12.7809 31.9501 20.1463 31.9813C27.262 31.9969 33.4415 26.3495 33.4571 18.7208C33.4727 10.702 26.8875 5.25743 20.1619 5.41343Z" fill="url(#paint6_linear_325_2542)"/>
<path d="M20.1619 33.635C11.8914 33.635 5.2126 26.9423 5.18139 18.6896C5.15018 10.78 11.5013 3.68176 20.1775 3.68176C28.5884 3.68176 35.1424 10.468 35.1736 18.7052C35.1736 26.9267 28.4168 33.635 20.1619 33.635ZM20.1619 5.41343C13.0149 5.27303 6.85109 11.2169 6.85109 18.6428C6.85109 26.0219 12.7809 31.9501 20.1463 31.9813C27.262 31.9969 33.4415 26.3495 33.4571 18.7208C33.4727 10.702 26.8875 5.25743 20.1619 5.41343Z" fill="url(#paint7_radial_325_2542)"/>
<path d="M20.1619 33.635C11.8914 33.635 5.2126 26.9423 5.18139 18.6896C5.15018 10.78 11.5013 3.68176 20.1775 3.68176C28.5884 3.68176 35.1424 10.468 35.1736 18.7052C35.1736 26.9267 28.4168 33.635 20.1619 33.635ZM20.1619 5.41343C13.0149 5.27303 6.85109 11.2169 6.85109 18.6428C6.85109 26.0219 12.7809 31.9501 20.1463 31.9813C27.262 31.9969 33.4415 26.3495 33.4571 18.7208C33.4727 10.702 26.8875 5.25743 20.1619 5.41343Z" fill="url(#paint8_radial_325_2542)"/>
<path d="M15.9486 15.3042C15.9486 14.259 15.9486 13.1981 15.9486 12.1529C15.9642 11.4041 16.2295 11.1389 16.9785 11.1233C17.5871 11.1077 18.1801 11.1077 18.7887 11.1233C19.1944 11.1389 19.3504 10.9673 19.3348 10.5616C19.3192 10.1092 19.3192 9.67241 19.3348 9.21999C19.3504 8.73637 19.6157 8.45556 20.0995 8.43996C20.5988 8.42436 20.9265 8.67397 20.9733 9.18879C21.0201 9.61001 21.0201 10.0468 20.9889 10.468C20.9577 10.9361 21.1294 11.1389 21.6131 11.1233C22.1905 11.0921 22.7835 11.1077 23.3609 11.1233C23.9694 11.1389 24.3127 11.4197 24.3283 11.9033C24.3439 12.4181 23.985 12.7769 23.3609 12.7769C21.738 12.7925 20.1307 12.7769 18.5078 12.7925C17.5871 12.7925 17.5871 12.7925 17.5871 13.6818C17.5871 14.8362 17.6183 15.9751 17.5715 17.1295C17.5559 17.6755 17.7588 17.8315 18.2893 17.8315C19.881 17.8003 21.4883 17.8159 23.08 17.8315C24.0475 17.8315 24.3439 18.1279 24.3595 19.0796C24.3595 21.0609 24.3595 23.0577 24.3595 25.039C24.3595 25.9751 24.0631 26.2559 23.1268 26.2715C22.565 26.2715 22.0032 26.2715 21.4259 26.2715C21.1138 26.2715 20.9577 26.4119 20.9577 26.7239C20.9577 27.1295 20.9733 27.5351 20.9577 27.9563C20.9265 28.5648 20.5988 28.9548 20.1151 28.9548C19.6001 28.9548 19.3036 28.596 19.3036 27.9563C19.288 27.5663 19.288 27.1763 19.3036 26.7863C19.3192 26.4119 19.1632 26.2559 18.7887 26.2715C18.1645 26.2871 17.5403 26.2871 16.9161 26.2715C16.3075 26.2559 15.933 25.9127 15.933 25.429C15.933 24.9142 16.2763 24.6178 16.9317 24.6178C18.5858 24.6022 20.2399 24.6022 21.9096 24.6178C22.4402 24.6334 22.643 24.4618 22.6274 23.9158C22.5962 22.7145 22.5962 21.4977 22.6274 20.2964C22.643 19.766 22.4558 19.5632 21.9252 19.5788C20.4272 19.61 18.9291 19.5944 17.4155 19.5788C16.1515 19.5788 15.9174 19.3292 15.9174 18.0655C15.9486 17.1451 15.9486 16.2247 15.9486 15.3042Z" fill="url(#paint9_linear_325_2542)"/>
<path d="M15.9486 15.3042C15.9486 14.259 15.9486 13.1981 15.9486 12.1529C15.9642 11.4041 16.2295 11.1389 16.9785 11.1233C17.5871 11.1077 18.1801 11.1077 18.7887 11.1233C19.1944 11.1389 19.3504 10.9673 19.3348 10.5616C19.3192 10.1092 19.3192 9.67241 19.3348 9.21999C19.3504 8.73637 19.6157 8.45556 20.0995 8.43996C20.5988 8.42436 20.9265 8.67397 20.9733 9.18879C21.0201 9.61001 21.0201 10.0468 20.9889 10.468C20.9577 10.9361 21.1294 11.1389 21.6131 11.1233C22.1905 11.0921 22.7835 11.1077 23.3609 11.1233C23.9694 11.1389 24.3127 11.4197 24.3283 11.9033C24.3439 12.4181 23.985 12.7769 23.3609 12.7769C21.738 12.7925 20.1307 12.7769 18.5078 12.7925C17.5871 12.7925 17.5871 12.7925 17.5871 13.6818C17.5871 14.8362 17.6183 15.9751 17.5715 17.1295C17.5559 17.6755 17.7588 17.8315 18.2893 17.8315C19.881 17.8003 21.4883 17.8159 23.08 17.8315C24.0475 17.8315 24.3439 18.1279 24.3595 19.0796C24.3595 21.0609 24.3595 23.0577 24.3595 25.039C24.3595 25.9751 24.0631 26.2559 23.1268 26.2715C22.565 26.2715 22.0032 26.2715 21.4259 26.2715C21.1138 26.2715 20.9577 26.4119 20.9577 26.7239C20.9577 27.1295 20.9733 27.5351 20.9577 27.9563C20.9265 28.5648 20.5988 28.9548 20.1151 28.9548C19.6001 28.9548 19.3036 28.596 19.3036 27.9563C19.288 27.5663 19.288 27.1763 19.3036 26.7863C19.3192 26.4119 19.1632 26.2559 18.7887 26.2715C18.1645 26.2871 17.5403 26.2871 16.9161 26.2715C16.3075 26.2559 15.933 25.9127 15.933 25.429C15.933 24.9142 16.2763 24.6178 16.9317 24.6178C18.5858 24.6022 20.2399 24.6022 21.9096 24.6178C22.4402 24.6334 22.643 24.4618 22.6274 23.9158C22.5962 22.7145 22.5962 21.4977 22.6274 20.2964C22.643 19.766 22.4558 19.5632 21.9252 19.5788C20.4272 19.61 18.9291 19.5944 17.4155 19.5788C16.1515 19.5788 15.9174 19.3292 15.9174 18.0655C15.9486 17.1451 15.9486 16.2247 15.9486 15.3042Z" fill="url(#paint10_radial_325_2542)"/>
<path d="M15.9486 15.3042C15.9486 14.259 15.9486 13.1981 15.9486 12.1529C15.9642 11.4041 16.2295 11.1389 16.9785 11.1233C17.5871 11.1077 18.1801 11.1077 18.7887 11.1233C19.1944 11.1389 19.3504 10.9673 19.3348 10.5616C19.3192 10.1092 19.3192 9.67241 19.3348 9.21999C19.3504 8.73637 19.6157 8.45556 20.0995 8.43996C20.5988 8.42436 20.9265 8.67397 20.9733 9.18879C21.0201 9.61001 21.0201 10.0468 20.9889 10.468C20.9577 10.9361 21.1294 11.1389 21.6131 11.1233C22.1905 11.0921 22.7835 11.1077 23.3609 11.1233C23.9694 11.1389 24.3127 11.4197 24.3283 11.9033C24.3439 12.4181 23.985 12.7769 23.3609 12.7769C21.738 12.7925 20.1307 12.7769 18.5078 12.7925C17.5871 12.7925 17.5871 12.7925 17.5871 13.6818C17.5871 14.8362 17.6183 15.9751 17.5715 17.1295C17.5559 17.6755 17.7588 17.8315 18.2893 17.8315C19.881 17.8003 21.4883 17.8159 23.08 17.8315C24.0475 17.8315 24.3439 18.1279 24.3595 19.0796C24.3595 21.0609 24.3595 23.0577 24.3595 25.039C24.3595 25.9751 24.0631 26.2559 23.1268 26.2715C22.565 26.2715 22.0032 26.2715 21.4259 26.2715C21.1138 26.2715 20.9577 26.4119 20.9577 26.7239C20.9577 27.1295 20.9733 27.5351 20.9577 27.9563C20.9265 28.5648 20.5988 28.9548 20.1151 28.9548C19.6001 28.9548 19.3036 28.596 19.3036 27.9563C19.288 27.5663 19.288 27.1763 19.3036 26.7863C19.3192 26.4119 19.1632 26.2559 18.7887 26.2715C18.1645 26.2871 17.5403 26.2871 16.9161 26.2715C16.3075 26.2559 15.933 25.9127 15.933 25.429C15.933 24.9142 16.2763 24.6178 16.9317 24.6178C18.5858 24.6022 20.2399 24.6022 21.9096 24.6178C22.4402 24.6334 22.643 24.4618 22.6274 23.9158C22.5962 22.7145 22.5962 21.4977 22.6274 20.2964C22.643 19.766 22.4558 19.5632 21.9252 19.5788C20.4272 19.61 18.9291 19.5944 17.4155 19.5788C16.1515 19.5788 15.9174 19.3292 15.9174 18.0655C15.9486 17.1451 15.9486 16.2247 15.9486 15.3042Z" fill="url(#paint11_radial_325_2542)"/>
</g>
<defs>
<linearGradient id="paint0_linear_325_2542" x1="24.553" y1="29.9778" x2="-6.11896" y2="26.4838" gradientUnits="userSpaceOnUse">
<stop stop-color="#8B00FF"/>
<stop offset="1" stop-color="#EB00FF"/>
</linearGradient>
<radialGradient id="paint1_radial_325_2542" cx="0" cy="0" r="1" gradientUnits="userSpaceOnUse" gradientTransform="translate(42.0108 69.7578) rotate(-44.9323) scale(26.1213 25.3903)">
<stop stop-color="#0066FF"/>
<stop offset="1" stop-color="#00E0FF" stop-opacity="0"/>
</radialGradient>
<radialGradient id="paint2_radial_325_2542" cx="0" cy="0" r="1" gradientUnits="userSpaceOnUse" gradientTransform="translate(1.2759 -12.6849) rotate(74.0962) scale(44.3606 48.1174)">
<stop offset="0.0604609" stop-color="#FFF500"/>
<stop offset="1" stop-color="#8B00FF" stop-opacity="0"/>
</radialGradient>
<linearGradient id="paint3_linear_325_2542" x1="51.9565" y1="9.04839" x2="44.6698" y2="8.39712" gradientUnits="userSpaceOnUse">
<stop stop-color="#8B00FF"/>
<stop offset="1" stop-color="#EB00FF"/>
</linearGradient>
<radialGradient id="paint4_radial_325_2542" cx="0" cy="0" r="1" gradientUnits="userSpaceOnUse" gradientTransform="translate(56.0835 21.0342) rotate(-51.8166) scale(7.07171 6.68017)">
<stop stop-color="#0066FF"/>
<stop offset="1" stop-color="#00E0FF" stop-opacity="0"/>
</radialGradient>
<radialGradient id="paint5_radial_325_2542" cx="0" cy="0" r="1" gradientUnits="userSpaceOnUse" gradientTransform="translate(46.4538 -3.80593) rotate(77.3985) scale(13.1716 11.5428)">
<stop offset="0.0604609" stop-color="#FFF500"/>
<stop offset="1" stop-color="#8B00FF" stop-opacity="0"/>
</radialGradient>
<linearGradient id="paint6_linear_325_2542" x1="17.2057" y1="18.6584" x2="1.87263" y2="16.9105" gradientUnits="userSpaceOnUse">
<stop stop-color="#8B00FF"/>
<stop offset="1" stop-color="#EB00FF"/>
</linearGradient>
<radialGradient id="paint7_radial_325_2542" cx="0" cy="0" r="1" gradientUnits="userSpaceOnUse" gradientTransform="translate(25.9331 38.5312) rotate(-44.9124) scale(13.0539 12.6886)">
<stop stop-color="#0066FF"/>
<stop offset="1" stop-color="#00E0FF" stop-opacity="0"/>
</radialGradient>
<radialGradient id="paint8_radial_325_2542" cx="0" cy="0" r="1" gradientUnits="userSpaceOnUse" gradientTransform="translate(5.56916 -2.65449) rotate(74.0857) scale(22.1623 24.0533)">
<stop offset="0.0604609" stop-color="#FFF500"/>
<stop offset="1" stop-color="#8B00FF" stop-opacity="0"/>
</radialGradient>
<linearGradient id="paint9_linear_325_2542" x1="19.302" y1="18.697" x2="14.9396" y2="18.4927" gradientUnits="userSpaceOnUse">
<stop stop-color="#8B00FF"/>
<stop offset="1" stop-color="#EB00FF"/>
</linearGradient>
<radialGradient id="paint10_radial_325_2542" cx="0" cy="0" r="1" gradientUnits="userSpaceOnUse" gradientTransform="translate(21.7586 32.3083) rotate(-67.5975) scale(6.82776 4.67687)">
<stop stop-color="#0066FF"/>
<stop offset="1" stop-color="#00E0FF" stop-opacity="0"/>
</radialGradient>
<radialGradient id="paint11_radial_325_2542" cx="0" cy="0" r="1" gradientUnits="userSpaceOnUse" gradientTransform="translate(16.0266 4.09945) rotate(83.3168) scale(14.6974 6.99243)">
<stop offset="0.0604609" stop-color="#FFF500"/>
<stop offset="1" stop-color="#8B00FF" stop-opacity="0"/>
</radialGradient>
<clipPath id="clip0_325_2542">
<rect width="60" height="60" fill="white" transform="translate(0.5)"/>
</clipPath>
</defs>
</svg>
