<svg width="24" height="22" viewBox="0 0 24 22" fill="none" xmlns="http://www.w3.org/2000/svg">
<path d="M22.0733 0.412132C21.7682 0.426325 21.4808 0.515038 21.2253 0.614395H21.2218C20.9628 0.717301 19.7316 1.23538 17.8619 2.0196C15.9921 2.80737 13.5653 3.82932 11.1562 4.84419C6.34516 6.87039 1.61573 8.86464 1.61573 8.86464L1.67249 8.84333C1.67249 8.84333 1.34608 8.94981 1.00548 9.18402C0.831625 9.29757 0.640033 9.45369 0.473281 9.69855C0.306526 9.94338 0.171703 10.3195 0.221375 10.7063C0.302977 11.3628 0.728734 11.7567 1.03386 11.9731C1.34253 12.1931 1.63701 12.296 1.63701 12.296H1.64411L6.07906 13.7899C6.27775 14.4287 7.43086 18.2185 7.70758 19.0914C7.87081 19.613 8.03044 19.9395 8.22913 20.1879C8.32495 20.3156 8.43847 20.4221 8.57329 20.5072C8.62651 20.5392 8.68327 20.564 8.74006 20.5853C8.75779 20.596 8.77552 20.5995 8.79682 20.603L8.75068 20.5924C8.76487 20.596 8.77552 20.6066 8.78617 20.6101C8.82166 20.6208 8.8465 20.6243 8.89261 20.6314C9.59512 20.8444 10.1592 20.4079 10.1592 20.4079L10.1912 20.383L12.8096 17.9985L17.1984 21.366L17.2977 21.4086C18.2131 21.8095 19.1391 21.586 19.6288 21.1921C20.1219 20.7947 20.3135 20.2872 20.3135 20.2872L20.3454 20.2056L23.7373 2.82867C23.8331 2.39928 23.8579 1.99831 23.7515 1.60797C23.645 1.21764 23.3719 0.852145 23.0419 0.656977C22.7084 0.458261 22.3784 0.397936 22.0733 0.412132ZM21.9811 2.27508C21.9775 2.33187 21.9881 2.32476 21.9633 2.43477V2.44542L18.6034 19.6414C18.5892 19.6663 18.5644 19.7195 18.497 19.7727C18.426 19.8295 18.3692 19.865 18.0747 19.7479L12.7067 15.6316L9.46384 18.5875L10.145 14.2371C10.145 14.2371 18.5537 6.39843 18.9156 6.06132C19.2775 5.72424 19.1569 5.65326 19.1569 5.65326C19.1817 5.24163 18.6105 5.5326 18.6105 5.5326L7.55149 12.3847L7.54792 12.367L2.24727 10.5821V10.5786C2.24372 10.5786 2.23662 10.575 2.23307 10.575C2.23662 10.575 2.26146 10.5644 2.26146 10.5644L2.28984 10.5502L2.31822 10.5395C2.31822 10.5395 7.05121 8.54529 11.8622 6.51909C14.2713 5.50422 16.6981 4.48227 18.5644 3.6945C20.4306 2.91027 21.8108 2.33541 21.8888 2.30349C21.9633 2.27508 21.9278 2.27508 21.9811 2.27508Z" fill="white"/>
</svg>
