<svg width="20" height="20" viewBox="0 0 20 20" fill="none" xmlns="http://www.w3.org/2000/svg">
<path d="M0.553445 0.553432C-0.184482 1.29136 -0.184482 2.48775 0.553445 3.22568L7.32776 9.99996L0.553445 16.7744C-0.184482 17.5123 -0.184482 18.7087 0.553445 19.4466C1.29135 20.1845 2.48776 20.1845 3.22567 19.4466L9.99996 12.6722L16.7744 19.4466C17.5123 20.1845 18.7087 20.1845 19.4466 19.4466C20.1845 18.7087 20.1845 17.5123 19.4466 16.7744L12.6722 9.99996L19.4466 3.2257C20.1845 2.48779 20.1845 1.29138 19.4466 0.55347C18.7085 -0.184458 17.5123 -0.184458 16.7744 0.55347L9.99996 7.32775L3.22567 0.553432C2.48776 -0.184477 1.29135 -0.184477 0.553445 0.553432Z" fill="url(#paint0_linear_624_6272)"/>
<defs>
<linearGradient id="paint0_linear_624_6272" x1="8.19008" y1="-9.0438" x2="11.0391" y2="22.1125" gradientUnits="userSpaceOnUse">
<stop stop-color="#80FF00"/>
<stop offset="1" stop-color="#67891A"/>
</linearGradient>
</defs>
</svg>
