<svg width="20" height="20" viewBox="0 0 20 20" fill="none" xmlns="http://www.w3.org/2000/svg">
<path fill-rule="evenodd" clip-rule="evenodd" d="M7.7778 2.2222C4.7095 2.2222 2.2222 4.7095 2.2222 7.7778C2.2222 10.846 4.7095 13.3334 7.7778 13.3334C9.3122 13.3334 10.6996 12.7128 11.7061 11.7061C12.7128 10.6996 13.3334 9.3122 13.3334 7.7778C13.3334 4.7095 10.846 2.2222 7.7778 2.2222ZM0 7.7778C0 3.4822 3.4822 0 7.7778 0C12.0733 0 15.5556 3.4822 15.5556 7.7778C15.5556 9.5243 14.9789 11.1377 14.007 12.4357L19.6746 18.1032C20.1085 18.5371 20.1085 19.2407 19.6746 19.6746C19.2407 20.1085 18.5371 20.1085 18.1032 19.6746L12.4357 14.007C11.1377 14.9789 9.5243 15.5556 7.7778 15.5556C3.4822 15.5556 0 12.0733 0 7.7778Z" fill="#161414"/>
</svg>
