<svg width="22" height="22" viewBox="0 0 22 22" fill="none" xmlns="http://www.w3.org/2000/svg">
<path d="M20 12.5H18.5C17.6731 12.5 17 13.1732 17 14V17H5V14C5 13.1732 4.32687 12.5 3.5 12.5H2C1.17313 12.5 0.5 13.1732 0.5 14V17.75C0.5 19.8176 2.18244 21.5 4.25 21.5H17.75C19.8176 21.5 21.5 19.8176 21.5 17.75V14C21.5 13.1732 20.8269 12.5 20 12.5ZM5 18.5H17C17.8269 18.5 18.5 17.8269 18.5 17V13.9985L20 14V17.75C20 18.9907 18.9907 20 17.75 20H4.25C3.00931 20 2 18.9907 2 17.75V14H3.5V17C3.5 17.8269 4.17313 18.5 5 18.5ZM12.5 15.5H9.5C8.67313 15.5 8 14.8269 8 14V8.00005H5C4.69681 8.00005 4.42288 7.81761 4.30719 7.53711C4.19075 7.25661 4.25525 6.9343 4.46975 6.7198L10.4698 0.719797C10.7628 0.426734 11.2374 0.426734 11.5303 0.719797L17.5303 6.7198C17.7449 6.93448 17.8092 7.25661 17.6928 7.53711C17.5771 7.81761 17.3032 8.00005 17 8.00005H14V14C14 14.8269 13.3269 15.5 12.5 15.5ZM6.8105 6.50005H8.75C9.16456 6.50005 9.5 6.83548 9.5 7.25005V14H12.5V7.25005C12.5 6.83548 12.8354 6.50005 13.25 6.50005H15.1895L11 2.31055L6.8105 6.50005Z" fill="#2D5183"/>
</svg>
