<svg width="20" height="19" viewBox="0 0 20 19" fill="none" xmlns="http://www.w3.org/2000/svg">
<path d="M0.349727 9.5196L4.9121 11.2975L6.678 17.2273C6.791 17.607 7.2357 17.7474 7.5309 17.4954L10.0741 15.3308C10.3406 15.104 10.7203 15.0926 10.9989 15.3038L15.5858 18.781C15.9016 19.0206 16.349 18.8399 16.4282 18.4415L19.7883 1.5654C19.8749 1.1301 19.4653 0.766999 19.0683 0.927299L0.344378 8.4692C-0.117682 8.6552 -0.113663 9.3384 0.349727 9.5196ZM6.3934 10.3511L15.3098 4.6171C15.4701 4.5144 15.635 4.7406 15.4974 4.8739L8.1387 12.0159C7.88 12.2674 7.7132 12.6038 7.6659 12.969L7.4152 14.9086C7.3821 15.1675 7.0336 15.1933 6.9652 14.9426L6.0011 11.4057C5.8907 11.0023 6.0516 10.5714 6.3934 10.3511Z" fill="#7899D4"/>
</svg>
