<svg width="100" height="101" viewBox="0 0 100 101" fill="none" xmlns="http://www.w3.org/2000/svg">
<path d="M96.75 58.9L92.75 57.8C91.25 57.4 90.25 56 90.45 54.4C90.55 53.1 90.65 51.8 90.65 50.4C90.65 49 90.55 47.7 90.45 46.4C90.25 44.9 91.25 43.4 92.75 43L96.75 41.9C98.55 41.4 99.55 39.6 98.95 37.9L96.85 31.3C96.25 29.6 94.35 28.7 92.75 29.3L88.85 30.8C87.45 31.4 85.75 30.8 84.95 29.5C83.65 27.3 82.15 25.3 80.55 23.4C79.55 22.2 79.45 20.5 80.45 19.3L83.15 16C84.25 14.6 84.05 12.5 82.55 11.5L76.95 7.4C75.45 6.3 73.45 6.7 72.45 8.2L70.15 11.8C69.35 13.1 67.65 13.6 66.25 13C63.95 12 61.45 11.2 58.85 10.6C57.35 10.3 56.25 8.9 56.35 7.4L56.55 3.3C56.65 1.5 55.25 0 53.45 0H46.55C44.75 0 43.35 1.5 43.45 3.3L43.65 7.4C43.75 8.9 42.65 10.3 41.15 10.6C38.55 11.2 36.15 12 33.75 13C32.35 13.6 30.65 13.1 29.85 11.8L27.55 8.2C26.55 6.7 24.55 6.3 23.05 7.4L17.45 11.5C15.95 12.6 15.75 14.6 16.85 16L19.55 19.3C20.55 20.5 20.45 22.2 19.45 23.4C17.75 25.3 16.35 27.3 15.05 29.5C14.25 30.8 12.65 31.4 11.15 30.8L7.24998 29.3C5.54998 28.6 3.64998 29.5 3.14998 31.3L1.04998 37.9C0.449983 39.6 1.44998 41.5 3.24998 41.9L7.24998 43C8.74998 43.4 9.74998 44.8 9.54998 46.4C9.44998 47.7 9.34998 49 9.34998 50.4C9.34998 51.7 9.44998 53.1 9.54998 54.4C9.74998 55.9 8.74998 57.4 7.24998 57.8L3.24998 58.9C1.44998 59.4 0.449983 61.2 1.04998 62.9L3.14998 69.5C3.74998 71.2 5.64998 72.1 7.24998 71.5L11.15 70C12.55 69.4 14.25 70 15.05 71.3C16.35 73.5 17.85 75.5 19.45 77.4C20.45 78.6 20.55 80.3 19.55 81.5L16.85 84.8C15.75 86.2 15.95 88.3 17.45 89.3L23.05 93.4C24.55 94.5 26.55 94.1 27.55 92.6L29.85 89C30.65 87.7 32.35 87.2 33.75 87.8C36.05 88.8 38.55 89.6 41.15 90.2C42.65 90.5 43.75 91.9 43.65 93.4L43.45 97.5C43.35 99.3 44.75 100.8 46.55 100.8H53.45C55.25 100.8 56.65 99.3 56.55 97.5L56.35 93.4C56.25 91.9 57.35 90.5 58.85 90.2C61.45 89.6 63.85 88.8 66.25 87.8C67.65 87.2 69.35 87.7 70.15 89L72.45 92.6C73.45 94.1 75.45 94.5 76.95 93.4L82.55 89.3C84.05 88.2 84.25 86.2 83.15 84.8L80.45 81.5C79.45 80.3 79.55 78.6 80.55 77.4C82.25 75.5 83.65 73.5 84.95 71.3C85.75 70 87.35 69.4 88.85 70L92.75 71.5C94.45 72.2 96.35 71.3 96.85 69.5L98.95 62.9C99.45 61.2 98.45 59.4 96.75 58.9ZM49.95 76.3C35.75 76.3 24.15 64.8 24.15 50.5C24.15 36.2 35.65 24.7 49.95 24.7C64.15 24.7 75.75 36.2 75.75 50.5C75.75 64.8 64.15 76.3 49.95 76.3Z" fill="url(#paint0_linear_323_2404)"/>
<path d="M96.75 58.9L92.75 57.8C91.25 57.4 90.25 56 90.45 54.4C90.55 53.1 90.65 51.8 90.65 50.4C90.65 49 90.55 47.7 90.45 46.4C90.25 44.9 91.25 43.4 92.75 43L96.75 41.9C98.55 41.4 99.55 39.6 98.95 37.9L96.85 31.3C96.25 29.6 94.35 28.7 92.75 29.3L88.85 30.8C87.45 31.4 85.75 30.8 84.95 29.5C83.65 27.3 82.15 25.3 80.55 23.4C79.55 22.2 79.45 20.5 80.45 19.3L83.15 16C84.25 14.6 84.05 12.5 82.55 11.5L76.95 7.4C75.45 6.3 73.45 6.7 72.45 8.2L70.15 11.8C69.35 13.1 67.65 13.6 66.25 13C63.95 12 61.45 11.2 58.85 10.6C57.35 10.3 56.25 8.9 56.35 7.4L56.55 3.3C56.65 1.5 55.25 0 53.45 0H46.55C44.75 0 43.35 1.5 43.45 3.3L43.65 7.4C43.75 8.9 42.65 10.3 41.15 10.6C38.55 11.2 36.15 12 33.75 13C32.35 13.6 30.65 13.1 29.85 11.8L27.55 8.2C26.55 6.7 24.55 6.3 23.05 7.4L17.45 11.5C15.95 12.6 15.75 14.6 16.85 16L19.55 19.3C20.55 20.5 20.45 22.2 19.45 23.4C17.75 25.3 16.35 27.3 15.05 29.5C14.25 30.8 12.65 31.4 11.15 30.8L7.24998 29.3C5.54998 28.6 3.64998 29.5 3.14998 31.3L1.04998 37.9C0.449983 39.6 1.44998 41.5 3.24998 41.9L7.24998 43C8.74998 43.4 9.74998 44.8 9.54998 46.4C9.44998 47.7 9.34998 49 9.34998 50.4C9.34998 51.7 9.44998 53.1 9.54998 54.4C9.74998 55.9 8.74998 57.4 7.24998 57.8L3.24998 58.9C1.44998 59.4 0.449983 61.2 1.04998 62.9L3.14998 69.5C3.74998 71.2 5.64998 72.1 7.24998 71.5L11.15 70C12.55 69.4 14.25 70 15.05 71.3C16.35 73.5 17.85 75.5 19.45 77.4C20.45 78.6 20.55 80.3 19.55 81.5L16.85 84.8C15.75 86.2 15.95 88.3 17.45 89.3L23.05 93.4C24.55 94.5 26.55 94.1 27.55 92.6L29.85 89C30.65 87.7 32.35 87.2 33.75 87.8C36.05 88.8 38.55 89.6 41.15 90.2C42.65 90.5 43.75 91.9 43.65 93.4L43.45 97.5C43.35 99.3 44.75 100.8 46.55 100.8H53.45C55.25 100.8 56.65 99.3 56.55 97.5L56.35 93.4C56.25 91.9 57.35 90.5 58.85 90.2C61.45 89.6 63.85 88.8 66.25 87.8C67.65 87.2 69.35 87.7 70.15 89L72.45 92.6C73.45 94.1 75.45 94.5 76.95 93.4L82.55 89.3C84.05 88.2 84.25 86.2 83.15 84.8L80.45 81.5C79.45 80.3 79.55 78.6 80.55 77.4C82.25 75.5 83.65 73.5 84.95 71.3C85.75 70 87.35 69.4 88.85 70L92.75 71.5C94.45 72.2 96.35 71.3 96.85 69.5L98.95 62.9C99.45 61.2 98.45 59.4 96.75 58.9ZM49.95 76.3C35.75 76.3 24.15 64.8 24.15 50.5C24.15 36.2 35.65 24.7 49.95 24.7C64.15 24.7 75.75 36.2 75.75 50.5C75.75 64.8 64.15 76.3 49.95 76.3Z" fill="url(#paint1_radial_323_2404)"/>
<path d="M96.75 58.9L92.75 57.8C91.25 57.4 90.25 56 90.45 54.4C90.55 53.1 90.65 51.8 90.65 50.4C90.65 49 90.55 47.7 90.45 46.4C90.25 44.9 91.25 43.4 92.75 43L96.75 41.9C98.55 41.4 99.55 39.6 98.95 37.9L96.85 31.3C96.25 29.6 94.35 28.7 92.75 29.3L88.85 30.8C87.45 31.4 85.75 30.8 84.95 29.5C83.65 27.3 82.15 25.3 80.55 23.4C79.55 22.2 79.45 20.5 80.45 19.3L83.15 16C84.25 14.6 84.05 12.5 82.55 11.5L76.95 7.4C75.45 6.3 73.45 6.7 72.45 8.2L70.15 11.8C69.35 13.1 67.65 13.6 66.25 13C63.95 12 61.45 11.2 58.85 10.6C57.35 10.3 56.25 8.9 56.35 7.4L56.55 3.3C56.65 1.5 55.25 0 53.45 0H46.55C44.75 0 43.35 1.5 43.45 3.3L43.65 7.4C43.75 8.9 42.65 10.3 41.15 10.6C38.55 11.2 36.15 12 33.75 13C32.35 13.6 30.65 13.1 29.85 11.8L27.55 8.2C26.55 6.7 24.55 6.3 23.05 7.4L17.45 11.5C15.95 12.6 15.75 14.6 16.85 16L19.55 19.3C20.55 20.5 20.45 22.2 19.45 23.4C17.75 25.3 16.35 27.3 15.05 29.5C14.25 30.8 12.65 31.4 11.15 30.8L7.24998 29.3C5.54998 28.6 3.64998 29.5 3.14998 31.3L1.04998 37.9C0.449983 39.6 1.44998 41.5 3.24998 41.9L7.24998 43C8.74998 43.4 9.74998 44.8 9.54998 46.4C9.44998 47.7 9.34998 49 9.34998 50.4C9.34998 51.7 9.44998 53.1 9.54998 54.4C9.74998 55.9 8.74998 57.4 7.24998 57.8L3.24998 58.9C1.44998 59.4 0.449983 61.2 1.04998 62.9L3.14998 69.5C3.74998 71.2 5.64998 72.1 7.24998 71.5L11.15 70C12.55 69.4 14.25 70 15.05 71.3C16.35 73.5 17.85 75.5 19.45 77.4C20.45 78.6 20.55 80.3 19.55 81.5L16.85 84.8C15.75 86.2 15.95 88.3 17.45 89.3L23.05 93.4C24.55 94.5 26.55 94.1 27.55 92.6L29.85 89C30.65 87.7 32.35 87.2 33.75 87.8C36.05 88.8 38.55 89.6 41.15 90.2C42.65 90.5 43.75 91.9 43.65 93.4L43.45 97.5C43.35 99.3 44.75 100.8 46.55 100.8H53.45C55.25 100.8 56.65 99.3 56.55 97.5L56.35 93.4C56.25 91.9 57.35 90.5 58.85 90.2C61.45 89.6 63.85 88.8 66.25 87.8C67.65 87.2 69.35 87.7 70.15 89L72.45 92.6C73.45 94.1 75.45 94.5 76.95 93.4L82.55 89.3C84.05 88.2 84.25 86.2 83.15 84.8L80.45 81.5C79.45 80.3 79.55 78.6 80.55 77.4C82.25 75.5 83.65 73.5 84.95 71.3C85.75 70 87.35 69.4 88.85 70L92.75 71.5C94.45 72.2 96.35 71.3 96.85 69.5L98.95 62.9C99.45 61.2 98.45 59.4 96.75 58.9ZM49.95 76.3C35.75 76.3 24.15 64.8 24.15 50.5C24.15 36.2 35.65 24.7 49.95 24.7C64.15 24.7 75.75 36.2 75.75 50.5C75.75 64.8 64.15 76.3 49.95 76.3Z" fill="url(#paint2_radial_323_2404)"/>
<path opacity="0.4" d="M49.95 19.8999C33.05 19.8999 19.35 33.5999 19.35 50.4999C19.35 67.3999 33.05 81.0999 49.95 81.0999C66.85 81.0999 80.55 67.3999 80.55 50.4999C80.55 33.5999 66.85 19.8999 49.95 19.8999ZM49.95 76.2999C35.75 76.2999 24.15 64.7999 24.15 50.4999C24.15 36.2999 35.65 24.6999 49.95 24.6999C64.15 24.6999 75.75 36.1999 75.75 50.4999C75.75 64.7999 64.15 76.2999 49.95 76.2999Z" fill="url(#paint3_linear_323_2404)"/>
<path d="M49.95 71.8002C61.7136 71.8002 71.25 62.2639 71.25 50.5002C71.25 38.7365 61.7136 29.2002 49.95 29.2002C38.1863 29.2002 28.65 38.7365 28.65 50.5002C28.65 62.2639 38.1863 71.8002 49.95 71.8002Z" fill="url(#paint4_linear_323_2404)"/>
<path d="M51.5922 62.7999C50.8779 62.7999 50.3065 62.7999 49.5922 62.7999C49.3065 62.6571 49.0207 62.3714 48.5922 62.2285C43.735 59.9428 40.4493 56.3714 38.8779 51.3714C38.735 50.6571 38.5922 49.7999 38.3065 49.0856C38.3065 46.0856 38.3065 43.2285 38.3065 40.2285C39.0207 38.7999 40.1636 38.2285 41.4493 37.6571C44.0207 36.7999 46.5922 35.7999 49.1636 34.9428C50.0207 34.7999 51.1636 34.6571 52.0207 34.9428C54.8779 35.7999 57.735 36.9428 60.5922 37.9428C62.1636 38.5142 62.8779 39.5142 62.8779 41.2285C62.8779 42.9428 62.8779 44.7999 62.8779 46.5142C62.8779 52.0856 60.5922 56.5142 56.3065 59.9428C54.8779 61.0856 53.1636 61.9428 51.5922 62.7999ZM41.0207 45.6571C41.0207 46.0856 41.0207 46.5142 41.0207 47.0856C40.735 51.7999 43.735 57.2285 49.3065 59.3714C50.0207 59.6571 51.1636 59.7999 51.735 59.3714C55.5922 57.7999 58.4493 55.0856 59.5922 50.9428C60.1636 48.3714 60.0207 45.7999 60.1636 43.0856C60.1636 41.5142 59.735 40.7999 58.3065 40.2285C56.1636 39.3714 54.0207 38.6571 51.8779 37.9428C51.1636 37.7999 50.3065 37.7999 49.5922 37.9428C47.3065 38.7999 45.0207 39.6571 42.735 40.3714C41.5922 40.7999 41.0207 41.6571 41.0207 42.9428C41.0207 43.7999 41.0207 44.7999 41.0207 45.6571Z" fill="#7644E4"/>
<path d="M59.3065 45.9426C59.735 51.6569 57.1636 55.7997 51.8779 58.514C51.0208 58.9426 50.3065 58.9426 49.4493 58.514C44.5922 56.0855 41.8779 52.3712 42.0207 46.7997C42.0207 45.6569 42.0207 44.514 42.0207 43.2283C42.0207 42.2283 42.4493 41.6569 43.4493 41.2283C45.4493 40.514 47.5922 39.6569 49.735 38.9426C50.3065 38.7997 51.0208 38.7997 51.5922 38.9426C53.5922 39.6569 55.735 40.3712 57.735 41.0854C58.8779 41.514 59.4493 42.2283 59.3065 43.3712C59.3065 44.2283 59.3065 44.9426 59.3065 45.9426Z" fill="#8B00FF"/>
<defs>
<linearGradient id="paint0_linear_323_2404" x1="40.2652" y1="50.4" x2="-9.99672" y2="44.8228" gradientUnits="userSpaceOnUse">
<stop stop-color="#8B00FF"/>
<stop offset="1" stop-color="#EB00FF"/>
</linearGradient>
<radialGradient id="paint1_radial_323_2404" cx="0" cy="0" r="1" gradientUnits="userSpaceOnUse" gradientTransform="translate(68.8544 117.277) rotate(-45.6841) scale(43.3479 42.123)">
<stop stop-color="#0066FF"/>
<stop offset="1" stop-color="#00E0FF" stop-opacity="0"/>
</radialGradient>
<radialGradient id="paint2_radial_323_2404" cx="0" cy="0" r="1" gradientUnits="userSpaceOnUse" gradientTransform="translate(2.14618 -21.3231) rotate(74.4881) scale(74.4344 78.9497)">
<stop offset="0.0604609" stop-color="#FFF500"/>
<stop offset="1" stop-color="#8B00FF" stop-opacity="0"/>
</radialGradient>
<linearGradient id="paint3_linear_323_2404" x1="28.2892" y1="28.8834" x2="71.5937" y2="72.1879" gradientUnits="userSpaceOnUse">
<stop stop-color="#5DB6C3"/>
<stop offset="1" stop-color="#4C829F"/>
</linearGradient>
<linearGradient id="paint4_linear_323_2404" x1="34.9017" y1="35.4961" x2="64.9813" y2="65.5757" gradientUnits="userSpaceOnUse">
<stop stop-color="white"/>
<stop offset="0.2753" stop-color="#F8F8F8"/>
<stop offset="0.6731" stop-color="#E5E5E5"/>
<stop offset="1" stop-color="#D0D0D0"/>
</linearGradient>
</defs>
</svg>
