<svg width="100" height="101" viewBox="0 0 100 101" fill="none" xmlns="http://www.w3.org/2000/svg">
<path d="M96.75 58.9L92.75 57.8C91.25 57.4 90.25 56 90.45 54.4C90.55 53.1 90.65 51.8 90.65 50.4C90.65 49 90.55 47.7 90.45 46.4C90.25 44.9 91.25 43.4 92.75 43L96.75 41.9C98.55 41.4 99.55 39.6 98.95 37.9L96.85 31.3C96.25 29.6 94.35 28.7 92.75 29.3L88.85 30.8C87.45 31.4 85.75 30.8 84.95 29.5C83.65 27.3 82.15 25.3 80.55 23.4C79.55 22.2 79.45 20.5 80.45 19.3L83.15 16C84.25 14.6 84.05 12.5 82.55 11.5L76.95 7.4C75.45 6.3 73.45 6.7 72.45 8.2L70.15 11.8C69.35 13.1 67.65 13.6 66.25 13C63.95 12 61.45 11.2 58.85 10.6C57.35 10.3 56.25 8.9 56.35 7.4L56.55 3.3C56.65 1.5 55.25 0 53.45 0H46.55C44.75 0 43.35 1.5 43.45 3.3L43.65 7.4C43.75 8.9 42.65 10.3 41.15 10.6C38.55 11.2 36.15 12 33.75 13C32.35 13.6 30.65 13.1 29.85 11.8L27.55 8.2C26.55 6.7 24.55 6.3 23.05 7.4L17.45 11.5C15.95 12.6 15.75 14.6 16.85 16L19.55 19.3C20.55 20.5 20.45 22.2 19.45 23.4C17.75 25.3 16.35 27.3 15.05 29.5C14.25 30.8 12.65 31.4 11.15 30.8L7.25004 29.3C5.55004 28.6 3.65004 29.5 3.15004 31.3L1.05004 37.9C0.450044 39.6 1.45004 41.5 3.25004 41.9L7.25004 43C8.75004 43.4 9.75004 44.8 9.55004 46.4C9.45004 47.7 9.35004 49 9.35004 50.4C9.35004 51.7 9.45004 53.1 9.55004 54.4C9.75004 55.9 8.75004 57.4 7.25004 57.8L3.25004 58.9C1.45004 59.4 0.450044 61.2 1.05004 62.9L3.15004 69.5C3.75004 71.2 5.65004 72.1 7.25004 71.5L11.15 70C12.55 69.4 14.25 70 15.05 71.3C16.35 73.5 17.85 75.5 19.45 77.4C20.45 78.6 20.55 80.3 19.55 81.5L16.85 84.8C15.75 86.2 15.95 88.3 17.45 89.3L23.05 93.4C24.55 94.5 26.55 94.1 27.55 92.6L29.85 89C30.65 87.7 32.35 87.2 33.75 87.8C36.05 88.8 38.55 89.6 41.15 90.2C42.65 90.5 43.75 91.9 43.65 93.4L43.45 97.5C43.35 99.3 44.75 100.8 46.55 100.8H53.45C55.25 100.8 56.65 99.3 56.55 97.5L56.35 93.4C56.25 91.9 57.35 90.5 58.85 90.2C61.45 89.6 63.85 88.8 66.25 87.8C67.65 87.2 69.35 87.7 70.15 89L72.45 92.6C73.45 94.1 75.45 94.5 76.95 93.4L82.55 89.3C84.05 88.2 84.25 86.2 83.15 84.8L80.45 81.5C79.45 80.3 79.55 78.6 80.55 77.4C82.25 75.5 83.65 73.5 84.95 71.3C85.75 70 87.35 69.4 88.85 70L92.75 71.5C94.45 72.2 96.35 71.3 96.85 69.5L98.95 62.9C99.45 61.2 98.45 59.4 96.75 58.9ZM49.95 76.3C35.75 76.3 24.15 64.8 24.15 50.5C24.15 36.2 35.65 24.7 49.95 24.7C64.15 24.7 75.75 36.2 75.75 50.5C75.75 64.8 64.15 76.3 49.95 76.3Z" fill="url(#paint0_linear_323_2419)"/>
<path d="M96.75 58.9L92.75 57.8C91.25 57.4 90.25 56 90.45 54.4C90.55 53.1 90.65 51.8 90.65 50.4C90.65 49 90.55 47.7 90.45 46.4C90.25 44.9 91.25 43.4 92.75 43L96.75 41.9C98.55 41.4 99.55 39.6 98.95 37.9L96.85 31.3C96.25 29.6 94.35 28.7 92.75 29.3L88.85 30.8C87.45 31.4 85.75 30.8 84.95 29.5C83.65 27.3 82.15 25.3 80.55 23.4C79.55 22.2 79.45 20.5 80.45 19.3L83.15 16C84.25 14.6 84.05 12.5 82.55 11.5L76.95 7.4C75.45 6.3 73.45 6.7 72.45 8.2L70.15 11.8C69.35 13.1 67.65 13.6 66.25 13C63.95 12 61.45 11.2 58.85 10.6C57.35 10.3 56.25 8.9 56.35 7.4L56.55 3.3C56.65 1.5 55.25 0 53.45 0H46.55C44.75 0 43.35 1.5 43.45 3.3L43.65 7.4C43.75 8.9 42.65 10.3 41.15 10.6C38.55 11.2 36.15 12 33.75 13C32.35 13.6 30.65 13.1 29.85 11.8L27.55 8.2C26.55 6.7 24.55 6.3 23.05 7.4L17.45 11.5C15.95 12.6 15.75 14.6 16.85 16L19.55 19.3C20.55 20.5 20.45 22.2 19.45 23.4C17.75 25.3 16.35 27.3 15.05 29.5C14.25 30.8 12.65 31.4 11.15 30.8L7.25004 29.3C5.55004 28.6 3.65004 29.5 3.15004 31.3L1.05004 37.9C0.450044 39.6 1.45004 41.5 3.25004 41.9L7.25004 43C8.75004 43.4 9.75004 44.8 9.55004 46.4C9.45004 47.7 9.35004 49 9.35004 50.4C9.35004 51.7 9.45004 53.1 9.55004 54.4C9.75004 55.9 8.75004 57.4 7.25004 57.8L3.25004 58.9C1.45004 59.4 0.450044 61.2 1.05004 62.9L3.15004 69.5C3.75004 71.2 5.65004 72.1 7.25004 71.5L11.15 70C12.55 69.4 14.25 70 15.05 71.3C16.35 73.5 17.85 75.5 19.45 77.4C20.45 78.6 20.55 80.3 19.55 81.5L16.85 84.8C15.75 86.2 15.95 88.3 17.45 89.3L23.05 93.4C24.55 94.5 26.55 94.1 27.55 92.6L29.85 89C30.65 87.7 32.35 87.2 33.75 87.8C36.05 88.8 38.55 89.6 41.15 90.2C42.65 90.5 43.75 91.9 43.65 93.4L43.45 97.5C43.35 99.3 44.75 100.8 46.55 100.8H53.45C55.25 100.8 56.65 99.3 56.55 97.5L56.35 93.4C56.25 91.9 57.35 90.5 58.85 90.2C61.45 89.6 63.85 88.8 66.25 87.8C67.65 87.2 69.35 87.7 70.15 89L72.45 92.6C73.45 94.1 75.45 94.5 76.95 93.4L82.55 89.3C84.05 88.2 84.25 86.2 83.15 84.8L80.45 81.5C79.45 80.3 79.55 78.6 80.55 77.4C82.25 75.5 83.65 73.5 84.95 71.3C85.75 70 87.35 69.4 88.85 70L92.75 71.5C94.45 72.2 96.35 71.3 96.85 69.5L98.95 62.9C99.45 61.2 98.45 59.4 96.75 58.9ZM49.95 76.3C35.75 76.3 24.15 64.8 24.15 50.5C24.15 36.2 35.65 24.7 49.95 24.7C64.15 24.7 75.75 36.2 75.75 50.5C75.75 64.8 64.15 76.3 49.95 76.3Z" fill="url(#paint1_radial_323_2419)"/>
<path d="M96.75 58.9L92.75 57.8C91.25 57.4 90.25 56 90.45 54.4C90.55 53.1 90.65 51.8 90.65 50.4C90.65 49 90.55 47.7 90.45 46.4C90.25 44.9 91.25 43.4 92.75 43L96.75 41.9C98.55 41.4 99.55 39.6 98.95 37.9L96.85 31.3C96.25 29.6 94.35 28.7 92.75 29.3L88.85 30.8C87.45 31.4 85.75 30.8 84.95 29.5C83.65 27.3 82.15 25.3 80.55 23.4C79.55 22.2 79.45 20.5 80.45 19.3L83.15 16C84.25 14.6 84.05 12.5 82.55 11.5L76.95 7.4C75.45 6.3 73.45 6.7 72.45 8.2L70.15 11.8C69.35 13.1 67.65 13.6 66.25 13C63.95 12 61.45 11.2 58.85 10.6C57.35 10.3 56.25 8.9 56.35 7.4L56.55 3.3C56.65 1.5 55.25 0 53.45 0H46.55C44.75 0 43.35 1.5 43.45 3.3L43.65 7.4C43.75 8.9 42.65 10.3 41.15 10.6C38.55 11.2 36.15 12 33.75 13C32.35 13.6 30.65 13.1 29.85 11.8L27.55 8.2C26.55 6.7 24.55 6.3 23.05 7.4L17.45 11.5C15.95 12.6 15.75 14.6 16.85 16L19.55 19.3C20.55 20.5 20.45 22.2 19.45 23.4C17.75 25.3 16.35 27.3 15.05 29.5C14.25 30.8 12.65 31.4 11.15 30.8L7.25004 29.3C5.55004 28.6 3.65004 29.5 3.15004 31.3L1.05004 37.9C0.450044 39.6 1.45004 41.5 3.25004 41.9L7.25004 43C8.75004 43.4 9.75004 44.8 9.55004 46.4C9.45004 47.7 9.35004 49 9.35004 50.4C9.35004 51.7 9.45004 53.1 9.55004 54.4C9.75004 55.9 8.75004 57.4 7.25004 57.8L3.25004 58.9C1.45004 59.4 0.450044 61.2 1.05004 62.9L3.15004 69.5C3.75004 71.2 5.65004 72.1 7.25004 71.5L11.15 70C12.55 69.4 14.25 70 15.05 71.3C16.35 73.5 17.85 75.5 19.45 77.4C20.45 78.6 20.55 80.3 19.55 81.5L16.85 84.8C15.75 86.2 15.95 88.3 17.45 89.3L23.05 93.4C24.55 94.5 26.55 94.1 27.55 92.6L29.85 89C30.65 87.7 32.35 87.2 33.75 87.8C36.05 88.8 38.55 89.6 41.15 90.2C42.65 90.5 43.75 91.9 43.65 93.4L43.45 97.5C43.35 99.3 44.75 100.8 46.55 100.8H53.45C55.25 100.8 56.65 99.3 56.55 97.5L56.35 93.4C56.25 91.9 57.35 90.5 58.85 90.2C61.45 89.6 63.85 88.8 66.25 87.8C67.65 87.2 69.35 87.7 70.15 89L72.45 92.6C73.45 94.1 75.45 94.5 76.95 93.4L82.55 89.3C84.05 88.2 84.25 86.2 83.15 84.8L80.45 81.5C79.45 80.3 79.55 78.6 80.55 77.4C82.25 75.5 83.65 73.5 84.95 71.3C85.75 70 87.35 69.4 88.85 70L92.75 71.5C94.45 72.2 96.35 71.3 96.85 69.5L98.95 62.9C99.45 61.2 98.45 59.4 96.75 58.9ZM49.95 76.3C35.75 76.3 24.15 64.8 24.15 50.5C24.15 36.2 35.65 24.7 49.95 24.7C64.15 24.7 75.75 36.2 75.75 50.5C75.75 64.8 64.15 76.3 49.95 76.3Z" fill="url(#paint2_radial_323_2419)"/>
<path opacity="0.4" d="M49.9501 19.8999C33.0501 19.8999 19.3501 33.5999 19.3501 50.4999C19.3501 67.3999 33.0501 81.0999 49.9501 81.0999C66.8501 81.0999 80.5501 67.3999 80.5501 50.4999C80.5501 33.5999 66.8501 19.8999 49.9501 19.8999ZM49.9501 76.2999C35.7501 76.2999 24.1501 64.7999 24.1501 50.4999C24.1501 36.2999 35.6501 24.6999 49.9501 24.6999C64.1501 24.6999 75.7501 36.1999 75.7501 50.4999C75.7501 64.7999 64.1501 76.2999 49.9501 76.2999Z" fill="url(#paint3_linear_323_2419)"/>
<path d="M49.95 71.8002C61.7137 71.8002 71.25 62.2639 71.25 50.5002C71.25 38.7365 61.7137 29.2002 49.95 29.2002C38.1864 29.2002 28.65 38.7365 28.65 50.5002C28.65 62.2639 38.1864 71.8002 49.95 71.8002Z" fill="url(#paint4_linear_323_2419)"/>
<path d="M64.5 49.6128C64.4097 50.3354 64.3194 51.058 64.1388 51.6902C63.0549 57.1096 58.5388 61.5354 53.0291 62.529C45.6226 63.8838 38.6678 59.3677 36.8613 52.1419C35.5065 46.4515 37.8549 40.3096 42.8226 37.1483C43.0033 36.9677 50.1388 31.9999 58.1775 37.1483C61.3388 39.3161 63.4162 42.2064 64.2291 45.9999C64.4097 46.6322 64.4097 47.3548 64.5904 47.987C64.5 48.529 64.5 49.0709 64.5 49.6128ZM62.513 48.7999C62.513 42.387 57.4549 36.787 50.5 36.787C43.4549 36.787 38.4871 42.5677 38.4871 48.7999C38.4871 55.3935 43.9065 60.8128 50.5 60.8128C57.0936 60.9031 62.513 55.4838 62.513 48.7999ZM45.3517 35.7935C48.7839 34.4386 52.3065 34.4386 55.7388 35.7935H45.3517Z" fill="#7644E4"/>
<path d="M39.5709 48.7996C39.6612 42.4771 44.8096 37.8706 50.5903 37.8706C56.5516 37.9609 61.429 42.8383 61.429 48.7996C61.429 55.1222 56.1903 59.7287 50.4096 59.7287C44.4483 59.6383 39.5709 54.7609 39.5709 48.7996ZM51.4935 46.9029C51.4935 45.9996 51.4935 45.0964 51.4935 44.1932C51.4935 44.0125 51.4935 43.7416 51.4032 43.5609C51.2225 43.1093 50.7709 42.9287 50.3193 43.019C49.8677 43.1093 49.5967 43.4706 49.5967 44.0125C49.5967 45.6383 49.5967 47.1738 49.5967 48.7996C49.5967 49.0706 49.5064 49.2513 49.3258 49.3416C48.2419 49.9738 47.3387 50.5158 46.3451 51.0577C45.7129 51.419 45.5322 51.9609 45.8935 52.4125C46.1645 52.8642 46.7967 53.0448 47.3387 52.6835C48.5129 52.0512 49.6871 51.3287 50.8612 50.6061C51.3129 50.3351 51.4935 49.9738 51.4935 49.5222C51.4032 48.7093 51.4935 47.8061 51.4935 46.9029Z" fill="#8B00FF"/>
<defs>
<linearGradient id="paint0_linear_323_2419" x1="40.2652" y1="50.4" x2="-9.99666" y2="44.8228" gradientUnits="userSpaceOnUse">
<stop stop-color="#8B00FF"/>
<stop offset="1" stop-color="#EB00FF"/>
</linearGradient>
<radialGradient id="paint1_radial_323_2419" cx="0" cy="0" r="1" gradientUnits="userSpaceOnUse" gradientTransform="translate(68.8545 117.277) rotate(-45.6841) scale(43.3479 42.123)">
<stop stop-color="#0066FF"/>
<stop offset="1" stop-color="#00E0FF" stop-opacity="0"/>
</radialGradient>
<radialGradient id="paint2_radial_323_2419" cx="0" cy="0" r="1" gradientUnits="userSpaceOnUse" gradientTransform="translate(2.14624 -21.3231) rotate(74.4881) scale(74.4344 78.9497)">
<stop offset="0.0604609" stop-color="#FFF500"/>
<stop offset="1" stop-color="#8B00FF" stop-opacity="0"/>
</radialGradient>
<linearGradient id="paint3_linear_323_2419" x1="28.2893" y1="28.8834" x2="71.5938" y2="72.1879" gradientUnits="userSpaceOnUse">
<stop stop-color="#5DB6C3"/>
<stop offset="1" stop-color="#4C829F"/>
</linearGradient>
<linearGradient id="paint4_linear_323_2419" x1="34.9017" y1="35.4961" x2="64.9813" y2="65.5757" gradientUnits="userSpaceOnUse">
<stop stop-color="white"/>
<stop offset="0.2753" stop-color="#F8F8F8"/>
<stop offset="0.6731" stop-color="#E5E5E5"/>
<stop offset="1" stop-color="#D0D0D0"/>
</linearGradient>
</defs>
</svg>
