<svg width="100" height="101" viewBox="0 0 100 101" fill="none" xmlns="http://www.w3.org/2000/svg">
<path d="M96.75 58.9L92.75 57.8C91.25 57.4 90.25 56 90.45 54.4C90.55 53.1 90.65 51.8 90.65 50.4C90.65 49 90.55 47.7 90.45 46.4C90.25 44.9 91.25 43.4 92.75 43L96.75 41.9C98.55 41.4 99.55 39.6 98.95 37.9L96.85 31.3C96.25 29.6 94.35 28.7 92.75 29.3L88.85 30.8C87.45 31.4 85.75 30.8 84.95 29.5C83.65 27.3 82.15 25.3 80.55 23.4C79.55 22.2 79.45 20.5 80.45 19.3L83.15 16C84.25 14.6 84.05 12.5 82.55 11.5L76.95 7.4C75.45 6.3 73.45 6.7 72.45 8.2L70.15 11.8C69.35 13.1 67.65 13.6 66.25 13C63.95 12 61.45 11.2 58.85 10.6C57.35 10.3 56.25 8.9 56.35 7.4L56.55 3.3C56.65 1.5 55.25 0 53.45 0H46.55C44.75 0 43.35 1.5 43.45 3.3L43.65 7.4C43.75 8.9 42.65 10.3 41.15 10.6C38.55 11.2 36.15 12 33.75 13C32.35 13.6 30.65 13.1 29.85 11.8L27.55 8.2C26.55 6.7 24.55 6.3 23.05 7.4L17.45 11.5C15.95 12.6 15.75 14.6 16.85 16L19.55 19.3C20.55 20.5 20.45 22.2 19.45 23.4C17.75 25.3 16.35 27.3 15.05 29.5C14.25 30.8 12.65 31.4 11.15 30.8L7.25004 29.3C5.55004 28.6 3.65004 29.5 3.15004 31.3L1.05004 37.9C0.450044 39.6 1.45004 41.5 3.25004 41.9L7.25004 43C8.75004 43.4 9.75004 44.8 9.55004 46.4C9.45004 47.7 9.35004 49 9.35004 50.4C9.35004 51.7 9.45004 53.1 9.55004 54.4C9.75004 55.9 8.75004 57.4 7.25004 57.8L3.25004 58.9C1.45004 59.4 0.450044 61.2 1.05004 62.9L3.15004 69.5C3.75004 71.2 5.65004 72.1 7.25004 71.5L11.15 70C12.55 69.4 14.25 70 15.05 71.3C16.35 73.5 17.85 75.5 19.45 77.4C20.45 78.6 20.55 80.3 19.55 81.5L16.85 84.8C15.75 86.2 15.95 88.3 17.45 89.3L23.05 93.4C24.55 94.5 26.55 94.1 27.55 92.6L29.85 89C30.65 87.7 32.35 87.2 33.75 87.8C36.05 88.8 38.55 89.6 41.15 90.2C42.65 90.5 43.75 91.9 43.65 93.4L43.45 97.5C43.35 99.3 44.75 100.8 46.55 100.8H53.45C55.25 100.8 56.65 99.3 56.55 97.5L56.35 93.4C56.25 91.9 57.35 90.5 58.85 90.2C61.45 89.6 63.85 88.8 66.25 87.8C67.65 87.2 69.35 87.7 70.15 89L72.45 92.6C73.45 94.1 75.45 94.5 76.95 93.4L82.55 89.3C84.05 88.2 84.25 86.2 83.15 84.8L80.45 81.5C79.45 80.3 79.55 78.6 80.55 77.4C82.25 75.5 83.65 73.5 84.95 71.3C85.75 70 87.35 69.4 88.85 70L92.75 71.5C94.45 72.2 96.35 71.3 96.85 69.5L98.95 62.9C99.45 61.2 98.45 59.4 96.75 58.9ZM49.95 76.3C35.75 76.3 24.15 64.8 24.15 50.5C24.15 36.2 35.65 24.7 49.95 24.7C64.15 24.7 75.75 36.2 75.75 50.5C75.75 64.8 64.15 76.3 49.95 76.3Z" fill="url(#paint0_linear_323_2385)"/>
<path d="M96.75 58.9L92.75 57.8C91.25 57.4 90.25 56 90.45 54.4C90.55 53.1 90.65 51.8 90.65 50.4C90.65 49 90.55 47.7 90.45 46.4C90.25 44.9 91.25 43.4 92.75 43L96.75 41.9C98.55 41.4 99.55 39.6 98.95 37.9L96.85 31.3C96.25 29.6 94.35 28.7 92.75 29.3L88.85 30.8C87.45 31.4 85.75 30.8 84.95 29.5C83.65 27.3 82.15 25.3 80.55 23.4C79.55 22.2 79.45 20.5 80.45 19.3L83.15 16C84.25 14.6 84.05 12.5 82.55 11.5L76.95 7.4C75.45 6.3 73.45 6.7 72.45 8.2L70.15 11.8C69.35 13.1 67.65 13.6 66.25 13C63.95 12 61.45 11.2 58.85 10.6C57.35 10.3 56.25 8.9 56.35 7.4L56.55 3.3C56.65 1.5 55.25 0 53.45 0H46.55C44.75 0 43.35 1.5 43.45 3.3L43.65 7.4C43.75 8.9 42.65 10.3 41.15 10.6C38.55 11.2 36.15 12 33.75 13C32.35 13.6 30.65 13.1 29.85 11.8L27.55 8.2C26.55 6.7 24.55 6.3 23.05 7.4L17.45 11.5C15.95 12.6 15.75 14.6 16.85 16L19.55 19.3C20.55 20.5 20.45 22.2 19.45 23.4C17.75 25.3 16.35 27.3 15.05 29.5C14.25 30.8 12.65 31.4 11.15 30.8L7.25004 29.3C5.55004 28.6 3.65004 29.5 3.15004 31.3L1.05004 37.9C0.450044 39.6 1.45004 41.5 3.25004 41.9L7.25004 43C8.75004 43.4 9.75004 44.8 9.55004 46.4C9.45004 47.7 9.35004 49 9.35004 50.4C9.35004 51.7 9.45004 53.1 9.55004 54.4C9.75004 55.9 8.75004 57.4 7.25004 57.8L3.25004 58.9C1.45004 59.4 0.450044 61.2 1.05004 62.9L3.15004 69.5C3.75004 71.2 5.65004 72.1 7.25004 71.5L11.15 70C12.55 69.4 14.25 70 15.05 71.3C16.35 73.5 17.85 75.5 19.45 77.4C20.45 78.6 20.55 80.3 19.55 81.5L16.85 84.8C15.75 86.2 15.95 88.3 17.45 89.3L23.05 93.4C24.55 94.5 26.55 94.1 27.55 92.6L29.85 89C30.65 87.7 32.35 87.2 33.75 87.8C36.05 88.8 38.55 89.6 41.15 90.2C42.65 90.5 43.75 91.9 43.65 93.4L43.45 97.5C43.35 99.3 44.75 100.8 46.55 100.8H53.45C55.25 100.8 56.65 99.3 56.55 97.5L56.35 93.4C56.25 91.9 57.35 90.5 58.85 90.2C61.45 89.6 63.85 88.8 66.25 87.8C67.65 87.2 69.35 87.7 70.15 89L72.45 92.6C73.45 94.1 75.45 94.5 76.95 93.4L82.55 89.3C84.05 88.2 84.25 86.2 83.15 84.8L80.45 81.5C79.45 80.3 79.55 78.6 80.55 77.4C82.25 75.5 83.65 73.5 84.95 71.3C85.75 70 87.35 69.4 88.85 70L92.75 71.5C94.45 72.2 96.35 71.3 96.85 69.5L98.95 62.9C99.45 61.2 98.45 59.4 96.75 58.9ZM49.95 76.3C35.75 76.3 24.15 64.8 24.15 50.5C24.15 36.2 35.65 24.7 49.95 24.7C64.15 24.7 75.75 36.2 75.75 50.5C75.75 64.8 64.15 76.3 49.95 76.3Z" fill="url(#paint1_radial_323_2385)"/>
<path d="M96.75 58.9L92.75 57.8C91.25 57.4 90.25 56 90.45 54.4C90.55 53.1 90.65 51.8 90.65 50.4C90.65 49 90.55 47.7 90.45 46.4C90.25 44.9 91.25 43.4 92.75 43L96.75 41.9C98.55 41.4 99.55 39.6 98.95 37.9L96.85 31.3C96.25 29.6 94.35 28.7 92.75 29.3L88.85 30.8C87.45 31.4 85.75 30.8 84.95 29.5C83.65 27.3 82.15 25.3 80.55 23.4C79.55 22.2 79.45 20.5 80.45 19.3L83.15 16C84.25 14.6 84.05 12.5 82.55 11.5L76.95 7.4C75.45 6.3 73.45 6.7 72.45 8.2L70.15 11.8C69.35 13.1 67.65 13.6 66.25 13C63.95 12 61.45 11.2 58.85 10.6C57.35 10.3 56.25 8.9 56.35 7.4L56.55 3.3C56.65 1.5 55.25 0 53.45 0H46.55C44.75 0 43.35 1.5 43.45 3.3L43.65 7.4C43.75 8.9 42.65 10.3 41.15 10.6C38.55 11.2 36.15 12 33.75 13C32.35 13.6 30.65 13.1 29.85 11.8L27.55 8.2C26.55 6.7 24.55 6.3 23.05 7.4L17.45 11.5C15.95 12.6 15.75 14.6 16.85 16L19.55 19.3C20.55 20.5 20.45 22.2 19.45 23.4C17.75 25.3 16.35 27.3 15.05 29.5C14.25 30.8 12.65 31.4 11.15 30.8L7.25004 29.3C5.55004 28.6 3.65004 29.5 3.15004 31.3L1.05004 37.9C0.450044 39.6 1.45004 41.5 3.25004 41.9L7.25004 43C8.75004 43.4 9.75004 44.8 9.55004 46.4C9.45004 47.7 9.35004 49 9.35004 50.4C9.35004 51.7 9.45004 53.1 9.55004 54.4C9.75004 55.9 8.75004 57.4 7.25004 57.8L3.25004 58.9C1.45004 59.4 0.450044 61.2 1.05004 62.9L3.15004 69.5C3.75004 71.2 5.65004 72.1 7.25004 71.5L11.15 70C12.55 69.4 14.25 70 15.05 71.3C16.35 73.5 17.85 75.5 19.45 77.4C20.45 78.6 20.55 80.3 19.55 81.5L16.85 84.8C15.75 86.2 15.95 88.3 17.45 89.3L23.05 93.4C24.55 94.5 26.55 94.1 27.55 92.6L29.85 89C30.65 87.7 32.35 87.2 33.75 87.8C36.05 88.8 38.55 89.6 41.15 90.2C42.65 90.5 43.75 91.9 43.65 93.4L43.45 97.5C43.35 99.3 44.75 100.8 46.55 100.8H53.45C55.25 100.8 56.65 99.3 56.55 97.5L56.35 93.4C56.25 91.9 57.35 90.5 58.85 90.2C61.45 89.6 63.85 88.8 66.25 87.8C67.65 87.2 69.35 87.7 70.15 89L72.45 92.6C73.45 94.1 75.45 94.5 76.95 93.4L82.55 89.3C84.05 88.2 84.25 86.2 83.15 84.8L80.45 81.5C79.45 80.3 79.55 78.6 80.55 77.4C82.25 75.5 83.65 73.5 84.95 71.3C85.75 70 87.35 69.4 88.85 70L92.75 71.5C94.45 72.2 96.35 71.3 96.85 69.5L98.95 62.9C99.45 61.2 98.45 59.4 96.75 58.9ZM49.95 76.3C35.75 76.3 24.15 64.8 24.15 50.5C24.15 36.2 35.65 24.7 49.95 24.7C64.15 24.7 75.75 36.2 75.75 50.5C75.75 64.8 64.15 76.3 49.95 76.3Z" fill="url(#paint2_radial_323_2385)"/>
<path opacity="0.4" d="M49.9501 19.8999C33.0501 19.8999 19.3501 33.5999 19.3501 50.4999C19.3501 67.3999 33.0501 81.0999 49.9501 81.0999C66.8501 81.0999 80.5501 67.3999 80.5501 50.4999C80.5501 33.5999 66.8501 19.8999 49.9501 19.8999ZM49.9501 76.2999C35.7501 76.2999 24.1501 64.7999 24.1501 50.4999C24.1501 36.2999 35.6501 24.6999 49.9501 24.6999C64.1501 24.6999 75.7501 36.1999 75.7501 50.4999C75.7501 64.7999 64.1501 76.2999 49.9501 76.2999Z" fill="url(#paint3_linear_323_2385)"/>
<path d="M49.95 71.8002C61.7137 71.8002 71.25 62.2639 71.25 50.5002C71.25 38.7365 61.7137 29.2002 49.95 29.2002C38.1864 29.2002 28.65 38.7365 28.65 50.5002C28.65 62.2639 38.1864 71.8002 49.95 71.8002Z" fill="url(#paint4_linear_323_2385)"/>
<path d="M51.4801 62.7997C51.2701 62.7297 51.1301 62.7297 50.9201 62.6597C50.1501 62.4497 49.3801 62.0997 48.6801 61.7497C47.2801 61.1197 45.8801 60.4197 44.4801 59.7897C43.8501 59.5097 43.1501 59.1597 42.4501 58.9497C42.0301 58.8097 41.6101 58.7397 41.1901 58.6697C41.1201 58.6697 41.0501 58.6697 40.9801 58.5997C40.6301 58.5297 40.5601 58.3197 40.5601 57.8997C40.5601 56.9897 40.5601 56.0797 40.5601 55.1697C40.5601 54.2597 40.5601 53.3497 40.5601 52.4397C40.5601 52.0897 40.6301 51.9497 40.9801 51.8797C41.6801 51.6697 42.3101 51.5297 43.0101 51.3897C43.6401 51.2497 44.3401 51.1097 45.0401 51.1097C45.7401 51.0397 46.5101 51.1097 47.2101 51.1097C47.9801 51.1097 48.6801 51.2497 49.3801 51.5297C49.9401 51.7397 50.5001 52.0197 51.0601 52.2297C51.4101 52.3697 51.6901 52.5097 52.0401 52.6497C52.3901 52.7897 52.8101 52.8597 53.1601 52.9297C54.7001 53.0697 56.3101 53.2097 57.8501 53.6297C58.2001 53.6997 58.5501 53.8397 58.9001 54.0497C59.2501 54.1897 59.4601 54.4697 59.6001 54.7497C59.6701 54.9597 59.7401 55.1697 59.6701 55.4497C59.5301 55.9397 59.2501 56.4297 58.8301 56.7097C58.6201 56.8497 58.4101 56.9197 58.2001 56.9197C57.8501 56.9197 57.4301 56.8497 57.0801 56.8497C56.5901 56.8497 56.0301 56.7797 55.5401 56.7097C54.6301 56.6397 53.7901 56.6397 52.8801 56.5697C52.3901 56.5697 51.9001 56.5697 51.4101 56.6397V56.7097C51.5501 56.7797 51.7601 56.8497 51.9001 56.9197C52.3201 57.0597 52.7401 57.2697 53.1601 57.4097C53.8601 57.6897 54.6301 57.7597 55.3301 57.8297C56.4501 57.8297 57.5001 57.7597 58.5501 57.5497C59.3901 57.4097 60.0901 57.0597 60.7201 56.4997C61.2101 56.0797 61.7701 55.6597 62.4001 55.4497C62.9601 55.3097 63.5201 55.2397 64.0801 55.5197C64.2201 55.5897 64.4301 55.7297 64.5001 55.9397C64.6401 56.1497 64.6401 56.4297 64.5001 56.7097C64.3601 56.8497 64.2901 56.9897 64.1501 57.1997C64.2201 57.2697 64.2901 57.2697 64.3601 57.3397C64.5701 57.4097 64.6401 57.6197 64.5701 57.8297C64.5001 58.1097 64.4301 58.3897 64.1501 58.5997C63.7301 58.9497 63.3101 59.3697 62.8201 59.6497C61.9801 60.2797 61.0701 60.8397 60.1601 61.3997C59.6701 61.7497 59.1101 61.8897 58.5501 61.9597C57.9201 62.0297 57.2201 62.1697 56.5901 62.2397C55.5401 62.3797 54.4201 62.5897 53.3701 62.7297C52.9501 62.7997 52.6001 62.7997 52.1801 62.8697H52.1101C51.9001 62.7997 51.6901 62.7997 51.4801 62.7997Z" fill="#7644E4"/>
<path d="M36.5 51.4598C36.5 51.3198 36.5 51.1798 36.5 51.0398C36.5 50.7598 36.64 50.5498 36.92 50.5498C37.55 50.5498 38.18 50.5498 38.81 50.5498C38.95 50.5498 39.02 50.5498 39.16 50.5498C39.44 50.6198 39.58 50.6898 39.58 51.0398C39.58 51.3198 39.58 51.5998 39.58 51.8798C39.58 54.4698 39.58 56.9898 39.58 59.5798C39.58 59.7198 39.44 59.8598 39.23 59.9298C39.16 59.9298 39.09 59.9298 38.95 59.9298C38.32 59.9298 37.62 59.9298 36.99 59.9298C36.92 59.9298 36.78 59.9298 36.71 59.8598C36.64 59.7898 36.5 59.7198 36.5 59.4398C36.5 59.0898 36.5 58.8098 36.5 58.4598C36.5 58.3898 36.5 58.3898 36.5 58.3198C36.5 56.0798 36.5 53.7698 36.5 51.4598Z" fill="#7644E4"/>
<path d="M44.0601 50.4099C44.2701 49.9199 44.4801 49.4999 44.6901 49.0099C45.1101 48.1699 45.8101 47.6099 46.6501 47.1199C47.7001 46.5599 48.8201 46.1399 49.9401 45.7199C50.0801 45.6499 50.1501 45.7199 50.2901 45.7899C50.5701 46.0699 50.8501 46.4199 51.2001 46.6299C51.6901 47.0499 52.3201 47.3299 52.9501 47.4699C53.9301 47.6099 54.9101 47.3999 55.6801 46.7699C56.1001 46.4899 56.4501 46.1399 56.7301 45.7199C56.7301 45.7199 56.8001 45.6499 56.8701 45.6499C58.2001 46.2099 59.4601 46.6999 60.7201 47.3999C61.4901 47.8899 62.0501 48.5199 62.4001 49.3599C62.8901 50.2699 63.1001 51.2499 63.2401 52.2999C63.3101 52.8599 63.2401 52.9299 62.7501 53.0699C61.9801 53.3499 61.2101 53.5599 60.4401 53.6999C60.3001 53.6999 60.0901 53.7699 59.9501 53.7699C59.8801 53.7699 59.8101 53.7699 59.8101 53.7699C59.1101 53.1399 58.3401 52.8599 57.4301 52.7199C56.8001 52.5799 56.1701 52.4399 55.4701 52.3699C54.9101 52.2999 54.3501 52.2299 53.7901 52.2299C52.8801 52.1599 52.0401 51.8799 51.2001 51.4599C50.1501 50.8999 48.9601 50.5499 47.7701 50.3399C46.9301 50.1999 46.0901 50.1999 45.1801 50.2699C44.8301 50.3399 44.4801 50.4099 44.0601 50.4099Z" fill="#8B00FF"/>
<path d="M57.78 39.4196C57.78 39.5596 57.78 39.6996 57.78 39.7696C57.78 39.9796 57.85 40.1196 57.92 40.2596C58.06 40.3996 58.13 40.6096 58.13 40.8196C58.2 41.8696 57.85 42.8496 57.15 43.6196C57.01 43.8296 56.87 44.1096 56.8 44.3196C56.31 45.5796 55.47 46.4196 54.14 46.7696C53.3 46.9796 52.46 46.7696 51.76 46.2796C50.99 45.7896 50.5 45.0896 50.22 44.2496C50.08 43.8296 49.8 43.5496 49.59 43.1996C49.03 42.3596 48.75 41.5196 48.96 40.4696C48.96 40.3296 49.03 40.1896 49.1 40.1196C49.31 39.9096 49.31 39.6996 49.31 39.4196C49.31 38.8596 49.31 38.2996 49.38 37.7396C49.52 36.5496 50.15 35.7096 51.13 35.1496C52.11 34.5896 53.16 34.4496 54.28 34.6596C54.84 34.7296 55.47 34.9396 55.96 35.2196C56.45 35.4996 56.8 35.9196 56.94 36.4796C57.01 36.6896 57.08 36.8296 57.22 36.9696C57.5 37.2496 57.57 37.6696 57.71 38.0196C57.71 38.6496 57.71 39.0696 57.78 39.4196Z" fill="#8B00FF"/>
<defs>
<linearGradient id="paint0_linear_323_2385" x1="40.2652" y1="50.4" x2="-9.99666" y2="44.8228" gradientUnits="userSpaceOnUse">
<stop stop-color="#8B00FF"/>
<stop offset="1" stop-color="#EB00FF"/>
</linearGradient>
<radialGradient id="paint1_radial_323_2385" cx="0" cy="0" r="1" gradientUnits="userSpaceOnUse" gradientTransform="translate(68.8545 117.277) rotate(-45.6841) scale(43.3479 42.123)">
<stop stop-color="#0066FF"/>
<stop offset="1" stop-color="#00E0FF" stop-opacity="0"/>
</radialGradient>
<radialGradient id="paint2_radial_323_2385" cx="0" cy="0" r="1" gradientUnits="userSpaceOnUse" gradientTransform="translate(2.14624 -21.3231) rotate(74.4881) scale(74.4344 78.9497)">
<stop offset="0.0604609" stop-color="#FFF500"/>
<stop offset="1" stop-color="#8B00FF" stop-opacity="0"/>
</radialGradient>
<linearGradient id="paint3_linear_323_2385" x1="28.2893" y1="28.8834" x2="71.5938" y2="72.1879" gradientUnits="userSpaceOnUse">
<stop stop-color="#5DB6C3"/>
<stop offset="1" stop-color="#4C829F"/>
</linearGradient>
<linearGradient id="paint4_linear_323_2385" x1="34.9017" y1="35.4961" x2="64.9813" y2="65.5757" gradientUnits="userSpaceOnUse">
<stop stop-color="white"/>
<stop offset="0.2753" stop-color="#F8F8F8"/>
<stop offset="0.6731" stop-color="#E5E5E5"/>
<stop offset="1" stop-color="#D0D0D0"/>
</linearGradient>
</defs>
</svg>
