<svg width="100" height="101" viewBox="0 0 100 101" fill="none" xmlns="http://www.w3.org/2000/svg">
<path d="M96.75 58.9L92.75 57.8C91.25 57.4 90.25 56 90.45 54.4C90.55 53.1 90.65 51.8 90.65 50.4C90.65 49 90.55 47.7 90.45 46.4C90.25 44.9 91.25 43.4 92.75 43L96.75 41.9C98.55 41.4 99.55 39.6 98.95 37.9L96.85 31.3C96.25 29.6 94.35 28.7 92.75 29.3L88.85 30.8C87.45 31.4 85.75 30.8 84.95 29.5C83.65 27.3 82.15 25.3 80.55 23.4C79.55 22.2 79.45 20.5 80.45 19.3L83.15 16C84.25 14.6 84.05 12.5 82.55 11.5L76.95 7.4C75.45 6.3 73.45 6.7 72.45 8.2L70.15 11.8C69.35 13.1 67.65 13.6 66.25 13C63.95 12 61.45 11.2 58.85 10.6C57.35 10.3 56.25 8.9 56.35 7.4L56.55 3.3C56.65 1.5 55.25 0 53.45 0H46.55C44.75 0 43.35 1.5 43.45 3.3L43.65 7.4C43.75 8.9 42.65 10.3 41.15 10.6C38.55 11.2 36.15 12 33.75 13C32.35 13.6 30.65 13.1 29.85 11.8L27.55 8.2C26.55 6.7 24.55 6.3 23.05 7.4L17.45 11.5C15.95 12.6 15.75 14.6 16.85 16L19.55 19.3C20.55 20.5 20.45 22.2 19.45 23.4C17.75 25.3 16.35 27.3 15.05 29.5C14.25 30.8 12.65 31.4 11.15 30.8L7.25004 29.3C5.55004 28.6 3.65004 29.5 3.15004 31.3L1.05004 37.9C0.450044 39.6 1.45004 41.5 3.25004 41.9L7.25004 43C8.75004 43.4 9.75004 44.8 9.55004 46.4C9.45004 47.7 9.35004 49 9.35004 50.4C9.35004 51.7 9.45004 53.1 9.55004 54.4C9.75004 55.9 8.75004 57.4 7.25004 57.8L3.25004 58.9C1.45004 59.4 0.450044 61.2 1.05004 62.9L3.15004 69.5C3.75004 71.2 5.65004 72.1 7.25004 71.5L11.15 70C12.55 69.4 14.25 70 15.05 71.3C16.35 73.5 17.85 75.5 19.45 77.4C20.45 78.6 20.55 80.3 19.55 81.5L16.85 84.8C15.75 86.2 15.95 88.3 17.45 89.3L23.05 93.4C24.55 94.5 26.55 94.1 27.55 92.6L29.85 89C30.65 87.7 32.35 87.2 33.75 87.8C36.05 88.8 38.55 89.6 41.15 90.2C42.65 90.5 43.75 91.9 43.65 93.4L43.45 97.5C43.35 99.3 44.75 100.8 46.55 100.8H53.45C55.25 100.8 56.65 99.3 56.55 97.5L56.35 93.4C56.25 91.9 57.35 90.5 58.85 90.2C61.45 89.6 63.85 88.8 66.25 87.8C67.65 87.2 69.35 87.7 70.15 89L72.45 92.6C73.45 94.1 75.45 94.5 76.95 93.4L82.55 89.3C84.05 88.2 84.25 86.2 83.15 84.8L80.45 81.5C79.45 80.3 79.55 78.6 80.55 77.4C82.25 75.5 83.65 73.5 84.95 71.3C85.75 70 87.35 69.4 88.85 70L92.75 71.5C94.45 72.2 96.35 71.3 96.85 69.5L98.95 62.9C99.45 61.2 98.45 59.4 96.75 58.9ZM49.95 76.3C35.75 76.3 24.15 64.8 24.15 50.5C24.15 36.2 35.65 24.7 49.95 24.7C64.15 24.7 75.75 36.2 75.75 50.5C75.75 64.8 64.15 76.3 49.95 76.3Z" fill="url(#paint0_linear_323_2449)"/>
<path d="M96.75 58.9L92.75 57.8C91.25 57.4 90.25 56 90.45 54.4C90.55 53.1 90.65 51.8 90.65 50.4C90.65 49 90.55 47.7 90.45 46.4C90.25 44.9 91.25 43.4 92.75 43L96.75 41.9C98.55 41.4 99.55 39.6 98.95 37.9L96.85 31.3C96.25 29.6 94.35 28.7 92.75 29.3L88.85 30.8C87.45 31.4 85.75 30.8 84.95 29.5C83.65 27.3 82.15 25.3 80.55 23.4C79.55 22.2 79.45 20.5 80.45 19.3L83.15 16C84.25 14.6 84.05 12.5 82.55 11.5L76.95 7.4C75.45 6.3 73.45 6.7 72.45 8.2L70.15 11.8C69.35 13.1 67.65 13.6 66.25 13C63.95 12 61.45 11.2 58.85 10.6C57.35 10.3 56.25 8.9 56.35 7.4L56.55 3.3C56.65 1.5 55.25 0 53.45 0H46.55C44.75 0 43.35 1.5 43.45 3.3L43.65 7.4C43.75 8.9 42.65 10.3 41.15 10.6C38.55 11.2 36.15 12 33.75 13C32.35 13.6 30.65 13.1 29.85 11.8L27.55 8.2C26.55 6.7 24.55 6.3 23.05 7.4L17.45 11.5C15.95 12.6 15.75 14.6 16.85 16L19.55 19.3C20.55 20.5 20.45 22.2 19.45 23.4C17.75 25.3 16.35 27.3 15.05 29.5C14.25 30.8 12.65 31.4 11.15 30.8L7.25004 29.3C5.55004 28.6 3.65004 29.5 3.15004 31.3L1.05004 37.9C0.450044 39.6 1.45004 41.5 3.25004 41.9L7.25004 43C8.75004 43.4 9.75004 44.8 9.55004 46.4C9.45004 47.7 9.35004 49 9.35004 50.4C9.35004 51.7 9.45004 53.1 9.55004 54.4C9.75004 55.9 8.75004 57.4 7.25004 57.8L3.25004 58.9C1.45004 59.4 0.450044 61.2 1.05004 62.9L3.15004 69.5C3.75004 71.2 5.65004 72.1 7.25004 71.5L11.15 70C12.55 69.4 14.25 70 15.05 71.3C16.35 73.5 17.85 75.5 19.45 77.4C20.45 78.6 20.55 80.3 19.55 81.5L16.85 84.8C15.75 86.2 15.95 88.3 17.45 89.3L23.05 93.4C24.55 94.5 26.55 94.1 27.55 92.6L29.85 89C30.65 87.7 32.35 87.2 33.75 87.8C36.05 88.8 38.55 89.6 41.15 90.2C42.65 90.5 43.75 91.9 43.65 93.4L43.45 97.5C43.35 99.3 44.75 100.8 46.55 100.8H53.45C55.25 100.8 56.65 99.3 56.55 97.5L56.35 93.4C56.25 91.9 57.35 90.5 58.85 90.2C61.45 89.6 63.85 88.8 66.25 87.8C67.65 87.2 69.35 87.7 70.15 89L72.45 92.6C73.45 94.1 75.45 94.5 76.95 93.4L82.55 89.3C84.05 88.2 84.25 86.2 83.15 84.8L80.45 81.5C79.45 80.3 79.55 78.6 80.55 77.4C82.25 75.5 83.65 73.5 84.95 71.3C85.75 70 87.35 69.4 88.85 70L92.75 71.5C94.45 72.2 96.35 71.3 96.85 69.5L98.95 62.9C99.45 61.2 98.45 59.4 96.75 58.9ZM49.95 76.3C35.75 76.3 24.15 64.8 24.15 50.5C24.15 36.2 35.65 24.7 49.95 24.7C64.15 24.7 75.75 36.2 75.75 50.5C75.75 64.8 64.15 76.3 49.95 76.3Z" fill="url(#paint1_radial_323_2449)"/>
<path d="M96.75 58.9L92.75 57.8C91.25 57.4 90.25 56 90.45 54.4C90.55 53.1 90.65 51.8 90.65 50.4C90.65 49 90.55 47.7 90.45 46.4C90.25 44.9 91.25 43.4 92.75 43L96.75 41.9C98.55 41.4 99.55 39.6 98.95 37.9L96.85 31.3C96.25 29.6 94.35 28.7 92.75 29.3L88.85 30.8C87.45 31.4 85.75 30.8 84.95 29.5C83.65 27.3 82.15 25.3 80.55 23.4C79.55 22.2 79.45 20.5 80.45 19.3L83.15 16C84.25 14.6 84.05 12.5 82.55 11.5L76.95 7.4C75.45 6.3 73.45 6.7 72.45 8.2L70.15 11.8C69.35 13.1 67.65 13.6 66.25 13C63.95 12 61.45 11.2 58.85 10.6C57.35 10.3 56.25 8.9 56.35 7.4L56.55 3.3C56.65 1.5 55.25 0 53.45 0H46.55C44.75 0 43.35 1.5 43.45 3.3L43.65 7.4C43.75 8.9 42.65 10.3 41.15 10.6C38.55 11.2 36.15 12 33.75 13C32.35 13.6 30.65 13.1 29.85 11.8L27.55 8.2C26.55 6.7 24.55 6.3 23.05 7.4L17.45 11.5C15.95 12.6 15.75 14.6 16.85 16L19.55 19.3C20.55 20.5 20.45 22.2 19.45 23.4C17.75 25.3 16.35 27.3 15.05 29.5C14.25 30.8 12.65 31.4 11.15 30.8L7.25004 29.3C5.55004 28.6 3.65004 29.5 3.15004 31.3L1.05004 37.9C0.450044 39.6 1.45004 41.5 3.25004 41.9L7.25004 43C8.75004 43.4 9.75004 44.8 9.55004 46.4C9.45004 47.7 9.35004 49 9.35004 50.4C9.35004 51.7 9.45004 53.1 9.55004 54.4C9.75004 55.9 8.75004 57.4 7.25004 57.8L3.25004 58.9C1.45004 59.4 0.450044 61.2 1.05004 62.9L3.15004 69.5C3.75004 71.2 5.65004 72.1 7.25004 71.5L11.15 70C12.55 69.4 14.25 70 15.05 71.3C16.35 73.5 17.85 75.5 19.45 77.4C20.45 78.6 20.55 80.3 19.55 81.5L16.85 84.8C15.75 86.2 15.95 88.3 17.45 89.3L23.05 93.4C24.55 94.5 26.55 94.1 27.55 92.6L29.85 89C30.65 87.7 32.35 87.2 33.75 87.8C36.05 88.8 38.55 89.6 41.15 90.2C42.65 90.5 43.75 91.9 43.65 93.4L43.45 97.5C43.35 99.3 44.75 100.8 46.55 100.8H53.45C55.25 100.8 56.65 99.3 56.55 97.5L56.35 93.4C56.25 91.9 57.35 90.5 58.85 90.2C61.45 89.6 63.85 88.8 66.25 87.8C67.65 87.2 69.35 87.7 70.15 89L72.45 92.6C73.45 94.1 75.45 94.5 76.95 93.4L82.55 89.3C84.05 88.2 84.25 86.2 83.15 84.8L80.45 81.5C79.45 80.3 79.55 78.6 80.55 77.4C82.25 75.5 83.65 73.5 84.95 71.3C85.75 70 87.35 69.4 88.85 70L92.75 71.5C94.45 72.2 96.35 71.3 96.85 69.5L98.95 62.9C99.45 61.2 98.45 59.4 96.75 58.9ZM49.95 76.3C35.75 76.3 24.15 64.8 24.15 50.5C24.15 36.2 35.65 24.7 49.95 24.7C64.15 24.7 75.75 36.2 75.75 50.5C75.75 64.8 64.15 76.3 49.95 76.3Z" fill="url(#paint2_radial_323_2449)"/>
<path opacity="0.4" d="M49.9501 19.8999C33.0501 19.8999 19.3501 33.5999 19.3501 50.4999C19.3501 67.3999 33.0501 81.0999 49.9501 81.0999C66.8501 81.0999 80.5501 67.3999 80.5501 50.4999C80.5501 33.5999 66.8501 19.8999 49.9501 19.8999ZM49.9501 76.2999C35.7501 76.2999 24.1501 64.7999 24.1501 50.4999C24.1501 36.2999 35.6501 24.6999 49.9501 24.6999C64.1501 24.6999 75.7501 36.1999 75.7501 50.4999C75.7501 64.7999 64.1501 76.2999 49.9501 76.2999Z" fill="url(#paint3_linear_323_2449)"/>
<path d="M49.95 71.8002C61.7137 71.8002 71.25 62.2639 71.25 50.5002C71.25 38.7365 61.7137 29.2002 49.95 29.2002C38.1864 29.2002 28.65 38.7365 28.65 50.5002C28.65 62.2639 38.1864 71.8002 49.95 71.8002Z" fill="url(#paint4_linear_323_2449)"/>
<path d="M58.667 48.7176C58.8431 49.2118 59.0192 49.7059 59.3713 50.2C59.5473 50.5294 59.9875 50.8588 60.3396 50.9412C61.1319 51.0235 61.396 51.3529 61.396 52.0941C61.396 52.5059 61.396 52.9176 61.396 53.3294C61.396 54.9765 61.396 54.9765 59.6354 55.0588C59.2832 55.8 58.9311 56.5412 58.579 57.2823C59.7234 58.6 59.7234 58.6 57.6987 60.4941C56.8183 61.3176 56.8183 61.3176 55.4979 60.247C54.7056 60.5765 53.9133 60.8235 53.121 61.1529C52.8569 62.8823 52.8569 62.8823 50.2159 62.8823C48.8954 62.8823 48.5433 62.3059 48.7194 61.2353C47.9271 60.9059 47.0467 60.5765 46.2544 60.247C44.7579 61.3176 44.7579 61.2353 42.7331 59.3412C41.7648 58.4353 42.381 57.9412 43.0853 57.3647C42.7331 56.6235 42.381 55.8823 42.1169 55.2235C41.5007 54.9765 40.5323 54.8118 40.4443 54.4823C40.2682 53.4941 40.3563 52.4235 40.4443 51.3529C40.4443 51.2706 40.7084 51.1059 40.7964 51.1059C42.5571 51.1882 42.381 49.6235 43.0853 48.8C41.9409 47.1529 41.9409 47.1529 43.7015 45.7529C46.1664 46.5765 46.7826 48.0588 45.5502 50.2823C44.2297 52.6706 44.8459 55.5529 46.9587 57.2823C49.1595 59.0118 52.4167 59.0118 54.7056 57.3647C56.9064 55.7176 57.4346 52.8353 56.2901 50.3647C55.85 49.4588 55.5859 48.2235 55.85 47.2353C56.026 46.6588 57.1705 46 57.9628 45.8353C58.4029 45.7529 59.1072 46.7412 59.4593 47.4C59.5473 47.647 58.9311 48.2235 58.667 48.7176Z" fill="#7644E4"/>
<path d="M50.832 34.7998C51.9764 36.6116 52.9448 38.2586 54.0892 39.988C53.385 40.0704 52.8568 40.0704 52.1525 40.1527C52.1525 45.9998 52.1525 51.8469 52.1525 57.7763C51.3602 57.7763 50.5679 57.7763 49.6876 57.7763C49.6876 51.9292 49.6876 45.9998 49.6876 40.0704C48.9833 40.0704 48.4551 39.988 47.6628 39.988C48.7192 38.2586 49.6876 36.6939 50.832 34.7998Z" fill="#8B00FF"/>
<path d="M58.1388 42.294C57.7867 41.7176 57.5226 41.2234 57.2585 40.647C59.3713 40.647 61.396 40.647 63.5968 40.647C62.5404 42.3764 61.5721 44.0234 60.4276 45.7529C60.0755 45.1764 59.7234 44.7646 59.2832 44.1881C57.9627 44.9293 56.6422 45.5881 55.4098 46.3293C55.1457 46.494 55.0577 46.9881 55.0577 47.3176C55.0577 49.7881 55.0577 52.2587 55.0577 54.7293C55.0577 56.3764 54.6175 56.9529 52.7688 57.5293C52.7688 57.2823 52.6808 57.0352 52.6808 56.7881C52.6808 53.3293 52.6808 49.8705 52.6808 46.494C52.6808 45.5881 53.0329 45.0117 53.8252 44.5999C55.3218 43.8587 56.7303 43.0352 58.1388 42.294Z" fill="#8B00FF"/>
<path d="M43.5254 42.294C45.0219 43.1176 46.5185 43.8587 47.927 44.7646C48.3672 45.0117 48.8954 45.6705 48.8954 46.1646C48.9834 49.8705 48.8954 53.5764 48.8954 57.2823C48.8954 57.3646 48.8073 57.447 48.8073 57.6117C47.0467 57.1176 46.5185 56.4587 46.5185 54.894C46.5185 52.5058 46.5185 50.0352 46.5185 47.647C46.5185 46.9058 46.3424 46.494 45.6382 46.0823C44.4938 45.5881 43.4374 44.9293 42.2929 44.3529C41.9408 44.847 41.5887 45.3411 41.1485 45.9176C40.1802 44.0234 39.1238 42.4587 38.0674 40.647C40.2682 40.647 42.2929 40.647 44.4057 40.647C44.1416 41.2234 43.8775 41.7176 43.5254 42.294Z" fill="#8B00FF"/>
<defs>
<linearGradient id="paint0_linear_323_2449" x1="40.2652" y1="50.4" x2="-9.99666" y2="44.8228" gradientUnits="userSpaceOnUse">
<stop stop-color="#8B00FF"/>
<stop offset="1" stop-color="#EB00FF"/>
</linearGradient>
<radialGradient id="paint1_radial_323_2449" cx="0" cy="0" r="1" gradientUnits="userSpaceOnUse" gradientTransform="translate(68.8545 117.277) rotate(-45.6841) scale(43.3479 42.123)">
<stop stop-color="#0066FF"/>
<stop offset="1" stop-color="#00E0FF" stop-opacity="0"/>
</radialGradient>
<radialGradient id="paint2_radial_323_2449" cx="0" cy="0" r="1" gradientUnits="userSpaceOnUse" gradientTransform="translate(2.14624 -21.3231) rotate(74.4881) scale(74.4344 78.9497)">
<stop offset="0.0604609" stop-color="#FFF500"/>
<stop offset="1" stop-color="#8B00FF" stop-opacity="0"/>
</radialGradient>
<linearGradient id="paint3_linear_323_2449" x1="28.2893" y1="28.8834" x2="71.5938" y2="72.1879" gradientUnits="userSpaceOnUse">
<stop stop-color="#5DB6C3"/>
<stop offset="1" stop-color="#4C829F"/>
</linearGradient>
<linearGradient id="paint4_linear_323_2449" x1="34.9017" y1="35.4961" x2="64.9813" y2="65.5757" gradientUnits="userSpaceOnUse">
<stop stop-color="white"/>
<stop offset="0.2753" stop-color="#F8F8F8"/>
<stop offset="0.6731" stop-color="#E5E5E5"/>
<stop offset="1" stop-color="#D0D0D0"/>
</linearGradient>
</defs>
</svg>
