<svg width="61" height="61" viewBox="0 0 61 61" fill="none" xmlns="http://www.w3.org/2000/svg">
<path d="M53.5317 60.5C53.2713 60.5 53.0217 60.3964 52.8379 60.212C47.9174 55.2754 42.9824 50.3392 38.0625 45.4179C37.5469 44.9022 37.0313 44.4021 36.5313 43.8863C36 43.3393 36 42.9954 36.5313 42.4328C37.1719 41.7764 37.8125 41.12 38.4844 40.4948C38.7656 40.2291 38.8281 40.0259 38.5156 39.729C37.2813 38.5255 36.0625 37.3221 34.875 36.0874C34.5 35.6967 34.2656 35.9311 34 36.1655C31.8438 38.041 29.4219 39.4476 26.6719 40.1978C19.1875 42.2452 12.5156 40.7136 6.79687 35.431C3.20312 32.1176 1.20313 27.929 0.59375 23.084V23.084C0.561695 22.8596 0.5 22.6408 0.5 22.4141C0.5 21.3335 0.5 20.253 0.5 19.1725C0.5 18.9054 0.560631 18.6447 0.59375 18.3797V18.3797C0.90625 15.6915 1.71875 13.1595 3.0625 10.8152C5.8125 6.03269 9.84375 2.84436 15.125 1.2502C15.6532 1.09237 16.1875 0.97673 16.7238 0.875486C18.0904 0.617488 19.4763 0.5 20.8671 0.5V0.5C22.0539 0.5 23.2466 0.587474 24.4157 0.79176C25.1731 0.924112 25.9246 1.08146 26.6563 1.32834C34.25 3.89151 39.0469 9.0491 40.6562 16.8949C41.9531 23.1934 40.3594 28.8824 36.2656 33.8681C35.7344 34.5245 35.7188 34.5245 36.3281 35.1184C37.4375 36.2281 38.5469 37.3221 39.6406 38.4318C39.9687 38.7756 40.2031 38.8225 40.5312 38.4474C41.0781 37.8379 41.6875 37.2752 42.2656 36.6969C43.0156 35.9467 43.2969 35.9467 44.0469 36.6969C49.3906 42.0421 54.7344 47.3872 60.0781 52.7167C60.121 52.7596 60.1638 52.801 60.2067 52.8419C60.395 53.0214 60.5 53.2751 60.5 53.5353V53.5353C60.5 53.7955 60.3967 54.0392 60.2127 54.2232C58.2166 56.2198 56.2205 58.2164 54.2244 60.213C54.0407 60.3968 53.7915 60.5 53.5317 60.5V60.5ZM2.15625 20.7396C2.09375 30.7735 10.2031 39.307 20.75 39.3539C31.0313 39.4008 39.4062 31.0079 39.4062 20.724C39.4062 10.4557 31.0781 2.12542 20.7969 2.12542C10.4531 2.12542 2.15625 10.4088 2.15625 20.7396ZM55.0937 56.9209C55.2424 56.7723 55.291 56.5207 55.1523 56.3627C55.1117 56.3164 55.0679 56.276 55.0312 56.2333C54.6094 55.7957 54.1719 55.3737 53.75 54.9517C50.6406 51.8259 47.5312 48.7001 44.4375 45.5586C44.0469 45.1679 43.7812 45.1679 43.4375 45.543C43.1562 45.8556 42.875 46.1994 42.5469 46.4807C42.0781 46.8715 42.1406 47.1371 42.5469 47.5591C45.5469 50.5287 48.5156 53.5138 51.5 56.4833C52.0625 57.046 52.6406 57.6086 53.1875 58.1869C53.4062 58.4057 53.5781 58.4682 53.8125 58.2025C54.2187 57.7649 54.6719 57.3429 55.0937 56.9209V56.9209ZM58.1113 53.8713C58.3338 53.6107 58.2891 53.2873 58.0469 53.0449V53.0449C55.8125 50.81 53.5781 48.575 51.3437 46.3244C50.0156 44.996 48.6875 43.6831 47.375 42.339C47.0938 42.0577 46.9062 42.0264 46.625 42.339C46.2656 42.7454 45.875 43.1361 45.4687 43.4956C45.1719 43.7613 45.1562 43.9957 45.4687 44.2614C45.9531 44.7146 46.4375 45.1679 46.9062 45.6368C49.9844 48.7157 53.0625 51.7946 56.1562 54.8735C56.1794 54.8967 56.2022 54.922 56.225 54.9481C56.4598 55.2158 56.8193 55.1582 57.084 54.9202C57.4048 54.6316 57.8306 54.1999 58.1113 53.8713ZM40.5474 45.5077C40.7146 45.6786 41.0028 45.6027 41.1719 45.4336V45.4336C42.6094 43.9957 44.0312 42.5578 45.4844 41.1356C45.7344 40.8855 45.7187 40.6823 45.4687 40.4479C44.8125 39.8071 44.1562 39.1663 43.5312 38.4943C43.2656 38.2129 43.0625 38.2598 42.7969 38.5099C41.3906 39.9321 39.9688 41.3544 38.5313 42.7766C38.25 43.0423 38.2812 43.2455 38.5469 43.5112C39.1875 44.1364 39.8125 44.7772 40.4531 45.4023C40.4847 45.4384 40.515 45.4746 40.5474 45.5077Z" fill="url(#paint0_linear_325_2497)"/>
<path d="M53.5317 60.5C53.2713 60.5 53.0217 60.3964 52.8379 60.212C47.9174 55.2754 42.9824 50.3392 38.0625 45.4179C37.5469 44.9022 37.0313 44.4021 36.5313 43.8863C36 43.3393 36 42.9954 36.5313 42.4328C37.1719 41.7764 37.8125 41.12 38.4844 40.4948C38.7656 40.2291 38.8281 40.0259 38.5156 39.729C37.2813 38.5255 36.0625 37.3221 34.875 36.0874C34.5 35.6967 34.2656 35.9311 34 36.1655C31.8438 38.041 29.4219 39.4476 26.6719 40.1978C19.1875 42.2452 12.5156 40.7136 6.79687 35.431C3.20312 32.1176 1.20313 27.929 0.59375 23.084V23.084C0.561695 22.8596 0.5 22.6408 0.5 22.4141C0.5 21.3335 0.5 20.253 0.5 19.1725C0.5 18.9054 0.560631 18.6447 0.59375 18.3797V18.3797C0.90625 15.6915 1.71875 13.1595 3.0625 10.8152C5.8125 6.03269 9.84375 2.84436 15.125 1.2502C15.6532 1.09237 16.1875 0.97673 16.7238 0.875486C18.0904 0.617488 19.4763 0.5 20.8671 0.5V0.5C22.0539 0.5 23.2466 0.587474 24.4157 0.79176C25.1731 0.924112 25.9246 1.08146 26.6563 1.32834C34.25 3.89151 39.0469 9.0491 40.6562 16.8949C41.9531 23.1934 40.3594 28.8824 36.2656 33.8681C35.7344 34.5245 35.7188 34.5245 36.3281 35.1184C37.4375 36.2281 38.5469 37.3221 39.6406 38.4318C39.9687 38.7756 40.2031 38.8225 40.5312 38.4474C41.0781 37.8379 41.6875 37.2752 42.2656 36.6969C43.0156 35.9467 43.2969 35.9467 44.0469 36.6969C49.3906 42.0421 54.7344 47.3872 60.0781 52.7167C60.121 52.7596 60.1638 52.801 60.2067 52.8419C60.395 53.0214 60.5 53.2751 60.5 53.5353V53.5353C60.5 53.7955 60.3967 54.0392 60.2127 54.2232C58.2166 56.2198 56.2205 58.2164 54.2244 60.213C54.0407 60.3968 53.7915 60.5 53.5317 60.5V60.5ZM2.15625 20.7396C2.09375 30.7735 10.2031 39.307 20.75 39.3539C31.0313 39.4008 39.4062 31.0079 39.4062 20.724C39.4062 10.4557 31.0781 2.12542 20.7969 2.12542C10.4531 2.12542 2.15625 10.4088 2.15625 20.7396ZM55.0937 56.9209C55.2424 56.7723 55.291 56.5207 55.1523 56.3627C55.1117 56.3164 55.0679 56.276 55.0312 56.2333C54.6094 55.7957 54.1719 55.3737 53.75 54.9517C50.6406 51.8259 47.5312 48.7001 44.4375 45.5586C44.0469 45.1679 43.7812 45.1679 43.4375 45.543C43.1562 45.8556 42.875 46.1994 42.5469 46.4807C42.0781 46.8715 42.1406 47.1371 42.5469 47.5591C45.5469 50.5287 48.5156 53.5138 51.5 56.4833C52.0625 57.046 52.6406 57.6086 53.1875 58.1869C53.4062 58.4057 53.5781 58.4682 53.8125 58.2025C54.2187 57.7649 54.6719 57.3429 55.0937 56.9209V56.9209ZM58.1113 53.8713C58.3338 53.6107 58.2891 53.2873 58.0469 53.0449V53.0449C55.8125 50.81 53.5781 48.575 51.3437 46.3244C50.0156 44.996 48.6875 43.6831 47.375 42.339C47.0938 42.0577 46.9062 42.0264 46.625 42.339C46.2656 42.7454 45.875 43.1361 45.4687 43.4956C45.1719 43.7613 45.1562 43.9957 45.4687 44.2614C45.9531 44.7146 46.4375 45.1679 46.9062 45.6368C49.9844 48.7157 53.0625 51.7946 56.1562 54.8735C56.1794 54.8967 56.2022 54.922 56.225 54.9481C56.4598 55.2158 56.8193 55.1582 57.084 54.9202C57.4048 54.6316 57.8306 54.1999 58.1113 53.8713ZM40.5474 45.5077C40.7146 45.6786 41.0028 45.6027 41.1719 45.4336V45.4336C42.6094 43.9957 44.0312 42.5578 45.4844 41.1356C45.7344 40.8855 45.7187 40.6823 45.4687 40.4479C44.8125 39.8071 44.1562 39.1663 43.5312 38.4943C43.2656 38.2129 43.0625 38.2598 42.7969 38.5099C41.3906 39.9321 39.9688 41.3544 38.5313 42.7766C38.25 43.0423 38.2812 43.2455 38.5469 43.5112C39.1875 44.1364 39.8125 44.7772 40.4531 45.4023C40.4847 45.4384 40.515 45.4746 40.5474 45.5077Z" fill="url(#paint1_radial_325_2497)"/>
<path d="M53.5317 60.5C53.2713 60.5 53.0217 60.3964 52.8379 60.212C47.9174 55.2754 42.9824 50.3392 38.0625 45.4179C37.5469 44.9022 37.0313 44.4021 36.5313 43.8863C36 43.3393 36 42.9954 36.5313 42.4328C37.1719 41.7764 37.8125 41.12 38.4844 40.4948C38.7656 40.2291 38.8281 40.0259 38.5156 39.729C37.2813 38.5255 36.0625 37.3221 34.875 36.0874C34.5 35.6967 34.2656 35.9311 34 36.1655C31.8438 38.041 29.4219 39.4476 26.6719 40.1978C19.1875 42.2452 12.5156 40.7136 6.79687 35.431C3.20312 32.1176 1.20313 27.929 0.59375 23.084V23.084C0.561695 22.8596 0.5 22.6408 0.5 22.4141C0.5 21.3335 0.5 20.253 0.5 19.1725C0.5 18.9054 0.560631 18.6447 0.59375 18.3797V18.3797C0.90625 15.6915 1.71875 13.1595 3.0625 10.8152C5.8125 6.03269 9.84375 2.84436 15.125 1.2502C15.6532 1.09237 16.1875 0.97673 16.7238 0.875486C18.0904 0.617488 19.4763 0.5 20.8671 0.5V0.5C22.0539 0.5 23.2466 0.587474 24.4157 0.79176C25.1731 0.924112 25.9246 1.08146 26.6563 1.32834C34.25 3.89151 39.0469 9.0491 40.6562 16.8949C41.9531 23.1934 40.3594 28.8824 36.2656 33.8681C35.7344 34.5245 35.7188 34.5245 36.3281 35.1184C37.4375 36.2281 38.5469 37.3221 39.6406 38.4318C39.9687 38.7756 40.2031 38.8225 40.5312 38.4474C41.0781 37.8379 41.6875 37.2752 42.2656 36.6969C43.0156 35.9467 43.2969 35.9467 44.0469 36.6969C49.3906 42.0421 54.7344 47.3872 60.0781 52.7167C60.121 52.7596 60.1638 52.801 60.2067 52.8419C60.395 53.0214 60.5 53.2751 60.5 53.5353V53.5353C60.5 53.7955 60.3967 54.0392 60.2127 54.2232C58.2166 56.2198 56.2205 58.2164 54.2244 60.213C54.0407 60.3968 53.7915 60.5 53.5317 60.5V60.5ZM2.15625 20.7396C2.09375 30.7735 10.2031 39.307 20.75 39.3539C31.0313 39.4008 39.4062 31.0079 39.4062 20.724C39.4062 10.4557 31.0781 2.12542 20.7969 2.12542C10.4531 2.12542 2.15625 10.4088 2.15625 20.7396ZM55.0937 56.9209C55.2424 56.7723 55.291 56.5207 55.1523 56.3627C55.1117 56.3164 55.0679 56.276 55.0312 56.2333C54.6094 55.7957 54.1719 55.3737 53.75 54.9517C50.6406 51.8259 47.5312 48.7001 44.4375 45.5586C44.0469 45.1679 43.7812 45.1679 43.4375 45.543C43.1562 45.8556 42.875 46.1994 42.5469 46.4807C42.0781 46.8715 42.1406 47.1371 42.5469 47.5591C45.5469 50.5287 48.5156 53.5138 51.5 56.4833C52.0625 57.046 52.6406 57.6086 53.1875 58.1869C53.4062 58.4057 53.5781 58.4682 53.8125 58.2025C54.2187 57.7649 54.6719 57.3429 55.0937 56.9209V56.9209ZM58.1113 53.8713C58.3338 53.6107 58.2891 53.2873 58.0469 53.0449V53.0449C55.8125 50.81 53.5781 48.575 51.3437 46.3244C50.0156 44.996 48.6875 43.6831 47.375 42.339C47.0938 42.0577 46.9062 42.0264 46.625 42.339C46.2656 42.7454 45.875 43.1361 45.4687 43.4956C45.1719 43.7613 45.1562 43.9957 45.4687 44.2614C45.9531 44.7146 46.4375 45.1679 46.9062 45.6368C49.9844 48.7157 53.0625 51.7946 56.1562 54.8735C56.1794 54.8967 56.2022 54.922 56.225 54.9481C56.4598 55.2158 56.8193 55.1582 57.084 54.9202C57.4048 54.6316 57.8306 54.1999 58.1113 53.8713ZM40.5474 45.5077C40.7146 45.6786 41.0028 45.6027 41.1719 45.4336V45.4336C42.6094 43.9957 44.0312 42.5578 45.4844 41.1356C45.7344 40.8855 45.7187 40.6823 45.4687 40.4479C44.8125 39.8071 44.1562 39.1663 43.5312 38.4943C43.2656 38.2129 43.0625 38.2598 42.7969 38.5099C41.3906 39.9321 39.9688 41.3544 38.5313 42.7766C38.25 43.0423 38.2812 43.2455 38.5469 43.5112C39.1875 44.1364 39.8125 44.7772 40.4531 45.4023C40.4847 45.4384 40.515 45.4746 40.5474 45.5077Z" fill="url(#paint2_radial_325_2497)"/>
<path d="M22.9688 33.8681C20.3594 33.8681 17.7344 33.8681 15.125 33.8681C14.8907 33.8681 14.6563 33.8681 14.4219 33.8524C13.5 33.743 13.2032 33.2273 13.6094 32.3833C14.7188 30.0389 15.8438 27.6946 16.9688 25.3502C17.25 24.7719 17.2344 24.7719 16.5782 24.7563C16.3907 24.7563 16.1875 24.7563 16 24.7563C15.4375 24.7719 15.1094 24.4906 15.0157 23.9592C14.9375 23.4747 14.8594 22.9902 14.8125 22.5057C14.7032 21.568 13.875 21.0679 13.0157 21.4273C12.6094 21.5992 12.1875 21.7712 11.7657 21.9431C11.2032 22.1775 10.7188 22.0525 10.3907 21.5211C9.92192 20.7553 9.48442 19.9738 9.06254 19.1767C8.81254 18.7235 9.01567 18.3484 9.39067 18.0514C9.79692 17.7232 10.2344 17.4263 10.6407 17.0824C11.2657 16.5823 11.25 15.6289 10.6094 15.1288C10.2188 14.8319 9.81254 14.5505 9.45317 14.238C8.92192 13.7847 8.84379 13.4565 9.17192 12.847C9.57817 12.0968 10.0313 11.3622 10.4844 10.6276C10.7813 10.1588 11.2032 10.065 11.7032 10.2682C12.0782 10.4245 12.4532 10.5808 12.8438 10.737C14 11.2059 14.7032 10.7839 14.8438 9.54924C14.8907 9.11162 14.9688 8.65838 15.0469 8.22076C15.1407 7.73626 15.4688 7.4862 15.9688 7.47057C16.8594 7.47057 17.7657 7.45494 18.6563 7.47057C19.1563 7.4862 19.4532 7.76752 19.5313 8.25202C19.625 8.81467 19.6875 9.37732 19.7657 9.93996C19.8594 10.6276 20.7344 11.1278 21.3907 10.8777C21.8594 10.6902 22.3125 10.4714 22.7969 10.2994C23.4844 10.0494 23.8438 10.1744 24.2188 10.8152C24.625 11.4872 25 12.1749 25.375 12.8626C25.7032 13.4565 25.625 13.816 25.125 14.2536C24.125 15.1444 24.125 15.1444 24.7188 16.3791C27.2344 21.6305 29.75 26.8819 32.2657 32.1176C32.8594 33.3523 32.5469 33.8524 31.1563 33.8681C28.4063 33.8837 25.6875 33.8681 22.9688 33.8681ZM22.9688 32.1176C25.2344 32.1176 27.5 32.102 29.7657 32.1176C30.2657 32.1176 30.3282 31.9926 30.1094 31.555C27.8282 26.8506 25.5782 22.1306 23.3125 17.4107C23.2188 17.2387 23.2032 16.9262 22.9532 16.9418C22.7657 16.9574 22.7344 17.2387 22.6407 17.4107C20.3907 22.115 18.125 26.8037 15.875 31.5081C15.6094 32.0707 15.625 32.1176 16.2813 32.1176C18.5157 32.1176 20.7344 32.1176 22.9688 32.1176ZM16.4587 22.3944C16.5367 23.2572 17.9873 23.2484 18.3438 22.4588V22.4588C19.5 19.9895 20.7188 17.5357 21.8907 15.0663C22.1719 14.488 22.5157 13.9879 23.0782 13.6597C23.5625 13.3784 23.5625 13.0814 23.2813 12.6282C23.0313 12.2218 22.8125 12.0499 22.3594 12.3C22.0938 12.4562 21.7813 12.5188 21.5 12.6594C20.9219 12.9407 20.3907 12.9564 19.9063 12.4406C19.6563 12.1905 19.3282 12.0499 18.9844 11.9405C18.4844 11.7686 18.2032 11.456 18.1563 10.9246C18.125 10.4714 18.0313 10.0337 17.9688 9.59612C17.9375 9.39294 17.8907 9.23665 17.6407 9.18977C16.8438 9.01785 16.5313 9.2054 16.4688 10.0025C16.3907 11.0027 16.0469 11.6435 15.0782 12.2374C14 12.8939 13.1719 12.8939 12.1875 12.3468C12.1563 12.3312 12.1094 12.3156 12.0782 12.3C11.6875 12.0499 11.4688 12.2218 11.2344 12.5813C10.9219 13.0658 10.9375 13.4096 11.4688 13.7222C12.3768 14.261 13.0574 14.9362 12.7194 16.1213C12.7091 16.1574 12.6915 16.1931 12.6915 16.2307V16.2307C12.6915 16.2682 12.7091 16.3038 12.7193 16.3399C12.9964 17.3232 12.4703 17.9195 11.7032 18.3953C11.5938 18.4734 11.5 18.5672 11.375 18.6454C10.9532 18.8798 10.9063 19.1299 11.1563 19.5831C11.4375 20.0832 11.7188 20.2239 12.2188 19.9426C12.4688 19.8019 12.7657 19.7238 13.0313 19.6144C13.5938 19.3487 14.0938 19.3174 14.5625 19.8332C14.7188 20.0051 14.9844 20.1301 15.2188 20.2083C16.0157 20.4583 16.4063 20.9741 16.3907 21.8024C16.3907 21.9743 16.4532 22.1463 16.4532 22.3182C16.4546 22.3441 16.4564 22.3695 16.4587 22.3944Z" fill="url(#paint3_linear_325_2497)"/>
<path d="M22.9688 33.8681C20.3594 33.8681 17.7344 33.8681 15.125 33.8681C14.8907 33.8681 14.6563 33.8681 14.4219 33.8524C13.5 33.743 13.2032 33.2273 13.6094 32.3833C14.7188 30.0389 15.8438 27.6946 16.9688 25.3502C17.25 24.7719 17.2344 24.7719 16.5782 24.7563C16.3907 24.7563 16.1875 24.7563 16 24.7563C15.4375 24.7719 15.1094 24.4906 15.0157 23.9592C14.9375 23.4747 14.8594 22.9902 14.8125 22.5057C14.7032 21.568 13.875 21.0679 13.0157 21.4273C12.6094 21.5992 12.1875 21.7712 11.7657 21.9431C11.2032 22.1775 10.7188 22.0525 10.3907 21.5211C9.92192 20.7553 9.48442 19.9738 9.06254 19.1767C8.81254 18.7235 9.01567 18.3484 9.39067 18.0514C9.79692 17.7232 10.2344 17.4263 10.6407 17.0824C11.2657 16.5823 11.25 15.6289 10.6094 15.1288C10.2188 14.8319 9.81254 14.5505 9.45317 14.238C8.92192 13.7847 8.84379 13.4565 9.17192 12.847C9.57817 12.0968 10.0313 11.3622 10.4844 10.6276C10.7813 10.1588 11.2032 10.065 11.7032 10.2682C12.0782 10.4245 12.4532 10.5808 12.8438 10.737C14 11.2059 14.7032 10.7839 14.8438 9.54924C14.8907 9.11162 14.9688 8.65838 15.0469 8.22076C15.1407 7.73626 15.4688 7.4862 15.9688 7.47057C16.8594 7.47057 17.7657 7.45494 18.6563 7.47057C19.1563 7.4862 19.4532 7.76752 19.5313 8.25202C19.625 8.81467 19.6875 9.37732 19.7657 9.93996C19.8594 10.6276 20.7344 11.1278 21.3907 10.8777C21.8594 10.6902 22.3125 10.4714 22.7969 10.2994C23.4844 10.0494 23.8438 10.1744 24.2188 10.8152C24.625 11.4872 25 12.1749 25.375 12.8626C25.7032 13.4565 25.625 13.816 25.125 14.2536C24.125 15.1444 24.125 15.1444 24.7188 16.3791C27.2344 21.6305 29.75 26.8819 32.2657 32.1176C32.8594 33.3523 32.5469 33.8524 31.1563 33.8681C28.4063 33.8837 25.6875 33.8681 22.9688 33.8681ZM22.9688 32.1176C25.2344 32.1176 27.5 32.102 29.7657 32.1176C30.2657 32.1176 30.3282 31.9926 30.1094 31.555C27.8282 26.8506 25.5782 22.1306 23.3125 17.4107C23.2188 17.2387 23.2032 16.9262 22.9532 16.9418C22.7657 16.9574 22.7344 17.2387 22.6407 17.4107C20.3907 22.115 18.125 26.8037 15.875 31.5081C15.6094 32.0707 15.625 32.1176 16.2813 32.1176C18.5157 32.1176 20.7344 32.1176 22.9688 32.1176ZM16.4587 22.3944C16.5367 23.2572 17.9873 23.2484 18.3438 22.4588V22.4588C19.5 19.9895 20.7188 17.5357 21.8907 15.0663C22.1719 14.488 22.5157 13.9879 23.0782 13.6597C23.5625 13.3784 23.5625 13.0814 23.2813 12.6282C23.0313 12.2218 22.8125 12.0499 22.3594 12.3C22.0938 12.4562 21.7813 12.5188 21.5 12.6594C20.9219 12.9407 20.3907 12.9564 19.9063 12.4406C19.6563 12.1905 19.3282 12.0499 18.9844 11.9405C18.4844 11.7686 18.2032 11.456 18.1563 10.9246C18.125 10.4714 18.0313 10.0337 17.9688 9.59612C17.9375 9.39294 17.8907 9.23665 17.6407 9.18977C16.8438 9.01785 16.5313 9.2054 16.4688 10.0025C16.3907 11.0027 16.0469 11.6435 15.0782 12.2374C14 12.8939 13.1719 12.8939 12.1875 12.3468C12.1563 12.3312 12.1094 12.3156 12.0782 12.3C11.6875 12.0499 11.4688 12.2218 11.2344 12.5813C10.9219 13.0658 10.9375 13.4096 11.4688 13.7222C12.3768 14.261 13.0574 14.9362 12.7194 16.1213C12.7091 16.1574 12.6915 16.1931 12.6915 16.2307V16.2307C12.6915 16.2682 12.7091 16.3038 12.7193 16.3399C12.9964 17.3232 12.4703 17.9195 11.7032 18.3953C11.5938 18.4734 11.5 18.5672 11.375 18.6454C10.9532 18.8798 10.9063 19.1299 11.1563 19.5831C11.4375 20.0832 11.7188 20.2239 12.2188 19.9426C12.4688 19.8019 12.7657 19.7238 13.0313 19.6144C13.5938 19.3487 14.0938 19.3174 14.5625 19.8332C14.7188 20.0051 14.9844 20.1301 15.2188 20.2083C16.0157 20.4583 16.4063 20.9741 16.3907 21.8024C16.3907 21.9743 16.4532 22.1463 16.4532 22.3182C16.4546 22.3441 16.4564 22.3695 16.4587 22.3944Z" fill="url(#paint4_radial_325_2497)"/>
<path d="M22.9688 33.8681C20.3594 33.8681 17.7344 33.8681 15.125 33.8681C14.8907 33.8681 14.6563 33.8681 14.4219 33.8524C13.5 33.743 13.2032 33.2273 13.6094 32.3833C14.7188 30.0389 15.8438 27.6946 16.9688 25.3502C17.25 24.7719 17.2344 24.7719 16.5782 24.7563C16.3907 24.7563 16.1875 24.7563 16 24.7563C15.4375 24.7719 15.1094 24.4906 15.0157 23.9592C14.9375 23.4747 14.8594 22.9902 14.8125 22.5057C14.7032 21.568 13.875 21.0679 13.0157 21.4273C12.6094 21.5992 12.1875 21.7712 11.7657 21.9431C11.2032 22.1775 10.7188 22.0525 10.3907 21.5211C9.92192 20.7553 9.48442 19.9738 9.06254 19.1767C8.81254 18.7235 9.01567 18.3484 9.39067 18.0514C9.79692 17.7232 10.2344 17.4263 10.6407 17.0824C11.2657 16.5823 11.25 15.6289 10.6094 15.1288C10.2188 14.8319 9.81254 14.5505 9.45317 14.238C8.92192 13.7847 8.84379 13.4565 9.17192 12.847C9.57817 12.0968 10.0313 11.3622 10.4844 10.6276C10.7813 10.1588 11.2032 10.065 11.7032 10.2682C12.0782 10.4245 12.4532 10.5808 12.8438 10.737C14 11.2059 14.7032 10.7839 14.8438 9.54924C14.8907 9.11162 14.9688 8.65838 15.0469 8.22076C15.1407 7.73626 15.4688 7.4862 15.9688 7.47057C16.8594 7.47057 17.7657 7.45494 18.6563 7.47057C19.1563 7.4862 19.4532 7.76752 19.5313 8.25202C19.625 8.81467 19.6875 9.37732 19.7657 9.93996C19.8594 10.6276 20.7344 11.1278 21.3907 10.8777C21.8594 10.6902 22.3125 10.4714 22.7969 10.2994C23.4844 10.0494 23.8438 10.1744 24.2188 10.8152C24.625 11.4872 25 12.1749 25.375 12.8626C25.7032 13.4565 25.625 13.816 25.125 14.2536C24.125 15.1444 24.125 15.1444 24.7188 16.3791C27.2344 21.6305 29.75 26.8819 32.2657 32.1176C32.8594 33.3523 32.5469 33.8524 31.1563 33.8681C28.4063 33.8837 25.6875 33.8681 22.9688 33.8681ZM22.9688 32.1176C25.2344 32.1176 27.5 32.102 29.7657 32.1176C30.2657 32.1176 30.3282 31.9926 30.1094 31.555C27.8282 26.8506 25.5782 22.1306 23.3125 17.4107C23.2188 17.2387 23.2032 16.9262 22.9532 16.9418C22.7657 16.9574 22.7344 17.2387 22.6407 17.4107C20.3907 22.115 18.125 26.8037 15.875 31.5081C15.6094 32.0707 15.625 32.1176 16.2813 32.1176C18.5157 32.1176 20.7344 32.1176 22.9688 32.1176ZM16.4587 22.3944C16.5367 23.2572 17.9873 23.2484 18.3438 22.4588V22.4588C19.5 19.9895 20.7188 17.5357 21.8907 15.0663C22.1719 14.488 22.5157 13.9879 23.0782 13.6597C23.5625 13.3784 23.5625 13.0814 23.2813 12.6282C23.0313 12.2218 22.8125 12.0499 22.3594 12.3C22.0938 12.4562 21.7813 12.5188 21.5 12.6594C20.9219 12.9407 20.3907 12.9564 19.9063 12.4406C19.6563 12.1905 19.3282 12.0499 18.9844 11.9405C18.4844 11.7686 18.2032 11.456 18.1563 10.9246C18.125 10.4714 18.0313 10.0337 17.9688 9.59612C17.9375 9.39294 17.8907 9.23665 17.6407 9.18977C16.8438 9.01785 16.5313 9.2054 16.4688 10.0025C16.3907 11.0027 16.0469 11.6435 15.0782 12.2374C14 12.8939 13.1719 12.8939 12.1875 12.3468C12.1563 12.3312 12.1094 12.3156 12.0782 12.3C11.6875 12.0499 11.4688 12.2218 11.2344 12.5813C10.9219 13.0658 10.9375 13.4096 11.4688 13.7222C12.3768 14.261 13.0574 14.9362 12.7194 16.1213C12.7091 16.1574 12.6915 16.1931 12.6915 16.2307V16.2307C12.6915 16.2682 12.7091 16.3038 12.7193 16.3399C12.9964 17.3232 12.4703 17.9195 11.7032 18.3953C11.5938 18.4734 11.5 18.5672 11.375 18.6454C10.9532 18.8798 10.9063 19.1299 11.1563 19.5831C11.4375 20.0832 11.7188 20.2239 12.2188 19.9426C12.4688 19.8019 12.7657 19.7238 13.0313 19.6144C13.5938 19.3487 14.0938 19.3174 14.5625 19.8332C14.7188 20.0051 14.9844 20.1301 15.2188 20.2083C16.0157 20.4583 16.4063 20.9741 16.3907 21.8024C16.3907 21.9743 16.4532 22.1463 16.4532 22.3182C16.4546 22.3441 16.4564 22.3695 16.4587 22.3944Z" fill="url(#paint5_radial_325_2497)"/>
<path d="M22.1719 23.5529C22.1719 22.7402 22.1562 21.9118 22.1719 21.0991C22.1875 20.474 22.4531 20.1614 22.9687 20.1614C23.4844 20.1614 23.8125 20.4427 23.8281 21.0522C23.8594 22.7558 23.8437 24.4437 23.8281 26.1473C23.8281 26.71 23.4219 27.0851 22.9687 27.0694C22.5156 27.0382 22.1875 26.6631 22.1875 26.0848C22.1562 25.2408 22.1719 24.3969 22.1719 23.5529Z" fill="url(#paint6_linear_325_2497)"/>
<path d="M22.1719 23.5529C22.1719 22.7402 22.1562 21.9118 22.1719 21.0991C22.1875 20.474 22.4531 20.1614 22.9687 20.1614C23.4844 20.1614 23.8125 20.4427 23.8281 21.0522C23.8594 22.7558 23.8437 24.4437 23.8281 26.1473C23.8281 26.71 23.4219 27.0851 22.9687 27.0694C22.5156 27.0382 22.1875 26.6631 22.1875 26.0848C22.1562 25.2408 22.1719 24.3969 22.1719 23.5529Z" fill="url(#paint7_radial_325_2497)"/>
<path d="M22.1719 23.5529C22.1719 22.7402 22.1562 21.9118 22.1719 21.0991C22.1875 20.474 22.4531 20.1614 22.9687 20.1614C23.4844 20.1614 23.8125 20.4427 23.8281 21.0522C23.8594 22.7558 23.8437 24.4437 23.8281 26.1473C23.8281 26.71 23.4219 27.0851 22.9687 27.0694C22.5156 27.0382 22.1875 26.6631 22.1875 26.0848C22.1562 25.2408 22.1719 24.3969 22.1719 23.5529Z" fill="url(#paint8_radial_325_2497)"/>
<path d="M23.8125 29.5388C23.7969 29.9765 23.4063 30.3672 22.9688 30.3515C22.5313 30.3359 22.1719 29.9452 22.1719 29.492C22.1719 29.0231 22.5156 28.6949 23 28.7105C23.4844 28.7261 23.8125 29.07 23.8125 29.5388Z" fill="url(#paint9_linear_325_2497)"/>
<path d="M23.8125 29.5388C23.7969 29.9765 23.4063 30.3672 22.9688 30.3515C22.5313 30.3359 22.1719 29.9452 22.1719 29.492C22.1719 29.0231 22.5156 28.6949 23 28.7105C23.4844 28.7261 23.8125 29.07 23.8125 29.5388Z" fill="url(#paint10_radial_325_2497)"/>
<path d="M23.8125 29.5388C23.7969 29.9765 23.4063 30.3672 22.9688 30.3515C22.5313 30.3359 22.1719 29.9452 22.1719 29.492C22.1719 29.0231 22.5156 28.6949 23 28.7105C23.4844 28.7261 23.8125 29.07 23.8125 29.5388Z" fill="url(#paint11_radial_325_2497)"/>
<path d="M20.0937 16.1135C20.0937 17.6607 18.8281 18.9736 17.2969 19.0048C15.75 19.0361 14.4375 17.7076 14.4375 16.1447C14.4375 14.5818 15.6719 13.3159 17.25 13.3002C18.7656 13.269 20.0781 14.5818 20.0937 16.1135ZM16.1094 16.1291C16.1094 16.7855 16.5937 17.2856 17.25 17.27C17.9062 17.2544 18.3906 16.7543 18.3906 16.1135C18.375 15.4414 17.9062 15.0038 17.2031 15.0194C16.5625 15.0194 16.1094 15.4727 16.1094 16.1291Z" fill="url(#paint12_linear_325_2497)"/>
<path d="M20.0937 16.1135C20.0937 17.6607 18.8281 18.9736 17.2969 19.0048C15.75 19.0361 14.4375 17.7076 14.4375 16.1447C14.4375 14.5818 15.6719 13.3159 17.25 13.3002C18.7656 13.269 20.0781 14.5818 20.0937 16.1135ZM16.1094 16.1291C16.1094 16.7855 16.5937 17.2856 17.25 17.27C17.9062 17.2544 18.3906 16.7543 18.3906 16.1135C18.375 15.4414 17.9062 15.0038 17.2031 15.0194C16.5625 15.0194 16.1094 15.4727 16.1094 16.1291Z" fill="url(#paint13_radial_325_2497)"/>
<path d="M20.0937 16.1135C20.0937 17.6607 18.8281 18.9736 17.2969 19.0048C15.75 19.0361 14.4375 17.7076 14.4375 16.1447C14.4375 14.5818 15.6719 13.3159 17.25 13.3002C18.7656 13.269 20.0781 14.5818 20.0937 16.1135ZM16.1094 16.1291C16.1094 16.7855 16.5937 17.2856 17.25 17.27C17.9062 17.2544 18.3906 16.7543 18.3906 16.1135C18.375 15.4414 17.9062 15.0038 17.2031 15.0194C16.5625 15.0194 16.1094 15.4727 16.1094 16.1291Z" fill="url(#paint14_radial_325_2497)"/>
<defs>
<linearGradient id="paint0_linear_325_2497" x1="24.555" y1="30.5" x2="-6.12" y2="27.0078" gradientUnits="userSpaceOnUse">
<stop stop-color="#8B00FF"/>
<stop offset="1" stop-color="#EB00FF"/>
</linearGradient>
<radialGradient id="paint1_radial_325_2497" cx="0" cy="0" r="1" gradientUnits="userSpaceOnUse" gradientTransform="translate(42.0143 70.3077) rotate(-44.9498) scale(26.1314 25.4002)">
<stop stop-color="#0066FF"/>
<stop offset="1" stop-color="#00E0FF" stop-opacity="0"/>
</radialGradient>
<radialGradient id="paint2_radial_325_2497" cx="0" cy="0" r="1" gradientUnits="userSpaceOnUse" gradientTransform="translate(1.27597 -12.1923) rotate(74.1055) scale(44.3894 48.1237)">
<stop offset="0.0604609" stop-color="#FFF500"/>
<stop offset="1" stop-color="#8B00FF" stop-opacity="0"/>
</radialGradient>
<linearGradient id="paint3_linear_325_2497" x1="18.4137" y1="20.6693" x2="6.31727" y2="19.4388" gradientUnits="userSpaceOnUse">
<stop stop-color="#8B00FF"/>
<stop offset="1" stop-color="#EB00FF"/>
</linearGradient>
<radialGradient id="paint4_radial_325_2497" cx="0" cy="0" r="1" gradientUnits="userSpaceOnUse" gradientTransform="translate(25.2808 38.1923) rotate(-48.1684) scale(10.9066 10.5366)">
<stop stop-color="#0066FF"/>
<stop offset="1" stop-color="#00E0FF" stop-opacity="0"/>
</radialGradient>
<radialGradient id="paint5_radial_325_2497" cx="0" cy="0" r="1" gradientUnits="userSpaceOnUse" gradientTransform="translate(9.25748 1.8766) rotate(75.7247) scale(19.3915 19.0729)">
<stop offset="0.0604609" stop-color="#FFF500"/>
<stop offset="1" stop-color="#8B00FF" stop-opacity="0"/>
</radialGradient>
<linearGradient id="paint6_linear_325_2497" x1="22.839" y1="23.6156" x2="21.9689" y2="23.5915" gradientUnits="userSpaceOnUse">
<stop stop-color="#8B00FF"/>
<stop offset="1" stop-color="#EB00FF"/>
</linearGradient>
<radialGradient id="paint7_radial_325_2497" cx="0" cy="0" r="1" gradientUnits="userSpaceOnUse" gradientTransform="translate(23.3282 28.1992) rotate(-76.2995) scale(2.18795 0.978757)">
<stop stop-color="#0066FF"/>
<stop offset="1" stop-color="#00E0FF" stop-opacity="0"/>
</radialGradient>
<radialGradient id="paint8_radial_325_2497" cx="0" cy="0" r="1" gradientUnits="userSpaceOnUse" gradientTransform="translate(22.1867 18.7) rotate(86.0359) scale(4.92746 1.3987)">
<stop offset="0.0604609" stop-color="#FFF500"/>
<stop offset="1" stop-color="#8B00FF" stop-opacity="0"/>
</radialGradient>
<linearGradient id="paint9_linear_325_2497" x1="22.8296" y1="29.531" x2="21.9908" y2="29.4356" gradientUnits="userSpaceOnUse">
<stop stop-color="#8B00FF"/>
<stop offset="1" stop-color="#EB00FF"/>
</linearGradient>
<radialGradient id="paint10_radial_325_2497" cx="0" cy="0" r="1" gradientUnits="userSpaceOnUse" gradientTransform="translate(23.307 30.6204) rotate(-44.9745) scale(0.71484 0.694838)">
<stop stop-color="#0066FF"/>
<stop offset="1" stop-color="#00E0FF" stop-opacity="0"/>
</radialGradient>
<radialGradient id="paint11_radial_325_2497" cx="0" cy="0" r="1" gradientUnits="userSpaceOnUse" gradientTransform="translate(22.1931 28.3626) rotate(74.1185) scale(1.21474 1.31597)">
<stop offset="0.0604609" stop-color="#FFF500"/>
<stop offset="1" stop-color="#8B00FF" stop-opacity="0"/>
</radialGradient>
<linearGradient id="paint12_linear_325_2497" x1="16.7052" y1="16.1525" x2="13.8128" y2="15.8261" gradientUnits="userSpaceOnUse">
<stop stop-color="#8B00FF"/>
<stop offset="1" stop-color="#EB00FF"/>
</linearGradient>
<radialGradient id="paint13_radial_325_2497" cx="0" cy="0" r="1" gradientUnits="userSpaceOnUse" gradientTransform="translate(18.3511 19.938) rotate(-45.1992) scale(2.47421 2.40492)">
<stop stop-color="#0066FF"/>
<stop offset="1" stop-color="#00E0FF" stop-opacity="0"/>
</radialGradient>
<radialGradient id="paint14_radial_325_2497" cx="0" cy="0" r="1" gradientUnits="userSpaceOnUse" gradientTransform="translate(14.5107 12.0927) rotate(74.2363) scale(4.21848 4.5396)">
<stop offset="0.0604609" stop-color="#FFF500"/>
<stop offset="1" stop-color="#8B00FF" stop-opacity="0"/>
</radialGradient>
</defs>
</svg>
