<svg width="61" height="61" viewBox="0 0 61 61" fill="none" xmlns="http://www.w3.org/2000/svg">
<g clip-path="url(#clip0_325_2506)">
<path d="M48.5799 60.4977C47.7848 60.5023 46.9885 60.4477 46.2115 60.2794C45.288 60.0794 44.3838 59.8085 43.526 59.3906C42.3697 58.8281 41.3072 58.1562 40.4166 57.2188C40.0729 56.8594 39.7135 56.7344 39.2291 56.75C38.026 56.7812 36.8072 56.7656 35.6041 56.75C34.7604 56.75 34.4947 56.5 34.3854 55.6562C34.1666 54.0156 33.9479 52.375 33.7447 50.7188C33.6979 50.2656 33.5104 49.9844 33.0729 49.8125C32.1666 49.4375 31.3229 48.9375 30.5416 48.3438C30.276 48.125 30.0416 48.1406 29.7447 48.2656C28.1666 48.9219 26.5729 49.5781 24.9791 50.2188C24.151 50.5469 23.8697 50.4688 23.4322 49.7188C22.4166 47.9844 21.4166 46.2344 20.4166 44.4844C20.0104 43.7812 20.1041 43.4219 20.7447 42.9219C22.1041 41.875 23.4635 40.8125 24.8385 39.7812C25.1197 39.5625 25.2135 39.3594 25.1822 39C25.0729 37.9844 25.0572 36.9688 25.1822 35.9688C25.2291 35.6094 25.1354 35.3906 24.8541 35.1719C23.4791 34.1406 22.1197 33.0938 20.7604 32.0312C20.1041 31.5312 20.026 31.1719 20.4322 30.4844C21.4322 28.7344 22.4322 26.9844 23.4322 25.25C23.8697 24.5 24.151 24.4063 24.9791 24.7344C26.4947 25.3438 28.026 25.9531 29.526 26.6094C29.9947 26.8125 30.3385 26.7969 30.7447 26.4688C31.4166 25.9375 32.1666 25.4844 32.9635 25.1875C33.4635 25 33.6979 24.6875 33.7604 24.1719C33.9479 22.5781 34.1666 21 34.3697 19.4063C34.4947 18.4844 34.7604 18.2031 35.6822 18.1875C37.6354 18.1719 39.5885 18.1719 41.5416 18.1875C42.4322 18.1875 42.7135 18.4844 42.8385 19.3594C43.0572 21.0156 43.3072 22.6875 43.5104 24.3438C43.5572 24.7188 43.6979 24.9375 44.0572 25.0781C44.9479 25.4375 45.776 25.9219 46.5416 26.5156C46.9166 26.8125 47.2447 26.8125 47.6666 26.6406C49.1354 26.0156 50.6197 25.4063 52.1041 24.7969C53.1197 24.375 53.3541 24.4688 53.901 25.4219C54.8541 27.0781 55.8072 28.7344 56.776 30.3906C57.2135 31.1406 57.1666 31.5 56.4635 32.0469C55.1822 33.0469 53.901 34.0313 52.6041 35C52.1822 35.3125 52.0729 35.6563 52.0416 36.2188C51.9791 37.3594 52.526 37.7812 53.4791 38.2188C57.1041 39.9062 59.2447 42.8281 60.0572 46.7344C60.1203 47.0809 60.1822 47.4285 60.1822 47.7807C60.1822 48.3895 60.1822 48.9983 60.1822 49.6071C60.1822 50.0657 60.1221 50.5203 60.026 50.9688C58.8854 55.875 55.901 58.9688 51.0104 60.2188C50.8982 60.2458 50.7861 60.271 50.6737 60.2947C49.986 60.4398 49.2826 60.4935 48.5799 60.4977ZM37.2916 55.0781C37.5416 55.0781 37.8072 55.0625 38.0572 55.0781C38.5104 55.1094 38.5572 54.9531 38.3385 54.5781C36.8854 52 36.4947 49.2656 37.0572 46.375C37.1354 45.9688 37.0572 45.8125 36.6197 45.6875C33.3697 44.8125 31.1979 42.7656 30.4166 39.4844C29.6041 36.0781 30.6354 33.1875 33.3072 30.9375C36.6666 28.0781 42.0729 28.5625 44.9322 31.9062C46.0416 33.2031 46.7291 34.6719 46.9791 36.375C47.1041 37.2188 47.1041 37.2188 47.9322 37.1094C48.3229 37.0625 48.7135 37.0937 49.1041 37.125C50.6041 37.2188 50.5729 37.5156 50.3229 35.9375C50.1979 35.1094 50.401 34.5469 51.1197 34.0469C52.3385 33.1875 53.4635 32.2344 54.651 31.3437C55.0729 31.0312 55.0729 30.7969 54.8229 30.375C54.151 29.2812 53.4947 28.1563 52.8854 27.0313C52.6354 26.5781 52.3697 26.5 51.901 26.7031C50.5104 27.3125 49.0729 27.8438 47.6822 28.4688C47.0104 28.7656 46.5104 28.6719 45.9635 28.2344C45.0416 27.4844 44.026 26.8281 42.8854 26.4531C42.2604 26.25 41.9791 25.8438 41.901 25.2188C41.7135 23.6719 41.4791 22.125 41.3072 20.5781C41.2604 20.1406 41.1197 19.9531 40.6666 19.9531C39.3072 19.9688 37.9322 19.9688 36.5729 19.9531C36.151 19.9531 35.9947 20.125 35.9322 20.5312C35.7447 22.0625 35.5104 23.5938 35.3541 25.125C35.276 25.8281 34.9635 26.2656 34.2916 26.5156C33.1041 26.9375 32.026 27.5625 31.0729 28.3906C30.6822 28.7344 30.2604 28.7813 29.776 28.5625C28.2916 27.9219 26.776 27.3438 25.2916 26.7031C24.8697 26.5156 24.6197 26.5938 24.3854 27C23.7291 28.1719 23.0729 29.3438 22.3697 30.5C22.1354 30.875 22.2291 31.0781 22.5416 31.3125C23.7604 32.2344 24.9322 33.2031 26.1666 34.0938C26.7604 34.5156 27.0104 35.0156 26.9166 35.7344C26.7604 36.9844 26.6979 38.2188 26.9322 39.4688C27.0416 40.0469 26.8229 40.4219 26.3697 40.7656C25.1041 41.7188 23.8697 42.7031 22.6041 43.6563C22.2135 43.9531 22.1197 44.1719 22.3854 44.6094C23.0729 45.7344 23.7447 46.8906 24.3854 48.0625C24.6041 48.4531 24.8072 48.5156 25.2135 48.3438C26.651 47.7344 28.1041 47.1719 29.5416 46.5469C30.1979 46.25 30.7291 46.3438 31.2604 46.7813C32.1822 47.5156 33.151 48.1719 34.276 48.5469C34.9791 48.7812 35.2447 49.2344 35.3229 49.9219C35.4635 51.2344 35.651 52.5625 35.8229 53.875C36.0104 55.0781 36.026 55.0781 37.2916 55.0781ZM48.5416 38.8125C43.0104 38.8125 38.5104 43.2656 38.5104 48.7344C38.5104 54.3125 42.9635 58.8125 48.4791 58.8125C54.0104 58.8125 58.5104 54.3125 58.5104 48.7969C58.5104 43.2969 54.0416 38.8125 48.5416 38.8125ZM38.0572 30.75C36.6666 30.7656 34.9791 31.4531 33.651 32.9375C31.9322 34.875 31.3854 37.1094 32.1822 39.5781C32.9635 42.0156 34.6979 43.5 37.1979 44.1094C37.6041 44.2031 37.7916 44.0938 37.9791 43.7344C39.4479 40.7656 41.7604 38.7656 44.8854 37.7031C45.3072 37.5625 45.4166 37.3438 45.3854 36.9219C45.0729 33.4531 42.1197 30.75 38.0572 30.75Z" fill="url(#paint0_linear_325_2506)"/>
<path d="M48.5799 60.4977C47.7848 60.5023 46.9885 60.4477 46.2115 60.2794C45.288 60.0794 44.3838 59.8085 43.526 59.3906C42.3697 58.8281 41.3072 58.1562 40.4166 57.2188C40.0729 56.8594 39.7135 56.7344 39.2291 56.75C38.026 56.7812 36.8072 56.7656 35.6041 56.75C34.7604 56.75 34.4947 56.5 34.3854 55.6562C34.1666 54.0156 33.9479 52.375 33.7447 50.7188C33.6979 50.2656 33.5104 49.9844 33.0729 49.8125C32.1666 49.4375 31.3229 48.9375 30.5416 48.3438C30.276 48.125 30.0416 48.1406 29.7447 48.2656C28.1666 48.9219 26.5729 49.5781 24.9791 50.2188C24.151 50.5469 23.8697 50.4688 23.4322 49.7188C22.4166 47.9844 21.4166 46.2344 20.4166 44.4844C20.0104 43.7812 20.1041 43.4219 20.7447 42.9219C22.1041 41.875 23.4635 40.8125 24.8385 39.7812C25.1197 39.5625 25.2135 39.3594 25.1822 39C25.0729 37.9844 25.0572 36.9688 25.1822 35.9688C25.2291 35.6094 25.1354 35.3906 24.8541 35.1719C23.4791 34.1406 22.1197 33.0938 20.7604 32.0312C20.1041 31.5312 20.026 31.1719 20.4322 30.4844C21.4322 28.7344 22.4322 26.9844 23.4322 25.25C23.8697 24.5 24.151 24.4063 24.9791 24.7344C26.4947 25.3438 28.026 25.9531 29.526 26.6094C29.9947 26.8125 30.3385 26.7969 30.7447 26.4688C31.4166 25.9375 32.1666 25.4844 32.9635 25.1875C33.4635 25 33.6979 24.6875 33.7604 24.1719C33.9479 22.5781 34.1666 21 34.3697 19.4063C34.4947 18.4844 34.7604 18.2031 35.6822 18.1875C37.6354 18.1719 39.5885 18.1719 41.5416 18.1875C42.4322 18.1875 42.7135 18.4844 42.8385 19.3594C43.0572 21.0156 43.3072 22.6875 43.5104 24.3438C43.5572 24.7188 43.6979 24.9375 44.0572 25.0781C44.9479 25.4375 45.776 25.9219 46.5416 26.5156C46.9166 26.8125 47.2447 26.8125 47.6666 26.6406C49.1354 26.0156 50.6197 25.4063 52.1041 24.7969C53.1197 24.375 53.3541 24.4688 53.901 25.4219C54.8541 27.0781 55.8072 28.7344 56.776 30.3906C57.2135 31.1406 57.1666 31.5 56.4635 32.0469C55.1822 33.0469 53.901 34.0313 52.6041 35C52.1822 35.3125 52.0729 35.6563 52.0416 36.2188C51.9791 37.3594 52.526 37.7812 53.4791 38.2188C57.1041 39.9062 59.2447 42.8281 60.0572 46.7344C60.1203 47.0809 60.1822 47.4285 60.1822 47.7807C60.1822 48.3895 60.1822 48.9983 60.1822 49.6071C60.1822 50.0657 60.1221 50.5203 60.026 50.9688C58.8854 55.875 55.901 58.9688 51.0104 60.2188C50.8982 60.2458 50.7861 60.271 50.6737 60.2947C49.986 60.4398 49.2826 60.4935 48.5799 60.4977ZM37.2916 55.0781C37.5416 55.0781 37.8072 55.0625 38.0572 55.0781C38.5104 55.1094 38.5572 54.9531 38.3385 54.5781C36.8854 52 36.4947 49.2656 37.0572 46.375C37.1354 45.9688 37.0572 45.8125 36.6197 45.6875C33.3697 44.8125 31.1979 42.7656 30.4166 39.4844C29.6041 36.0781 30.6354 33.1875 33.3072 30.9375C36.6666 28.0781 42.0729 28.5625 44.9322 31.9062C46.0416 33.2031 46.7291 34.6719 46.9791 36.375C47.1041 37.2188 47.1041 37.2188 47.9322 37.1094C48.3229 37.0625 48.7135 37.0937 49.1041 37.125C50.6041 37.2188 50.5729 37.5156 50.3229 35.9375C50.1979 35.1094 50.401 34.5469 51.1197 34.0469C52.3385 33.1875 53.4635 32.2344 54.651 31.3437C55.0729 31.0312 55.0729 30.7969 54.8229 30.375C54.151 29.2812 53.4947 28.1563 52.8854 27.0313C52.6354 26.5781 52.3697 26.5 51.901 26.7031C50.5104 27.3125 49.0729 27.8438 47.6822 28.4688C47.0104 28.7656 46.5104 28.6719 45.9635 28.2344C45.0416 27.4844 44.026 26.8281 42.8854 26.4531C42.2604 26.25 41.9791 25.8438 41.901 25.2188C41.7135 23.6719 41.4791 22.125 41.3072 20.5781C41.2604 20.1406 41.1197 19.9531 40.6666 19.9531C39.3072 19.9688 37.9322 19.9688 36.5729 19.9531C36.151 19.9531 35.9947 20.125 35.9322 20.5312C35.7447 22.0625 35.5104 23.5938 35.3541 25.125C35.276 25.8281 34.9635 26.2656 34.2916 26.5156C33.1041 26.9375 32.026 27.5625 31.0729 28.3906C30.6822 28.7344 30.2604 28.7813 29.776 28.5625C28.2916 27.9219 26.776 27.3438 25.2916 26.7031C24.8697 26.5156 24.6197 26.5938 24.3854 27C23.7291 28.1719 23.0729 29.3438 22.3697 30.5C22.1354 30.875 22.2291 31.0781 22.5416 31.3125C23.7604 32.2344 24.9322 33.2031 26.1666 34.0938C26.7604 34.5156 27.0104 35.0156 26.9166 35.7344C26.7604 36.9844 26.6979 38.2188 26.9322 39.4688C27.0416 40.0469 26.8229 40.4219 26.3697 40.7656C25.1041 41.7188 23.8697 42.7031 22.6041 43.6563C22.2135 43.9531 22.1197 44.1719 22.3854 44.6094C23.0729 45.7344 23.7447 46.8906 24.3854 48.0625C24.6041 48.4531 24.8072 48.5156 25.2135 48.3438C26.651 47.7344 28.1041 47.1719 29.5416 46.5469C30.1979 46.25 30.7291 46.3438 31.2604 46.7813C32.1822 47.5156 33.151 48.1719 34.276 48.5469C34.9791 48.7812 35.2447 49.2344 35.3229 49.9219C35.4635 51.2344 35.651 52.5625 35.8229 53.875C36.0104 55.0781 36.026 55.0781 37.2916 55.0781ZM48.5416 38.8125C43.0104 38.8125 38.5104 43.2656 38.5104 48.7344C38.5104 54.3125 42.9635 58.8125 48.4791 58.8125C54.0104 58.8125 58.5104 54.3125 58.5104 48.7969C58.5104 43.2969 54.0416 38.8125 48.5416 38.8125ZM38.0572 30.75C36.6666 30.7656 34.9791 31.4531 33.651 32.9375C31.9322 34.875 31.3854 37.1094 32.1822 39.5781C32.9635 42.0156 34.6979 43.5 37.1979 44.1094C37.6041 44.2031 37.7916 44.0938 37.9791 43.7344C39.4479 40.7656 41.7604 38.7656 44.8854 37.7031C45.3072 37.5625 45.4166 37.3438 45.3854 36.9219C45.0729 33.4531 42.1197 30.75 38.0572 30.75Z" fill="url(#paint1_radial_325_2506)"/>
<path d="M48.5799 60.4977C47.7848 60.5023 46.9885 60.4477 46.2115 60.2794C45.288 60.0794 44.3838 59.8085 43.526 59.3906C42.3697 58.8281 41.3072 58.1562 40.4166 57.2188C40.0729 56.8594 39.7135 56.7344 39.2291 56.75C38.026 56.7812 36.8072 56.7656 35.6041 56.75C34.7604 56.75 34.4947 56.5 34.3854 55.6562C34.1666 54.0156 33.9479 52.375 33.7447 50.7188C33.6979 50.2656 33.5104 49.9844 33.0729 49.8125C32.1666 49.4375 31.3229 48.9375 30.5416 48.3438C30.276 48.125 30.0416 48.1406 29.7447 48.2656C28.1666 48.9219 26.5729 49.5781 24.9791 50.2188C24.151 50.5469 23.8697 50.4688 23.4322 49.7188C22.4166 47.9844 21.4166 46.2344 20.4166 44.4844C20.0104 43.7812 20.1041 43.4219 20.7447 42.9219C22.1041 41.875 23.4635 40.8125 24.8385 39.7812C25.1197 39.5625 25.2135 39.3594 25.1822 39C25.0729 37.9844 25.0572 36.9688 25.1822 35.9688C25.2291 35.6094 25.1354 35.3906 24.8541 35.1719C23.4791 34.1406 22.1197 33.0938 20.7604 32.0312C20.1041 31.5312 20.026 31.1719 20.4322 30.4844C21.4322 28.7344 22.4322 26.9844 23.4322 25.25C23.8697 24.5 24.151 24.4063 24.9791 24.7344C26.4947 25.3438 28.026 25.9531 29.526 26.6094C29.9947 26.8125 30.3385 26.7969 30.7447 26.4688C31.4166 25.9375 32.1666 25.4844 32.9635 25.1875C33.4635 25 33.6979 24.6875 33.7604 24.1719C33.9479 22.5781 34.1666 21 34.3697 19.4063C34.4947 18.4844 34.7604 18.2031 35.6822 18.1875C37.6354 18.1719 39.5885 18.1719 41.5416 18.1875C42.4322 18.1875 42.7135 18.4844 42.8385 19.3594C43.0572 21.0156 43.3072 22.6875 43.5104 24.3438C43.5572 24.7188 43.6979 24.9375 44.0572 25.0781C44.9479 25.4375 45.776 25.9219 46.5416 26.5156C46.9166 26.8125 47.2447 26.8125 47.6666 26.6406C49.1354 26.0156 50.6197 25.4063 52.1041 24.7969C53.1197 24.375 53.3541 24.4688 53.901 25.4219C54.8541 27.0781 55.8072 28.7344 56.776 30.3906C57.2135 31.1406 57.1666 31.5 56.4635 32.0469C55.1822 33.0469 53.901 34.0313 52.6041 35C52.1822 35.3125 52.0729 35.6563 52.0416 36.2188C51.9791 37.3594 52.526 37.7812 53.4791 38.2188C57.1041 39.9062 59.2447 42.8281 60.0572 46.7344C60.1203 47.0809 60.1822 47.4285 60.1822 47.7807C60.1822 48.3895 60.1822 48.9983 60.1822 49.6071C60.1822 50.0657 60.1221 50.5203 60.026 50.9688C58.8854 55.875 55.901 58.9688 51.0104 60.2188C50.8982 60.2458 50.7861 60.271 50.6737 60.2947C49.986 60.4398 49.2826 60.4935 48.5799 60.4977ZM37.2916 55.0781C37.5416 55.0781 37.8072 55.0625 38.0572 55.0781C38.5104 55.1094 38.5572 54.9531 38.3385 54.5781C36.8854 52 36.4947 49.2656 37.0572 46.375C37.1354 45.9688 37.0572 45.8125 36.6197 45.6875C33.3697 44.8125 31.1979 42.7656 30.4166 39.4844C29.6041 36.0781 30.6354 33.1875 33.3072 30.9375C36.6666 28.0781 42.0729 28.5625 44.9322 31.9062C46.0416 33.2031 46.7291 34.6719 46.9791 36.375C47.1041 37.2188 47.1041 37.2188 47.9322 37.1094C48.3229 37.0625 48.7135 37.0937 49.1041 37.125C50.6041 37.2188 50.5729 37.5156 50.3229 35.9375C50.1979 35.1094 50.401 34.5469 51.1197 34.0469C52.3385 33.1875 53.4635 32.2344 54.651 31.3437C55.0729 31.0312 55.0729 30.7969 54.8229 30.375C54.151 29.2812 53.4947 28.1563 52.8854 27.0313C52.6354 26.5781 52.3697 26.5 51.901 26.7031C50.5104 27.3125 49.0729 27.8438 47.6822 28.4688C47.0104 28.7656 46.5104 28.6719 45.9635 28.2344C45.0416 27.4844 44.026 26.8281 42.8854 26.4531C42.2604 26.25 41.9791 25.8438 41.901 25.2188C41.7135 23.6719 41.4791 22.125 41.3072 20.5781C41.2604 20.1406 41.1197 19.9531 40.6666 19.9531C39.3072 19.9688 37.9322 19.9688 36.5729 19.9531C36.151 19.9531 35.9947 20.125 35.9322 20.5312C35.7447 22.0625 35.5104 23.5938 35.3541 25.125C35.276 25.8281 34.9635 26.2656 34.2916 26.5156C33.1041 26.9375 32.026 27.5625 31.0729 28.3906C30.6822 28.7344 30.2604 28.7813 29.776 28.5625C28.2916 27.9219 26.776 27.3438 25.2916 26.7031C24.8697 26.5156 24.6197 26.5938 24.3854 27C23.7291 28.1719 23.0729 29.3438 22.3697 30.5C22.1354 30.875 22.2291 31.0781 22.5416 31.3125C23.7604 32.2344 24.9322 33.2031 26.1666 34.0938C26.7604 34.5156 27.0104 35.0156 26.9166 35.7344C26.7604 36.9844 26.6979 38.2188 26.9322 39.4688C27.0416 40.0469 26.8229 40.4219 26.3697 40.7656C25.1041 41.7188 23.8697 42.7031 22.6041 43.6563C22.2135 43.9531 22.1197 44.1719 22.3854 44.6094C23.0729 45.7344 23.7447 46.8906 24.3854 48.0625C24.6041 48.4531 24.8072 48.5156 25.2135 48.3438C26.651 47.7344 28.1041 47.1719 29.5416 46.5469C30.1979 46.25 30.7291 46.3438 31.2604 46.7813C32.1822 47.5156 33.151 48.1719 34.276 48.5469C34.9791 48.7812 35.2447 49.2344 35.3229 49.9219C35.4635 51.2344 35.651 52.5625 35.8229 53.875C36.0104 55.0781 36.026 55.0781 37.2916 55.0781ZM48.5416 38.8125C43.0104 38.8125 38.5104 43.2656 38.5104 48.7344C38.5104 54.3125 42.9635 58.8125 48.4791 58.8125C54.0104 58.8125 58.5104 54.3125 58.5104 48.7969C58.5104 43.2969 54.0416 38.8125 48.5416 38.8125ZM38.0572 30.75C36.6666 30.7656 34.9791 31.4531 33.651 32.9375C31.9322 34.875 31.3854 37.1094 32.1822 39.5781C32.9635 42.0156 34.6979 43.5 37.1979 44.1094C37.6041 44.2031 37.7916 44.0938 37.9791 43.7344C39.4479 40.7656 41.7604 38.7656 44.8854 37.7031C45.3072 37.5625 45.4166 37.3438 45.3854 36.9219C45.0729 33.4531 42.1197 30.75 38.0572 30.75Z" fill="url(#paint2_radial_325_2506)"/>
<path d="M14.7676 0.500289C15.6397 0.499723 16.6452 0.756971 16.7292 1.625C16.8229 2.5625 16.9636 3.48438 17.0886 4.40625C17.1354 4.8125 17.2604 5.15625 17.7136 5.28125C17.8542 5.32812 18.0104 5.39062 18.1198 5.5C18.9323 6.26562 19.7761 6.21875 20.7136 5.70312C21.3386 5.35938 22.0417 5.14062 22.7136 4.85938C23.2292 4.64062 23.6511 4.75 23.9323 5.21875C24.6823 6.48438 25.4167 7.75 26.1354 9.01562C26.4323 9.53125 26.1823 9.90625 25.7761 10.2344C24.9792 10.8594 24.1823 11.4844 23.3698 12.0938C23.0573 12.3281 22.9636 12.5938 22.9167 12.9844C22.7292 14.375 23.1042 15.4375 24.4011 16.1094C24.9167 16.375 25.3542 16.7969 25.8073 17.1719C26.3073 17.5781 26.3854 17.9375 26.0729 18.5C25.3854 19.7031 24.6979 20.9062 23.9948 22.1094C23.6823 22.6406 23.3229 22.7656 22.6979 22.5156C21.7136 22.125 20.7448 21.7344 19.7761 21.3125C19.4479 21.1719 19.2136 21.1719 18.9167 21.3906C18.5729 21.6406 18.1979 21.8906 17.8073 22.0312C17.2761 22.2344 17.1198 22.5938 17.0729 23.0938C16.9636 24.0469 16.8386 24.9844 16.6979 25.9375C16.6042 26.5938 16.3229 26.8594 15.6511 26.875C14.3073 26.8906 12.9636 26.8906 11.6042 26.875C10.8698 26.875 10.5886 26.6094 10.4792 25.8906C10.3386 24.9062 10.2136 23.9219 10.1042 22.9375C10.0573 22.5469 9.90105 22.2969 9.54168 22.125C9.21355 21.9844 8.88543 21.8281 8.6198 21.6094C8.1198 21.1875 7.65105 21.1719 7.07293 21.4531C6.26043 21.8438 5.41668 22.1562 4.58855 22.5C3.8698 22.7969 3.5573 22.7031 3.16668 22.0625C2.4948 20.9219 1.82293 19.7656 1.16668 18.6094C0.776053 17.9219 0.869803 17.5781 1.47918 17.1094C2.22918 16.5312 2.9948 15.9375 3.7448 15.3594C3.83855 15.2812 3.9323 15.2188 4.01043 15.1406C4.40105 14.75 4.29168 12.5156 3.85418 12.1875C3.0573 11.5625 2.2448 10.9531 1.44793 10.3281C0.838553 9.85938 0.760428 9.48438 1.15105 8.8125C1.8073 7.67188 2.46355 6.54688 3.1198 5.42188C3.51043 4.76562 3.82293 4.65625 4.52605 4.9375C5.4323 5.29688 6.33855 5.67188 7.22918 6.0625C7.65105 6.25 7.9948 6.28125 8.3698 5.96875C8.52605 5.82812 8.71355 5.6875 8.91668 5.625C9.8073 5.34375 10.1354 4.71875 10.1667 3.82812C10.1979 3.10938 10.3542 2.39062 10.4167 1.67188C10.5033 0.80544 11.4808 0.510698 12.3516 0.506333C13.1637 0.502262 13.9662 0.500808 14.7676 0.500289ZM13.6198 25.2188C13.9323 25.2188 14.2448 25.2031 14.5573 25.2188C14.9792 25.25 15.1354 25.0781 15.1823 24.6562C15.2604 23.7969 15.4323 22.9531 15.4948 22.1094C15.5417 21.4844 15.8229 21.0938 16.3854 20.8594C17.1042 20.5469 17.8073 20.2031 18.4011 19.6875C18.8386 19.3125 19.2917 19.2969 19.8073 19.5156C20.6354 19.875 21.4792 20.1875 22.2917 20.5625C22.7136 20.75 22.9167 20.6562 23.1198 20.2656C23.4167 19.6875 23.7448 19.1406 24.0886 18.5938C24.2917 18.2812 24.2448 18.0938 23.9479 17.875C23.2136 17.3438 22.4948 16.75 21.7604 16.2188C21.2604 15.8594 21.0886 15.4219 21.1979 14.7969C21.3386 14.0938 21.3386 13.3438 21.1979 12.6406C21.0886 12.0469 21.2292 11.6094 21.6979 11.25C22.4479 10.6875 23.1823 10.0938 23.9323 9.54688C24.2292 9.32812 24.2917 9.14062 24.0886 8.82812C23.7604 8.29688 23.4323 7.76562 23.1511 7.20312C22.9479 6.78125 22.6979 6.6875 22.2604 6.875C21.4792 7.21875 20.6667 7.5 19.8854 7.875C19.2917 8.15625 18.8073 8.0625 18.3073 7.6875C17.6667 7.20312 16.9948 6.76563 16.2292 6.5C15.7448 6.32812 15.5573 5.95312 15.4948 5.46875C15.3854 4.54688 15.2448 3.60938 15.1354 2.6875C15.1042 2.35938 14.9792 2.17188 14.6354 2.1875C13.9323 2.1875 13.2292 2.1875 12.5261 2.1875C12.1823 2.1875 12.0417 2.34375 11.9948 2.67188C11.8854 3.57812 11.7292 4.48438 11.6511 5.40625C11.6042 5.98438 11.3386 6.32812 10.8229 6.5625C10.0886 6.89062 9.3698 7.21875 8.7448 7.75C8.32293 8.10938 7.88543 8.14062 7.38543 7.92188C6.58855 7.5625 5.76043 7.26562 4.96355 6.90625C4.52605 6.70312 4.2448 6.76563 4.01043 7.20312C3.72918 7.76562 3.41668 8.29688 3.07293 8.82812C2.8698 9.14062 2.9323 9.32812 3.22918 9.54688C3.97918 10.0781 4.6823 10.6719 5.41668 11.2031C5.88543 11.5312 6.07293 11.9531 5.97918 12.5156C5.83855 13.3125 5.83855 14.1094 5.97918 14.9062C6.07293 15.4687 5.8698 15.8906 5.41668 16.2188C4.71355 16.7344 4.02605 17.2969 3.3073 17.7969C2.91668 18.0781 2.88543 18.3281 3.13543 18.7031C3.47918 19.2344 3.77605 19.7656 4.07293 20.3281C4.26043 20.6875 4.47918 20.7344 4.83855 20.5781C5.66668 20.2188 6.4948 19.9062 7.32293 19.5312C7.8698 19.2812 8.32293 19.3438 8.79168 19.7031C9.46355 20.2031 10.1667 20.6562 10.9792 20.9375C11.4011 21.0938 11.5729 21.4219 11.6198 21.8438C11.6979 22.4375 11.7761 23.0469 11.8542 23.6406C12.1667 25.4844 11.8073 25.1875 13.6198 25.2188Z" fill="url(#paint3_linear_325_2506)"/>
<path d="M14.7676 0.500289C15.6397 0.499723 16.6452 0.756971 16.7292 1.625C16.8229 2.5625 16.9636 3.48438 17.0886 4.40625C17.1354 4.8125 17.2604 5.15625 17.7136 5.28125C17.8542 5.32812 18.0104 5.39062 18.1198 5.5C18.9323 6.26562 19.7761 6.21875 20.7136 5.70312C21.3386 5.35938 22.0417 5.14062 22.7136 4.85938C23.2292 4.64062 23.6511 4.75 23.9323 5.21875C24.6823 6.48438 25.4167 7.75 26.1354 9.01562C26.4323 9.53125 26.1823 9.90625 25.7761 10.2344C24.9792 10.8594 24.1823 11.4844 23.3698 12.0938C23.0573 12.3281 22.9636 12.5938 22.9167 12.9844C22.7292 14.375 23.1042 15.4375 24.4011 16.1094C24.9167 16.375 25.3542 16.7969 25.8073 17.1719C26.3073 17.5781 26.3854 17.9375 26.0729 18.5C25.3854 19.7031 24.6979 20.9062 23.9948 22.1094C23.6823 22.6406 23.3229 22.7656 22.6979 22.5156C21.7136 22.125 20.7448 21.7344 19.7761 21.3125C19.4479 21.1719 19.2136 21.1719 18.9167 21.3906C18.5729 21.6406 18.1979 21.8906 17.8073 22.0312C17.2761 22.2344 17.1198 22.5938 17.0729 23.0938C16.9636 24.0469 16.8386 24.9844 16.6979 25.9375C16.6042 26.5938 16.3229 26.8594 15.6511 26.875C14.3073 26.8906 12.9636 26.8906 11.6042 26.875C10.8698 26.875 10.5886 26.6094 10.4792 25.8906C10.3386 24.9062 10.2136 23.9219 10.1042 22.9375C10.0573 22.5469 9.90105 22.2969 9.54168 22.125C9.21355 21.9844 8.88543 21.8281 8.6198 21.6094C8.1198 21.1875 7.65105 21.1719 7.07293 21.4531C6.26043 21.8438 5.41668 22.1562 4.58855 22.5C3.8698 22.7969 3.5573 22.7031 3.16668 22.0625C2.4948 20.9219 1.82293 19.7656 1.16668 18.6094C0.776053 17.9219 0.869803 17.5781 1.47918 17.1094C2.22918 16.5312 2.9948 15.9375 3.7448 15.3594C3.83855 15.2812 3.9323 15.2188 4.01043 15.1406C4.40105 14.75 4.29168 12.5156 3.85418 12.1875C3.0573 11.5625 2.2448 10.9531 1.44793 10.3281C0.838553 9.85938 0.760428 9.48438 1.15105 8.8125C1.8073 7.67188 2.46355 6.54688 3.1198 5.42188C3.51043 4.76562 3.82293 4.65625 4.52605 4.9375C5.4323 5.29688 6.33855 5.67188 7.22918 6.0625C7.65105 6.25 7.9948 6.28125 8.3698 5.96875C8.52605 5.82812 8.71355 5.6875 8.91668 5.625C9.8073 5.34375 10.1354 4.71875 10.1667 3.82812C10.1979 3.10938 10.3542 2.39062 10.4167 1.67188C10.5033 0.80544 11.4808 0.510698 12.3516 0.506333C13.1637 0.502262 13.9662 0.500808 14.7676 0.500289ZM13.6198 25.2188C13.9323 25.2188 14.2448 25.2031 14.5573 25.2188C14.9792 25.25 15.1354 25.0781 15.1823 24.6562C15.2604 23.7969 15.4323 22.9531 15.4948 22.1094C15.5417 21.4844 15.8229 21.0938 16.3854 20.8594C17.1042 20.5469 17.8073 20.2031 18.4011 19.6875C18.8386 19.3125 19.2917 19.2969 19.8073 19.5156C20.6354 19.875 21.4792 20.1875 22.2917 20.5625C22.7136 20.75 22.9167 20.6562 23.1198 20.2656C23.4167 19.6875 23.7448 19.1406 24.0886 18.5938C24.2917 18.2812 24.2448 18.0938 23.9479 17.875C23.2136 17.3438 22.4948 16.75 21.7604 16.2188C21.2604 15.8594 21.0886 15.4219 21.1979 14.7969C21.3386 14.0938 21.3386 13.3438 21.1979 12.6406C21.0886 12.0469 21.2292 11.6094 21.6979 11.25C22.4479 10.6875 23.1823 10.0938 23.9323 9.54688C24.2292 9.32812 24.2917 9.14062 24.0886 8.82812C23.7604 8.29688 23.4323 7.76562 23.1511 7.20312C22.9479 6.78125 22.6979 6.6875 22.2604 6.875C21.4792 7.21875 20.6667 7.5 19.8854 7.875C19.2917 8.15625 18.8073 8.0625 18.3073 7.6875C17.6667 7.20312 16.9948 6.76563 16.2292 6.5C15.7448 6.32812 15.5573 5.95312 15.4948 5.46875C15.3854 4.54688 15.2448 3.60938 15.1354 2.6875C15.1042 2.35938 14.9792 2.17188 14.6354 2.1875C13.9323 2.1875 13.2292 2.1875 12.5261 2.1875C12.1823 2.1875 12.0417 2.34375 11.9948 2.67188C11.8854 3.57812 11.7292 4.48438 11.6511 5.40625C11.6042 5.98438 11.3386 6.32812 10.8229 6.5625C10.0886 6.89062 9.3698 7.21875 8.7448 7.75C8.32293 8.10938 7.88543 8.14062 7.38543 7.92188C6.58855 7.5625 5.76043 7.26562 4.96355 6.90625C4.52605 6.70312 4.2448 6.76563 4.01043 7.20312C3.72918 7.76562 3.41668 8.29688 3.07293 8.82812C2.8698 9.14062 2.9323 9.32812 3.22918 9.54688C3.97918 10.0781 4.6823 10.6719 5.41668 11.2031C5.88543 11.5312 6.07293 11.9531 5.97918 12.5156C5.83855 13.3125 5.83855 14.1094 5.97918 14.9062C6.07293 15.4687 5.8698 15.8906 5.41668 16.2188C4.71355 16.7344 4.02605 17.2969 3.3073 17.7969C2.91668 18.0781 2.88543 18.3281 3.13543 18.7031C3.47918 19.2344 3.77605 19.7656 4.07293 20.3281C4.26043 20.6875 4.47918 20.7344 4.83855 20.5781C5.66668 20.2188 6.4948 19.9062 7.32293 19.5312C7.8698 19.2812 8.32293 19.3438 8.79168 19.7031C9.46355 20.2031 10.1667 20.6562 10.9792 20.9375C11.4011 21.0938 11.5729 21.4219 11.6198 21.8438C11.6979 22.4375 11.7761 23.0469 11.8542 23.6406C12.1667 25.4844 11.8073 25.1875 13.6198 25.2188Z" fill="url(#paint4_radial_325_2506)"/>
<path d="M14.7676 0.500289C15.6397 0.499723 16.6452 0.756971 16.7292 1.625C16.8229 2.5625 16.9636 3.48438 17.0886 4.40625C17.1354 4.8125 17.2604 5.15625 17.7136 5.28125C17.8542 5.32812 18.0104 5.39062 18.1198 5.5C18.9323 6.26562 19.7761 6.21875 20.7136 5.70312C21.3386 5.35938 22.0417 5.14062 22.7136 4.85938C23.2292 4.64062 23.6511 4.75 23.9323 5.21875C24.6823 6.48438 25.4167 7.75 26.1354 9.01562C26.4323 9.53125 26.1823 9.90625 25.7761 10.2344C24.9792 10.8594 24.1823 11.4844 23.3698 12.0938C23.0573 12.3281 22.9636 12.5938 22.9167 12.9844C22.7292 14.375 23.1042 15.4375 24.4011 16.1094C24.9167 16.375 25.3542 16.7969 25.8073 17.1719C26.3073 17.5781 26.3854 17.9375 26.0729 18.5C25.3854 19.7031 24.6979 20.9062 23.9948 22.1094C23.6823 22.6406 23.3229 22.7656 22.6979 22.5156C21.7136 22.125 20.7448 21.7344 19.7761 21.3125C19.4479 21.1719 19.2136 21.1719 18.9167 21.3906C18.5729 21.6406 18.1979 21.8906 17.8073 22.0312C17.2761 22.2344 17.1198 22.5938 17.0729 23.0938C16.9636 24.0469 16.8386 24.9844 16.6979 25.9375C16.6042 26.5938 16.3229 26.8594 15.6511 26.875C14.3073 26.8906 12.9636 26.8906 11.6042 26.875C10.8698 26.875 10.5886 26.6094 10.4792 25.8906C10.3386 24.9062 10.2136 23.9219 10.1042 22.9375C10.0573 22.5469 9.90105 22.2969 9.54168 22.125C9.21355 21.9844 8.88543 21.8281 8.6198 21.6094C8.1198 21.1875 7.65105 21.1719 7.07293 21.4531C6.26043 21.8438 5.41668 22.1562 4.58855 22.5C3.8698 22.7969 3.5573 22.7031 3.16668 22.0625C2.4948 20.9219 1.82293 19.7656 1.16668 18.6094C0.776053 17.9219 0.869803 17.5781 1.47918 17.1094C2.22918 16.5312 2.9948 15.9375 3.7448 15.3594C3.83855 15.2812 3.9323 15.2188 4.01043 15.1406C4.40105 14.75 4.29168 12.5156 3.85418 12.1875C3.0573 11.5625 2.2448 10.9531 1.44793 10.3281C0.838553 9.85938 0.760428 9.48438 1.15105 8.8125C1.8073 7.67188 2.46355 6.54688 3.1198 5.42188C3.51043 4.76562 3.82293 4.65625 4.52605 4.9375C5.4323 5.29688 6.33855 5.67188 7.22918 6.0625C7.65105 6.25 7.9948 6.28125 8.3698 5.96875C8.52605 5.82812 8.71355 5.6875 8.91668 5.625C9.8073 5.34375 10.1354 4.71875 10.1667 3.82812C10.1979 3.10938 10.3542 2.39062 10.4167 1.67188C10.5033 0.80544 11.4808 0.510698 12.3516 0.506333C13.1637 0.502262 13.9662 0.500808 14.7676 0.500289ZM13.6198 25.2188C13.9323 25.2188 14.2448 25.2031 14.5573 25.2188C14.9792 25.25 15.1354 25.0781 15.1823 24.6562C15.2604 23.7969 15.4323 22.9531 15.4948 22.1094C15.5417 21.4844 15.8229 21.0938 16.3854 20.8594C17.1042 20.5469 17.8073 20.2031 18.4011 19.6875C18.8386 19.3125 19.2917 19.2969 19.8073 19.5156C20.6354 19.875 21.4792 20.1875 22.2917 20.5625C22.7136 20.75 22.9167 20.6562 23.1198 20.2656C23.4167 19.6875 23.7448 19.1406 24.0886 18.5938C24.2917 18.2812 24.2448 18.0938 23.9479 17.875C23.2136 17.3438 22.4948 16.75 21.7604 16.2188C21.2604 15.8594 21.0886 15.4219 21.1979 14.7969C21.3386 14.0938 21.3386 13.3438 21.1979 12.6406C21.0886 12.0469 21.2292 11.6094 21.6979 11.25C22.4479 10.6875 23.1823 10.0938 23.9323 9.54688C24.2292 9.32812 24.2917 9.14062 24.0886 8.82812C23.7604 8.29688 23.4323 7.76562 23.1511 7.20312C22.9479 6.78125 22.6979 6.6875 22.2604 6.875C21.4792 7.21875 20.6667 7.5 19.8854 7.875C19.2917 8.15625 18.8073 8.0625 18.3073 7.6875C17.6667 7.20312 16.9948 6.76563 16.2292 6.5C15.7448 6.32812 15.5573 5.95312 15.4948 5.46875C15.3854 4.54688 15.2448 3.60938 15.1354 2.6875C15.1042 2.35938 14.9792 2.17188 14.6354 2.1875C13.9323 2.1875 13.2292 2.1875 12.5261 2.1875C12.1823 2.1875 12.0417 2.34375 11.9948 2.67188C11.8854 3.57812 11.7292 4.48438 11.6511 5.40625C11.6042 5.98438 11.3386 6.32812 10.8229 6.5625C10.0886 6.89062 9.3698 7.21875 8.7448 7.75C8.32293 8.10938 7.88543 8.14062 7.38543 7.92188C6.58855 7.5625 5.76043 7.26562 4.96355 6.90625C4.52605 6.70312 4.2448 6.76563 4.01043 7.20312C3.72918 7.76562 3.41668 8.29688 3.07293 8.82812C2.8698 9.14062 2.9323 9.32812 3.22918 9.54688C3.97918 10.0781 4.6823 10.6719 5.41668 11.2031C5.88543 11.5312 6.07293 11.9531 5.97918 12.5156C5.83855 13.3125 5.83855 14.1094 5.97918 14.9062C6.07293 15.4687 5.8698 15.8906 5.41668 16.2188C4.71355 16.7344 4.02605 17.2969 3.3073 17.7969C2.91668 18.0781 2.88543 18.3281 3.13543 18.7031C3.47918 19.2344 3.77605 19.7656 4.07293 20.3281C4.26043 20.6875 4.47918 20.7344 4.83855 20.5781C5.66668 20.2188 6.4948 19.9062 7.32293 19.5312C7.8698 19.2812 8.32293 19.3438 8.79168 19.7031C9.46355 20.2031 10.1667 20.6562 10.9792 20.9375C11.4011 21.0938 11.5729 21.4219 11.6198 21.8438C11.6979 22.4375 11.7761 23.0469 11.8542 23.6406C12.1667 25.4844 11.8073 25.1875 13.6198 25.2188Z" fill="url(#paint5_radial_325_2506)"/>
<path d="M0.166626 46.8984C0.166626 46.6774 0.243653 46.4698 0.3713 46.2894C0.868542 45.5867 1.2249 44.7941 1.66663 44.0625C2.24475 43.0937 2.43225 43.0312 3.44788 43.4375C4.026 43.6719 4.60413 43.9062 5.18225 44.1562C5.47913 44.2969 5.72913 44.2812 5.99475 44.0781C6.19788 43.9219 6.41663 43.7969 6.651 43.6875C6.99475 43.5312 7.13538 43.2656 7.16663 42.9062C7.24475 42.25 7.32288 41.5937 7.41663 40.9375C7.51038 40.2344 7.79163 39.9844 8.49475 39.9688C9.51038 39.9531 10.526 39.9531 11.5416 39.9688C12.2135 39.9688 12.4948 40.2344 12.5885 40.9062C12.6666 41.4688 12.7916 42.0312 12.8073 42.5937C12.8229 43.25 13.151 43.5625 13.6823 43.9062C14.2604 44.2656 14.7135 44.2969 15.2916 43.9844C15.7916 43.7187 16.3229 43.5312 16.8541 43.3281C17.4947 43.0781 17.8385 43.2031 18.1822 43.7812C18.6822 44.6406 19.1822 45.5 19.6666 46.375C20.0104 47 19.9479 47.3438 19.3854 47.7969C18.8229 48.25 18.2447 48.6719 17.6666 49.125C17.1197 49.5469 17.1197 50.9219 17.651 51.3594C18.2135 51.8125 18.7916 52.2344 19.3697 52.6875C19.9166 53.1094 20.0104 53.4688 19.6979 54.0469C19.1979 54.9531 18.6666 55.8437 18.151 56.7344C17.8385 57.25 17.401 57.375 16.8541 57.1562C16.1979 56.8906 15.5416 56.6406 14.901 56.3594C14.5729 56.2187 14.3073 56.2969 13.9791 56.4219C12.9479 56.8125 12.7916 57.625 12.7291 58.5625C12.6377 59.9032 11.3924 60.5156 10.0486 60.5156C8.67767 60.5156 7.44002 59.8962 7.32547 58.5301C7.32463 58.52 7.32376 58.51 7.32288 58.5C7.24475 57.5938 7.07288 56.7969 6.07288 56.4219C5.74475 56.2969 5.47913 56.2031 5.151 56.3437C4.54163 56.6094 3.93225 56.8594 3.32288 57.1094C2.55725 57.4062 2.19788 57.2812 1.776 56.5469C1.2927 55.7224 0.809397 54.898 0.326095 54.0735C0.231904 53.9128 0.182251 53.7299 0.182251 53.5437C0.182251 53.2749 0.283175 53.0137 0.48167 52.8325C1.02771 52.3339 1.65055 51.929 2.22913 51.4688C2.9635 50.875 2.97913 49.5937 2.24475 49.0156C1.65475 48.5667 1.09634 48.1178 0.534939 47.6689C0.302419 47.483 0.166626 47.1961 0.166626 46.8984ZM17.651 47.0156C17.8896 46.777 17.7817 46.4262 17.606 46.1381C17.4788 45.9294 17.3462 45.7095 17.2291 45.4844C17.0729 45.1875 16.901 45.1094 16.5729 45.25C16.026 45.5 15.4479 45.7031 14.901 45.9531C14.4166 46.1719 14.0104 46.1094 13.5729 45.8281C13.151 45.5469 12.7291 45.2344 12.2604 45.0625C11.6041 44.8125 11.276 44.4062 11.2604 43.7188C11.2604 43.4844 11.1979 43.25 11.1666 43.0313C10.9166 41.4844 11.2604 41.6719 9.60413 41.6562C9.57288 41.6562 9.526 41.6562 9.49475 41.6562C9.151 41.6406 9.01038 41.8125 8.97913 42.1406C8.91663 42.7031 8.80725 43.2656 8.76038 43.8281C8.72913 44.375 8.47913 44.7344 7.97913 44.9688C7.401 45.2188 6.85413 45.5156 6.36975 45.9062C6.01038 46.1875 5.61975 46.1562 5.2135 45.9844C4.61975 45.7344 4.01038 45.5 3.43225 45.25C3.16663 45.1406 2.9635 45.1406 2.86975 45.4375C2.68225 45.9375 2.0885 46.2812 2.29163 46.9219C2.32288 47.0156 2.4635 47.0625 2.55725 47.1406C3.05725 47.5469 3.57288 47.9375 4.07288 48.3438C4.41663 48.6094 4.55725 48.9375 4.43225 49.375C4.29163 49.875 4.29163 50.375 4.401 50.875C4.54163 51.5312 4.3385 52.0469 3.76038 52.4375C3.29163 52.75 2.80725 53.0625 2.41663 53.4687C1.80725 54.1094 2.69788 54.4531 2.82288 54.9531C2.88538 55.25 3.13538 55.4063 3.44788 55.2188C3.47913 55.2031 3.526 55.1875 3.55725 55.1719C4.05725 54.9531 4.57288 54.7812 5.07288 54.5312C5.60413 54.2656 6.07288 54.3281 6.54163 54.6719C6.99475 55.0156 7.4635 55.3281 8.01038 55.5312C8.49475 55.7031 8.7135 56.0469 8.76038 56.5469C8.82288 57.1406 8.93225 57.75 8.99475 58.3438C9.026 58.7188 9.19788 58.8437 9.55725 58.8437C11.2947 58.8285 10.9361 58.9917 11.1638 57.5787C11.1756 57.506 11.1979 57.433 11.1979 57.3594C11.1979 56.2969 11.5885 55.5 12.6979 55.2188C12.8229 55.1875 12.9479 55.1094 13.0573 55.0156C13.8541 54.25 14.6979 54.2344 15.6041 54.7969C15.6354 54.8125 15.6822 54.8281 15.7135 54.8437C17.0885 55.4062 17.0729 55.3906 17.776 54.0937C17.9635 53.75 17.8697 53.5781 17.5885 53.375C17.0416 52.9687 16.5104 52.5469 15.9791 52.1094C15.7291 51.9062 15.526 51.6562 15.6198 51.2969C15.7916 50.6562 15.7447 50.0156 15.651 49.375C15.5729 48.8437 15.7604 48.4375 16.2135 48.125C16.7135 47.7812 17.1822 47.3906 17.651 47.0156Z" fill="url(#paint6_linear_325_2506)"/>
<path d="M0.166626 46.8984C0.166626 46.6774 0.243653 46.4698 0.3713 46.2894C0.868542 45.5867 1.2249 44.7941 1.66663 44.0625C2.24475 43.0937 2.43225 43.0312 3.44788 43.4375C4.026 43.6719 4.60413 43.9062 5.18225 44.1562C5.47913 44.2969 5.72913 44.2812 5.99475 44.0781C6.19788 43.9219 6.41663 43.7969 6.651 43.6875C6.99475 43.5312 7.13538 43.2656 7.16663 42.9062C7.24475 42.25 7.32288 41.5937 7.41663 40.9375C7.51038 40.2344 7.79163 39.9844 8.49475 39.9688C9.51038 39.9531 10.526 39.9531 11.5416 39.9688C12.2135 39.9688 12.4948 40.2344 12.5885 40.9062C12.6666 41.4688 12.7916 42.0312 12.8073 42.5937C12.8229 43.25 13.151 43.5625 13.6823 43.9062C14.2604 44.2656 14.7135 44.2969 15.2916 43.9844C15.7916 43.7187 16.3229 43.5312 16.8541 43.3281C17.4947 43.0781 17.8385 43.2031 18.1822 43.7812C18.6822 44.6406 19.1822 45.5 19.6666 46.375C20.0104 47 19.9479 47.3438 19.3854 47.7969C18.8229 48.25 18.2447 48.6719 17.6666 49.125C17.1197 49.5469 17.1197 50.9219 17.651 51.3594C18.2135 51.8125 18.7916 52.2344 19.3697 52.6875C19.9166 53.1094 20.0104 53.4688 19.6979 54.0469C19.1979 54.9531 18.6666 55.8437 18.151 56.7344C17.8385 57.25 17.401 57.375 16.8541 57.1562C16.1979 56.8906 15.5416 56.6406 14.901 56.3594C14.5729 56.2187 14.3073 56.2969 13.9791 56.4219C12.9479 56.8125 12.7916 57.625 12.7291 58.5625C12.6377 59.9032 11.3924 60.5156 10.0486 60.5156C8.67767 60.5156 7.44002 59.8962 7.32547 58.5301C7.32463 58.52 7.32376 58.51 7.32288 58.5C7.24475 57.5938 7.07288 56.7969 6.07288 56.4219C5.74475 56.2969 5.47913 56.2031 5.151 56.3437C4.54163 56.6094 3.93225 56.8594 3.32288 57.1094C2.55725 57.4062 2.19788 57.2812 1.776 56.5469C1.2927 55.7224 0.809397 54.898 0.326095 54.0735C0.231904 53.9128 0.182251 53.7299 0.182251 53.5437C0.182251 53.2749 0.283175 53.0137 0.48167 52.8325C1.02771 52.3339 1.65055 51.929 2.22913 51.4688C2.9635 50.875 2.97913 49.5937 2.24475 49.0156C1.65475 48.5667 1.09634 48.1178 0.534939 47.6689C0.302419 47.483 0.166626 47.1961 0.166626 46.8984ZM17.651 47.0156C17.8896 46.777 17.7817 46.4262 17.606 46.1381C17.4788 45.9294 17.3462 45.7095 17.2291 45.4844C17.0729 45.1875 16.901 45.1094 16.5729 45.25C16.026 45.5 15.4479 45.7031 14.901 45.9531C14.4166 46.1719 14.0104 46.1094 13.5729 45.8281C13.151 45.5469 12.7291 45.2344 12.2604 45.0625C11.6041 44.8125 11.276 44.4062 11.2604 43.7188C11.2604 43.4844 11.1979 43.25 11.1666 43.0313C10.9166 41.4844 11.2604 41.6719 9.60413 41.6562C9.57288 41.6562 9.526 41.6562 9.49475 41.6562C9.151 41.6406 9.01038 41.8125 8.97913 42.1406C8.91663 42.7031 8.80725 43.2656 8.76038 43.8281C8.72913 44.375 8.47913 44.7344 7.97913 44.9688C7.401 45.2188 6.85413 45.5156 6.36975 45.9062C6.01038 46.1875 5.61975 46.1562 5.2135 45.9844C4.61975 45.7344 4.01038 45.5 3.43225 45.25C3.16663 45.1406 2.9635 45.1406 2.86975 45.4375C2.68225 45.9375 2.0885 46.2812 2.29163 46.9219C2.32288 47.0156 2.4635 47.0625 2.55725 47.1406C3.05725 47.5469 3.57288 47.9375 4.07288 48.3438C4.41663 48.6094 4.55725 48.9375 4.43225 49.375C4.29163 49.875 4.29163 50.375 4.401 50.875C4.54163 51.5312 4.3385 52.0469 3.76038 52.4375C3.29163 52.75 2.80725 53.0625 2.41663 53.4687C1.80725 54.1094 2.69788 54.4531 2.82288 54.9531C2.88538 55.25 3.13538 55.4063 3.44788 55.2188C3.47913 55.2031 3.526 55.1875 3.55725 55.1719C4.05725 54.9531 4.57288 54.7812 5.07288 54.5312C5.60413 54.2656 6.07288 54.3281 6.54163 54.6719C6.99475 55.0156 7.4635 55.3281 8.01038 55.5312C8.49475 55.7031 8.7135 56.0469 8.76038 56.5469C8.82288 57.1406 8.93225 57.75 8.99475 58.3438C9.026 58.7188 9.19788 58.8437 9.55725 58.8437C11.2947 58.8285 10.9361 58.9917 11.1638 57.5787C11.1756 57.506 11.1979 57.433 11.1979 57.3594C11.1979 56.2969 11.5885 55.5 12.6979 55.2188C12.8229 55.1875 12.9479 55.1094 13.0573 55.0156C13.8541 54.25 14.6979 54.2344 15.6041 54.7969C15.6354 54.8125 15.6822 54.8281 15.7135 54.8437C17.0885 55.4062 17.0729 55.3906 17.776 54.0937C17.9635 53.75 17.8697 53.5781 17.5885 53.375C17.0416 52.9687 16.5104 52.5469 15.9791 52.1094C15.7291 51.9062 15.526 51.6562 15.6198 51.2969C15.7916 50.6562 15.7447 50.0156 15.651 49.375C15.5729 48.8437 15.7604 48.4375 16.2135 48.125C16.7135 47.7812 17.1822 47.3906 17.651 47.0156Z" fill="url(#paint7_radial_325_2506)"/>
<path d="M0.166626 46.8984C0.166626 46.6774 0.243653 46.4698 0.3713 46.2894C0.868542 45.5867 1.2249 44.7941 1.66663 44.0625C2.24475 43.0937 2.43225 43.0312 3.44788 43.4375C4.026 43.6719 4.60413 43.9062 5.18225 44.1562C5.47913 44.2969 5.72913 44.2812 5.99475 44.0781C6.19788 43.9219 6.41663 43.7969 6.651 43.6875C6.99475 43.5312 7.13538 43.2656 7.16663 42.9062C7.24475 42.25 7.32288 41.5937 7.41663 40.9375C7.51038 40.2344 7.79163 39.9844 8.49475 39.9688C9.51038 39.9531 10.526 39.9531 11.5416 39.9688C12.2135 39.9688 12.4948 40.2344 12.5885 40.9062C12.6666 41.4688 12.7916 42.0312 12.8073 42.5937C12.8229 43.25 13.151 43.5625 13.6823 43.9062C14.2604 44.2656 14.7135 44.2969 15.2916 43.9844C15.7916 43.7187 16.3229 43.5312 16.8541 43.3281C17.4947 43.0781 17.8385 43.2031 18.1822 43.7812C18.6822 44.6406 19.1822 45.5 19.6666 46.375C20.0104 47 19.9479 47.3438 19.3854 47.7969C18.8229 48.25 18.2447 48.6719 17.6666 49.125C17.1197 49.5469 17.1197 50.9219 17.651 51.3594C18.2135 51.8125 18.7916 52.2344 19.3697 52.6875C19.9166 53.1094 20.0104 53.4688 19.6979 54.0469C19.1979 54.9531 18.6666 55.8437 18.151 56.7344C17.8385 57.25 17.401 57.375 16.8541 57.1562C16.1979 56.8906 15.5416 56.6406 14.901 56.3594C14.5729 56.2187 14.3073 56.2969 13.9791 56.4219C12.9479 56.8125 12.7916 57.625 12.7291 58.5625C12.6377 59.9032 11.3924 60.5156 10.0486 60.5156C8.67767 60.5156 7.44002 59.8962 7.32547 58.5301C7.32463 58.52 7.32376 58.51 7.32288 58.5C7.24475 57.5938 7.07288 56.7969 6.07288 56.4219C5.74475 56.2969 5.47913 56.2031 5.151 56.3437C4.54163 56.6094 3.93225 56.8594 3.32288 57.1094C2.55725 57.4062 2.19788 57.2812 1.776 56.5469C1.2927 55.7224 0.809397 54.898 0.326095 54.0735C0.231904 53.9128 0.182251 53.7299 0.182251 53.5437C0.182251 53.2749 0.283175 53.0137 0.48167 52.8325C1.02771 52.3339 1.65055 51.929 2.22913 51.4688C2.9635 50.875 2.97913 49.5937 2.24475 49.0156C1.65475 48.5667 1.09634 48.1178 0.534939 47.6689C0.302419 47.483 0.166626 47.1961 0.166626 46.8984ZM17.651 47.0156C17.8896 46.777 17.7817 46.4262 17.606 46.1381C17.4788 45.9294 17.3462 45.7095 17.2291 45.4844C17.0729 45.1875 16.901 45.1094 16.5729 45.25C16.026 45.5 15.4479 45.7031 14.901 45.9531C14.4166 46.1719 14.0104 46.1094 13.5729 45.8281C13.151 45.5469 12.7291 45.2344 12.2604 45.0625C11.6041 44.8125 11.276 44.4062 11.2604 43.7188C11.2604 43.4844 11.1979 43.25 11.1666 43.0313C10.9166 41.4844 11.2604 41.6719 9.60413 41.6562C9.57288 41.6562 9.526 41.6562 9.49475 41.6562C9.151 41.6406 9.01038 41.8125 8.97913 42.1406C8.91663 42.7031 8.80725 43.2656 8.76038 43.8281C8.72913 44.375 8.47913 44.7344 7.97913 44.9688C7.401 45.2188 6.85413 45.5156 6.36975 45.9062C6.01038 46.1875 5.61975 46.1562 5.2135 45.9844C4.61975 45.7344 4.01038 45.5 3.43225 45.25C3.16663 45.1406 2.9635 45.1406 2.86975 45.4375C2.68225 45.9375 2.0885 46.2812 2.29163 46.9219C2.32288 47.0156 2.4635 47.0625 2.55725 47.1406C3.05725 47.5469 3.57288 47.9375 4.07288 48.3438C4.41663 48.6094 4.55725 48.9375 4.43225 49.375C4.29163 49.875 4.29163 50.375 4.401 50.875C4.54163 51.5312 4.3385 52.0469 3.76038 52.4375C3.29163 52.75 2.80725 53.0625 2.41663 53.4687C1.80725 54.1094 2.69788 54.4531 2.82288 54.9531C2.88538 55.25 3.13538 55.4063 3.44788 55.2188C3.47913 55.2031 3.526 55.1875 3.55725 55.1719C4.05725 54.9531 4.57288 54.7812 5.07288 54.5312C5.60413 54.2656 6.07288 54.3281 6.54163 54.6719C6.99475 55.0156 7.4635 55.3281 8.01038 55.5312C8.49475 55.7031 8.7135 56.0469 8.76038 56.5469C8.82288 57.1406 8.93225 57.75 8.99475 58.3438C9.026 58.7188 9.19788 58.8437 9.55725 58.8437C11.2947 58.8285 10.9361 58.9917 11.1638 57.5787C11.1756 57.506 11.1979 57.433 11.1979 57.3594C11.1979 56.2969 11.5885 55.5 12.6979 55.2188C12.8229 55.1875 12.9479 55.1094 13.0573 55.0156C13.8541 54.25 14.6979 54.2344 15.6041 54.7969C15.6354 54.8125 15.6822 54.8281 15.7135 54.8437C17.0885 55.4062 17.0729 55.3906 17.776 54.0937C17.9635 53.75 17.8697 53.5781 17.5885 53.375C17.0416 52.9687 16.5104 52.5469 15.9791 52.1094C15.7291 51.9062 15.526 51.6562 15.6198 51.2969C15.7916 50.6562 15.7447 50.0156 15.651 49.375C15.5729 48.8437 15.7604 48.4375 16.2135 48.125C16.7135 47.7812 17.1822 47.3906 17.651 47.0156Z" fill="url(#paint8_radial_325_2506)"/>
<path d="M50.9109 0.501881C51.8965 0.498226 52.8918 0.880924 53.0104 1.85938C53.0417 2.125 53.1198 2.40625 53.1042 2.67188C53.0729 3.51562 53.4479 4.04688 54.2292 4.375C54.5261 4.5 54.7604 4.54688 55.0417 4.42188C55.6511 4.15625 56.2604 3.90625 56.8854 3.67188C57.4948 3.4375 57.8229 3.54688 58.1667 4.10938C58.6511 4.9375 59.1354 5.76562 59.6042 6.59375C59.9167 7.15625 59.8542 7.51562 59.3542 7.92188C58.8386 8.34375 58.3073 8.73438 57.7761 9.14062C57.1823 9.60938 57.1823 10.8125 57.7761 11.2812C58.2761 11.6719 58.8073 12.0625 59.3073 12.4688C59.8698 12.9219 59.9479 13.2188 59.6042 13.8281C59.1354 14.6875 58.6354 15.5312 58.1511 16.3594C57.8698 16.8281 57.4792 16.9844 56.9479 16.7812C56.3386 16.5312 55.7292 16.2812 55.1042 16.0312C54.4167 15.7656 53.3386 16.3438 53.2136 17.0781C53.0886 17.7344 53.0104 18.3906 52.9167 19.0469C52.8386 19.6562 52.4792 19.9375 51.8854 19.9531C50.9323 19.9688 49.9792 19.9688 49.0104 19.9531C48.4167 19.9375 48.0729 19.6094 47.9948 19.0312C47.9011 18.375 47.8229 17.7188 47.7292 17.0625C47.6354 16.4375 46.5261 15.7656 45.9479 16C45.3229 16.2344 44.7292 16.5 44.1042 16.75C43.4636 17 43.1198 16.9062 42.7604 16.3281C42.2604 15.5156 41.7917 14.6875 41.3229 13.8438C41.0104 13.2656 41.1042 12.875 41.6354 12.4688C42.1042 12.0938 42.5886 11.7344 43.0729 11.3594C43.7292 10.8594 43.7136 9.57812 43.0573 9.07812C42.5729 8.70312 42.0886 8.34375 41.6198 7.96875C41.0729 7.53125 41.0104 7.20312 41.3386 6.59375C41.7917 5.75 42.2917 4.9375 42.7604 4.10938C43.0573 3.60938 43.4636 3.46875 44.0104 3.6875C44.6198 3.9375 45.2448 4.1875 45.8542 4.4375C46.4948 4.6875 47.6198 4.04688 47.7136 3.35938C47.7917 2.78125 47.8854 2.20312 47.9479 1.625C48.0668 0.792901 48.9688 0.518767 49.8093 0.509599C50.1782 0.505576 50.5449 0.503239 50.9109 0.501881ZM45.9349 14.1664C46.2904 14.0345 46.6955 13.9703 46.9948 14.2031C47.2448 14.3906 47.4792 14.625 47.7604 14.7344C49.4011 15.3906 49.2136 15.4844 49.4323 17.1094C49.5886 18.2656 49.6042 18.2344 50.7917 18.2031C51.1823 18.1875 51.3542 18.0312 51.4011 17.6562C51.4636 17.1719 51.5417 16.6875 51.6042 16.2031C51.6823 15.6406 51.9011 15.2188 52.5104 15.0469C52.8386 14.9531 53.1823 14.7812 53.4167 14.5469C54.0729 13.8906 54.7448 13.9219 55.4792 14.3281C55.6042 14.3906 55.7292 14.4375 55.8542 14.5C57.0104 15 57.0104 15 57.6198 13.8906C57.7917 13.5625 57.7604 13.3594 57.4792 13.1406C57.0417 12.8125 56.6198 12.4688 56.1823 12.1406C55.7448 11.8125 55.5417 11.4375 55.6979 10.875C55.7761 10.5938 55.8229 10.2969 55.7448 10C55.4792 9.04688 55.7604 8.3125 56.6354 7.82812C56.7292 7.76562 56.8229 7.6875 56.9167 7.60938C58.0261 6.75 57.8854 6.98438 57.2604 5.82812C57.0729 5.48437 56.8542 5.42188 56.4948 5.57812C55.9636 5.8125 55.4011 6.01562 54.8698 6.23438C54.4792 6.39062 54.1198 6.35938 53.7917 6.04688C53.4167 5.6875 52.9636 5.45312 52.4792 5.28125C51.9011 5.09375 51.6354 4.70312 51.5729 4.10938C51.5573 3.84375 51.4948 3.5625 51.4636 3.29688C51.3073 2.01562 51.3073 2.01562 50.0417 2.10938C49.6823 2.125 49.5261 2.28125 49.4792 2.64062C49.4167 3.21875 49.3073 3.79687 49.2292 4.375C49.1667 4.79688 48.9636 5.09375 48.5261 5.21875C48.1198 5.32812 47.7448 5.51563 47.4479 5.79688C46.7917 6.4375 46.1198 6.42188 45.3698 6C45.2448 5.9375 45.1198 5.89062 44.9948 5.84375C43.8854 5.39062 43.9011 5.40625 43.2917 6.40625C43.0729 6.76562 43.0886 6.98437 43.4479 7.23438C43.9479 7.57812 44.4011 7.96875 44.8698 8.35938C45.1511 8.57812 45.3073 8.85938 45.2136 9.23438C45.0886 9.8125 45.1042 10.3906 45.2136 10.9844C45.3073 11.4531 45.1511 11.8125 44.7604 12.1094C44.2917 12.4531 43.8386 12.8281 43.3698 13.1875C43.2448 13.2812 43.0573 13.3594 43.1198 13.5469C43.2917 14 43.4948 14.4688 43.8542 14.7969C44.1198 15.0469 44.4323 14.7344 44.7136 14.6406C45.1579 14.4925 45.5521 14.3086 45.9349 14.1664Z" fill="url(#paint9_linear_325_2506)"/>
<path d="M50.9109 0.501881C51.8965 0.498226 52.8918 0.880924 53.0104 1.85938C53.0417 2.125 53.1198 2.40625 53.1042 2.67188C53.0729 3.51562 53.4479 4.04688 54.2292 4.375C54.5261 4.5 54.7604 4.54688 55.0417 4.42188C55.6511 4.15625 56.2604 3.90625 56.8854 3.67188C57.4948 3.4375 57.8229 3.54688 58.1667 4.10938C58.6511 4.9375 59.1354 5.76562 59.6042 6.59375C59.9167 7.15625 59.8542 7.51562 59.3542 7.92188C58.8386 8.34375 58.3073 8.73438 57.7761 9.14062C57.1823 9.60938 57.1823 10.8125 57.7761 11.2812C58.2761 11.6719 58.8073 12.0625 59.3073 12.4688C59.8698 12.9219 59.9479 13.2188 59.6042 13.8281C59.1354 14.6875 58.6354 15.5312 58.1511 16.3594C57.8698 16.8281 57.4792 16.9844 56.9479 16.7812C56.3386 16.5312 55.7292 16.2812 55.1042 16.0312C54.4167 15.7656 53.3386 16.3438 53.2136 17.0781C53.0886 17.7344 53.0104 18.3906 52.9167 19.0469C52.8386 19.6562 52.4792 19.9375 51.8854 19.9531C50.9323 19.9688 49.9792 19.9688 49.0104 19.9531C48.4167 19.9375 48.0729 19.6094 47.9948 19.0312C47.9011 18.375 47.8229 17.7188 47.7292 17.0625C47.6354 16.4375 46.5261 15.7656 45.9479 16C45.3229 16.2344 44.7292 16.5 44.1042 16.75C43.4636 17 43.1198 16.9062 42.7604 16.3281C42.2604 15.5156 41.7917 14.6875 41.3229 13.8438C41.0104 13.2656 41.1042 12.875 41.6354 12.4688C42.1042 12.0938 42.5886 11.7344 43.0729 11.3594C43.7292 10.8594 43.7136 9.57812 43.0573 9.07812C42.5729 8.70312 42.0886 8.34375 41.6198 7.96875C41.0729 7.53125 41.0104 7.20312 41.3386 6.59375C41.7917 5.75 42.2917 4.9375 42.7604 4.10938C43.0573 3.60938 43.4636 3.46875 44.0104 3.6875C44.6198 3.9375 45.2448 4.1875 45.8542 4.4375C46.4948 4.6875 47.6198 4.04688 47.7136 3.35938C47.7917 2.78125 47.8854 2.20312 47.9479 1.625C48.0668 0.792901 48.9688 0.518767 49.8093 0.509599C50.1782 0.505576 50.5449 0.503239 50.9109 0.501881ZM45.9349 14.1664C46.2904 14.0345 46.6955 13.9703 46.9948 14.2031C47.2448 14.3906 47.4792 14.625 47.7604 14.7344C49.4011 15.3906 49.2136 15.4844 49.4323 17.1094C49.5886 18.2656 49.6042 18.2344 50.7917 18.2031C51.1823 18.1875 51.3542 18.0312 51.4011 17.6562C51.4636 17.1719 51.5417 16.6875 51.6042 16.2031C51.6823 15.6406 51.9011 15.2188 52.5104 15.0469C52.8386 14.9531 53.1823 14.7812 53.4167 14.5469C54.0729 13.8906 54.7448 13.9219 55.4792 14.3281C55.6042 14.3906 55.7292 14.4375 55.8542 14.5C57.0104 15 57.0104 15 57.6198 13.8906C57.7917 13.5625 57.7604 13.3594 57.4792 13.1406C57.0417 12.8125 56.6198 12.4688 56.1823 12.1406C55.7448 11.8125 55.5417 11.4375 55.6979 10.875C55.7761 10.5938 55.8229 10.2969 55.7448 10C55.4792 9.04688 55.7604 8.3125 56.6354 7.82812C56.7292 7.76562 56.8229 7.6875 56.9167 7.60938C58.0261 6.75 57.8854 6.98438 57.2604 5.82812C57.0729 5.48437 56.8542 5.42188 56.4948 5.57812C55.9636 5.8125 55.4011 6.01562 54.8698 6.23438C54.4792 6.39062 54.1198 6.35938 53.7917 6.04688C53.4167 5.6875 52.9636 5.45312 52.4792 5.28125C51.9011 5.09375 51.6354 4.70312 51.5729 4.10938C51.5573 3.84375 51.4948 3.5625 51.4636 3.29688C51.3073 2.01562 51.3073 2.01562 50.0417 2.10938C49.6823 2.125 49.5261 2.28125 49.4792 2.64062C49.4167 3.21875 49.3073 3.79687 49.2292 4.375C49.1667 4.79688 48.9636 5.09375 48.5261 5.21875C48.1198 5.32812 47.7448 5.51563 47.4479 5.79688C46.7917 6.4375 46.1198 6.42188 45.3698 6C45.2448 5.9375 45.1198 5.89062 44.9948 5.84375C43.8854 5.39062 43.9011 5.40625 43.2917 6.40625C43.0729 6.76562 43.0886 6.98437 43.4479 7.23438C43.9479 7.57812 44.4011 7.96875 44.8698 8.35938C45.1511 8.57812 45.3073 8.85938 45.2136 9.23438C45.0886 9.8125 45.1042 10.3906 45.2136 10.9844C45.3073 11.4531 45.1511 11.8125 44.7604 12.1094C44.2917 12.4531 43.8386 12.8281 43.3698 13.1875C43.2448 13.2812 43.0573 13.3594 43.1198 13.5469C43.2917 14 43.4948 14.4688 43.8542 14.7969C44.1198 15.0469 44.4323 14.7344 44.7136 14.6406C45.1579 14.4925 45.5521 14.3086 45.9349 14.1664Z" fill="url(#paint10_radial_325_2506)"/>
<path d="M50.9109 0.501881C51.8965 0.498226 52.8918 0.880924 53.0104 1.85938C53.0417 2.125 53.1198 2.40625 53.1042 2.67188C53.0729 3.51562 53.4479 4.04688 54.2292 4.375C54.5261 4.5 54.7604 4.54688 55.0417 4.42188C55.6511 4.15625 56.2604 3.90625 56.8854 3.67188C57.4948 3.4375 57.8229 3.54688 58.1667 4.10938C58.6511 4.9375 59.1354 5.76562 59.6042 6.59375C59.9167 7.15625 59.8542 7.51562 59.3542 7.92188C58.8386 8.34375 58.3073 8.73438 57.7761 9.14062C57.1823 9.60938 57.1823 10.8125 57.7761 11.2812C58.2761 11.6719 58.8073 12.0625 59.3073 12.4688C59.8698 12.9219 59.9479 13.2188 59.6042 13.8281C59.1354 14.6875 58.6354 15.5312 58.1511 16.3594C57.8698 16.8281 57.4792 16.9844 56.9479 16.7812C56.3386 16.5312 55.7292 16.2812 55.1042 16.0312C54.4167 15.7656 53.3386 16.3438 53.2136 17.0781C53.0886 17.7344 53.0104 18.3906 52.9167 19.0469C52.8386 19.6562 52.4792 19.9375 51.8854 19.9531C50.9323 19.9688 49.9792 19.9688 49.0104 19.9531C48.4167 19.9375 48.0729 19.6094 47.9948 19.0312C47.9011 18.375 47.8229 17.7188 47.7292 17.0625C47.6354 16.4375 46.5261 15.7656 45.9479 16C45.3229 16.2344 44.7292 16.5 44.1042 16.75C43.4636 17 43.1198 16.9062 42.7604 16.3281C42.2604 15.5156 41.7917 14.6875 41.3229 13.8438C41.0104 13.2656 41.1042 12.875 41.6354 12.4688C42.1042 12.0938 42.5886 11.7344 43.0729 11.3594C43.7292 10.8594 43.7136 9.57812 43.0573 9.07812C42.5729 8.70312 42.0886 8.34375 41.6198 7.96875C41.0729 7.53125 41.0104 7.20312 41.3386 6.59375C41.7917 5.75 42.2917 4.9375 42.7604 4.10938C43.0573 3.60938 43.4636 3.46875 44.0104 3.6875C44.6198 3.9375 45.2448 4.1875 45.8542 4.4375C46.4948 4.6875 47.6198 4.04688 47.7136 3.35938C47.7917 2.78125 47.8854 2.20312 47.9479 1.625C48.0668 0.792901 48.9688 0.518767 49.8093 0.509599C50.1782 0.505576 50.5449 0.503239 50.9109 0.501881ZM45.9349 14.1664C46.2904 14.0345 46.6955 13.9703 46.9948 14.2031C47.2448 14.3906 47.4792 14.625 47.7604 14.7344C49.4011 15.3906 49.2136 15.4844 49.4323 17.1094C49.5886 18.2656 49.6042 18.2344 50.7917 18.2031C51.1823 18.1875 51.3542 18.0312 51.4011 17.6562C51.4636 17.1719 51.5417 16.6875 51.6042 16.2031C51.6823 15.6406 51.9011 15.2188 52.5104 15.0469C52.8386 14.9531 53.1823 14.7812 53.4167 14.5469C54.0729 13.8906 54.7448 13.9219 55.4792 14.3281C55.6042 14.3906 55.7292 14.4375 55.8542 14.5C57.0104 15 57.0104 15 57.6198 13.8906C57.7917 13.5625 57.7604 13.3594 57.4792 13.1406C57.0417 12.8125 56.6198 12.4688 56.1823 12.1406C55.7448 11.8125 55.5417 11.4375 55.6979 10.875C55.7761 10.5938 55.8229 10.2969 55.7448 10C55.4792 9.04688 55.7604 8.3125 56.6354 7.82812C56.7292 7.76562 56.8229 7.6875 56.9167 7.60938C58.0261 6.75 57.8854 6.98438 57.2604 5.82812C57.0729 5.48437 56.8542 5.42188 56.4948 5.57812C55.9636 5.8125 55.4011 6.01562 54.8698 6.23438C54.4792 6.39062 54.1198 6.35938 53.7917 6.04688C53.4167 5.6875 52.9636 5.45312 52.4792 5.28125C51.9011 5.09375 51.6354 4.70312 51.5729 4.10938C51.5573 3.84375 51.4948 3.5625 51.4636 3.29688C51.3073 2.01562 51.3073 2.01562 50.0417 2.10938C49.6823 2.125 49.5261 2.28125 49.4792 2.64062C49.4167 3.21875 49.3073 3.79687 49.2292 4.375C49.1667 4.79688 48.9636 5.09375 48.5261 5.21875C48.1198 5.32812 47.7448 5.51563 47.4479 5.79688C46.7917 6.4375 46.1198 6.42188 45.3698 6C45.2448 5.9375 45.1198 5.89062 44.9948 5.84375C43.8854 5.39062 43.9011 5.40625 43.2917 6.40625C43.0729 6.76562 43.0886 6.98437 43.4479 7.23438C43.9479 7.57812 44.4011 7.96875 44.8698 8.35938C45.1511 8.57812 45.3073 8.85938 45.2136 9.23438C45.0886 9.8125 45.1042 10.3906 45.2136 10.9844C45.3073 11.4531 45.1511 11.8125 44.7604 12.1094C44.2917 12.4531 43.8386 12.8281 43.3698 13.1875C43.2448 13.2812 43.0573 13.3594 43.1198 13.5469C43.2917 14 43.4948 14.4688 43.8542 14.7969C44.1198 15.0469 44.4323 14.7344 44.7136 14.6406C45.1579 14.4925 45.5521 14.3086 45.9349 14.1664Z" fill="url(#paint11_radial_325_2506)"/>
<path d="M48.5416 39.875C49.026 39.875 49.5103 39.8594 50.0103 39.875C50.6978 39.9063 51.0103 40.25 50.9478 40.9375C50.7447 43.0469 50.5103 45.1719 50.2916 47.2812C50.151 48.5781 50.0103 49.875 49.8697 51.1719C49.7916 51.9844 49.4322 52.2812 48.526 52.2812C47.6041 52.2812 47.2447 51.9844 47.151 51.2031C46.7916 47.8438 46.4322 44.5 46.0572 41.1406C45.9635 40.2656 46.2603 39.8906 47.1353 39.875C47.6041 39.8594 48.0728 39.8594 48.5416 39.875C48.5416 39.8594 48.5416 39.8594 48.5416 39.875ZM48.4592 47.5549C48.4616 47.577 48.4803 47.5938 48.5025 47.5938C48.5248 47.5938 48.5434 47.577 48.5459 47.555C48.7476 45.7395 48.9492 43.9089 49.1353 42.0938C49.2135 41.4375 48.7291 41.5781 48.3541 41.5469C47.9322 41.5 47.8072 41.6719 47.8541 42.0938C48.0713 43.909 48.2577 45.7243 48.4592 47.5549Z" fill="url(#paint12_linear_325_2506)"/>
<path d="M48.5416 39.875C49.026 39.875 49.5103 39.8594 50.0103 39.875C50.6978 39.9063 51.0103 40.25 50.9478 40.9375C50.7447 43.0469 50.5103 45.1719 50.2916 47.2812C50.151 48.5781 50.0103 49.875 49.8697 51.1719C49.7916 51.9844 49.4322 52.2812 48.526 52.2812C47.6041 52.2812 47.2447 51.9844 47.151 51.2031C46.7916 47.8438 46.4322 44.5 46.0572 41.1406C45.9635 40.2656 46.2603 39.8906 47.1353 39.875C47.6041 39.8594 48.0728 39.8594 48.5416 39.875C48.5416 39.8594 48.5416 39.8594 48.5416 39.875ZM48.4592 47.5549C48.4616 47.577 48.4803 47.5938 48.5025 47.5938C48.5248 47.5938 48.5434 47.577 48.5459 47.555C48.7476 45.7395 48.9492 43.9089 49.1353 42.0938C49.2135 41.4375 48.7291 41.5781 48.3541 41.5469C47.9322 41.5 47.8072 41.6719 47.8541 42.0938C48.0713 43.909 48.2577 45.7243 48.4592 47.5549Z" fill="url(#paint13_radial_325_2506)"/>
<path d="M48.5416 39.875C49.026 39.875 49.5103 39.8594 50.0103 39.875C50.6978 39.9063 51.0103 40.25 50.9478 40.9375C50.7447 43.0469 50.5103 45.1719 50.2916 47.2812C50.151 48.5781 50.0103 49.875 49.8697 51.1719C49.7916 51.9844 49.4322 52.2812 48.526 52.2812C47.6041 52.2812 47.2447 51.9844 47.151 51.2031C46.7916 47.8438 46.4322 44.5 46.0572 41.1406C45.9635 40.2656 46.2603 39.8906 47.1353 39.875C47.6041 39.8594 48.0728 39.8594 48.5416 39.875C48.5416 39.8594 48.5416 39.8594 48.5416 39.875ZM48.4592 47.5549C48.4616 47.577 48.4803 47.5938 48.5025 47.5938C48.5248 47.5938 48.5434 47.577 48.5459 47.555C48.7476 45.7395 48.9492 43.9089 49.1353 42.0938C49.2135 41.4375 48.7291 41.5781 48.3541 41.5469C47.9322 41.5 47.8072 41.6719 47.8541 42.0938C48.0713 43.909 48.2577 45.7243 48.4592 47.5549Z" fill="url(#paint14_radial_325_2506)"/>
<path d="M48.4948 52.625C49.9323 52.625 51.0573 53.75 51.0573 55.1875C51.0573 56.5938 49.9323 57.7031 48.526 57.7188C47.0885 57.7188 45.9635 56.6094 45.9792 55.1562C45.9635 53.7344 47.0729 52.625 48.4948 52.625ZM48.4792 54.3125C48.0104 54.3281 47.651 54.7188 47.6667 55.2031C47.6823 55.6875 48.0885 56.0469 48.5573 56.0156C49.0104 55.9844 49.3385 55.6094 49.3385 55.1562C49.3385 54.6719 48.9479 54.2969 48.4792 54.3125Z" fill="url(#paint15_linear_325_2506)"/>
<path d="M48.4948 52.625C49.9323 52.625 51.0573 53.75 51.0573 55.1875C51.0573 56.5938 49.9323 57.7031 48.526 57.7188C47.0885 57.7188 45.9635 56.6094 45.9792 55.1562C45.9635 53.7344 47.0729 52.625 48.4948 52.625ZM48.4792 54.3125C48.0104 54.3281 47.651 54.7188 47.6667 55.2031C47.6823 55.6875 48.0885 56.0469 48.5573 56.0156C49.0104 55.9844 49.3385 55.6094 49.3385 55.1562C49.3385 54.6719 48.9479 54.2969 48.4792 54.3125Z" fill="url(#paint16_radial_325_2506)"/>
<path d="M48.4948 52.625C49.9323 52.625 51.0573 53.75 51.0573 55.1875C51.0573 56.5938 49.9323 57.7031 48.526 57.7188C47.0885 57.7188 45.9635 56.6094 45.9792 55.1562C45.9635 53.7344 47.0729 52.625 48.4948 52.625ZM48.4792 54.3125C48.0104 54.3281 47.651 54.7188 47.6667 55.2031C47.6823 55.6875 48.0885 56.0469 48.5573 56.0156C49.0104 55.9844 49.3385 55.6094 49.3385 55.1562C49.3385 54.6719 48.9479 54.2969 48.4792 54.3125Z" fill="url(#paint17_radial_325_2506)"/>
<path d="M13.6041 18.1094C11.151 18.1094 9.18222 16.1875 9.18222 13.75C9.1666 11.2969 11.151 9.28125 13.5728 9.28125C16.026 9.28125 18.0103 11.2344 18.0103 13.6875C18.0103 16.1719 16.0885 18.1094 13.6041 18.1094ZM16.3228 13.7187C16.3385 12.1875 15.1353 10.9531 13.6041 10.9375C12.1197 10.9219 10.8541 12.1875 10.8541 13.7031C10.8385 15.2031 12.0572 16.4219 13.5572 16.4219C15.1197 16.4375 16.3228 15.2656 16.3228 13.7187Z" fill="url(#paint18_linear_325_2506)"/>
<path d="M13.6041 18.1094C11.151 18.1094 9.18222 16.1875 9.18222 13.75C9.1666 11.2969 11.151 9.28125 13.5728 9.28125C16.026 9.28125 18.0103 11.2344 18.0103 13.6875C18.0103 16.1719 16.0885 18.1094 13.6041 18.1094ZM16.3228 13.7187C16.3385 12.1875 15.1353 10.9531 13.6041 10.9375C12.1197 10.9219 10.8541 12.1875 10.8541 13.7031C10.8385 15.2031 12.0572 16.4219 13.5572 16.4219C15.1197 16.4375 16.3228 15.2656 16.3228 13.7187Z" fill="url(#paint19_radial_325_2506)"/>
<path d="M13.6041 18.1094C11.151 18.1094 9.18222 16.1875 9.18222 13.75C9.1666 11.2969 11.151 9.28125 13.5728 9.28125C16.026 9.28125 18.0103 11.2344 18.0103 13.6875C18.0103 16.1719 16.0885 18.1094 13.6041 18.1094ZM16.3228 13.7187C16.3385 12.1875 15.1353 10.9531 13.6041 10.9375C12.1197 10.9219 10.8541 12.1875 10.8541 13.7031C10.8385 15.2031 12.0572 16.4219 13.5572 16.4219C15.1197 16.4375 16.3228 15.2656 16.3228 13.7187Z" fill="url(#paint20_radial_325_2506)"/>
<path d="M9.99475 53.8281C8.026 53.8125 6.36975 52.125 6.41662 50.1562C6.44787 48.2031 8.10412 46.625 10.0729 46.6406C11.9947 46.6562 13.651 48.3125 13.6354 50.2031C13.6197 52.1875 11.9479 53.8437 9.99475 53.8281ZM8.151 50.2344C8.151 51.3437 8.93225 52.1406 10.0104 52.1406C11.0885 52.1406 11.8697 51.3281 11.8697 50.2187C11.8697 49.0937 11.1041 48.3281 9.99475 48.3281C8.91662 48.3281 8.151 49.125 8.151 50.2344Z" fill="url(#paint21_linear_325_2506)"/>
<path d="M9.99475 53.8281C8.026 53.8125 6.36975 52.125 6.41662 50.1562C6.44787 48.2031 8.10412 46.625 10.0729 46.6406C11.9947 46.6562 13.651 48.3125 13.6354 50.2031C13.6197 52.1875 11.9479 53.8437 9.99475 53.8281ZM8.151 50.2344C8.151 51.3437 8.93225 52.1406 10.0104 52.1406C11.0885 52.1406 11.8697 51.3281 11.8697 50.2187C11.8697 49.0937 11.1041 48.3281 9.99475 48.3281C8.91662 48.3281 8.151 49.125 8.151 50.2344Z" fill="url(#paint22_radial_325_2506)"/>
<path d="M9.99475 53.8281C8.026 53.8125 6.36975 52.125 6.41662 50.1562C6.44787 48.2031 8.10412 46.625 10.0729 46.6406C11.9947 46.6562 13.651 48.3125 13.6354 50.2031C13.6197 52.1875 11.9479 53.8437 9.99475 53.8281ZM8.151 50.2344C8.151 51.3437 8.93225 52.1406 10.0104 52.1406C11.0885 52.1406 11.8697 51.3281 11.8697 50.2187C11.8697 49.0937 11.1041 48.3281 9.99475 48.3281C8.91662 48.3281 8.151 49.125 8.151 50.2344Z" fill="url(#paint23_radial_325_2506)"/>
<path d="M50.526 6.79688C52.4322 6.8125 53.8854 8.29688 53.8698 10.25C53.8541 12.1094 52.3072 13.6406 50.4635 13.6094C48.6197 13.6094 47.0416 12.0313 47.0416 10.2188C47.0416 8.3125 48.5885 6.79688 50.526 6.79688ZM48.8072 10.2031C48.8072 11.2344 49.5104 11.9688 50.5104 11.9531C51.4635 11.9375 52.1822 11.2031 52.1822 10.2188C52.1822 9.21875 51.4791 8.5 50.5104 8.48438C49.4479 8.46875 48.8072 9.10938 48.8072 10.2031Z" fill="url(#paint24_linear_325_2506)"/>
<path d="M50.526 6.79688C52.4322 6.8125 53.8854 8.29688 53.8698 10.25C53.8541 12.1094 52.3072 13.6406 50.4635 13.6094C48.6197 13.6094 47.0416 12.0313 47.0416 10.2188C47.0416 8.3125 48.5885 6.79688 50.526 6.79688ZM48.8072 10.2031C48.8072 11.2344 49.5104 11.9688 50.5104 11.9531C51.4635 11.9375 52.1822 11.2031 52.1822 10.2188C52.1822 9.21875 51.4791 8.5 50.5104 8.48438C49.4479 8.46875 48.8072 9.10938 48.8072 10.2031Z" fill="url(#paint25_radial_325_2506)"/>
<path d="M50.526 6.79688C52.4322 6.8125 53.8854 8.29688 53.8698 10.25C53.8541 12.1094 52.3072 13.6406 50.4635 13.6094C48.6197 13.6094 47.0416 12.0313 47.0416 10.2188C47.0416 8.3125 48.5885 6.79688 50.526 6.79688ZM48.8072 10.2031C48.8072 11.2344 49.5104 11.9688 50.5104 11.9531C51.4635 11.9375 52.1822 11.2031 52.1822 10.2188C52.1822 9.21875 51.4791 8.5 50.5104 8.48438C49.4479 8.46875 48.8072 9.10938 48.8072 10.2031Z" fill="url(#paint26_radial_325_2506)"/>
</g>
<defs>
<linearGradient id="paint0_linear_325_2506" x1="36.2129" y1="39.3379" x2="15.7298" y2="37.1335" gradientUnits="userSpaceOnUse">
<stop stop-color="#8B00FF"/>
<stop offset="1" stop-color="#EB00FF"/>
</linearGradient>
<radialGradient id="paint1_radial_325_2506" cx="0" cy="0" r="1" gradientUnits="userSpaceOnUse" gradientTransform="translate(47.8553 67.4184) rotate(-46.5598) scale(17.9355 17.4078)">
<stop stop-color="#0066FF"/>
<stop offset="1" stop-color="#00E0FF" stop-opacity="0"/>
</radialGradient>
<radialGradient id="paint2_radial_325_2506" cx="0" cy="0" r="1" gradientUnits="userSpaceOnUse" gradientTransform="translate(20.6896 9.22258) rotate(74.9339) scale(31.1873 32.2193)">
<stop offset="0.0604609" stop-color="#FFF500"/>
<stop offset="1" stop-color="#8B00FF" stop-opacity="0"/>
</radialGradient>
<linearGradient id="paint3_linear_325_2506" x1="11.0762" y1="13.6934" x2="-1.89891" y2="12.274" gradientUnits="userSpaceOnUse">
<stop stop-color="#8B00FF"/>
<stop offset="1" stop-color="#EB00FF"/>
</linearGradient>
<radialGradient id="paint4_radial_325_2506" cx="0" cy="0" r="1" gradientUnits="userSpaceOnUse" gradientTransform="translate(18.454 31.1999) rotate(-46.093) scale(11.2691 10.9458)">
<stop stop-color="#0066FF"/>
<stop offset="1" stop-color="#00E0FF" stop-opacity="0"/>
</radialGradient>
<radialGradient id="paint5_radial_325_2506" cx="0" cy="0" r="1" gradientUnits="userSpaceOnUse" gradientTransform="translate(1.23916 -5.08181) rotate(74.6977) scale(19.4653 20.3944)">
<stop offset="0.0604609" stop-color="#FFF500"/>
<stop offset="1" stop-color="#8B00FF" stop-opacity="0"/>
</radialGradient>
<linearGradient id="paint6_linear_325_2506" x1="8.06931" y1="50.2363" x2="-2.01863" y2="49.1352" gradientUnits="userSpaceOnUse">
<stop stop-color="#8B00FF"/>
<stop offset="1" stop-color="#EB00FF"/>
</linearGradient>
<radialGradient id="paint7_radial_325_2506" cx="0" cy="0" r="1" gradientUnits="userSpaceOnUse" gradientTransform="translate(13.8051 63.8762) rotate(-46.1549) scale(8.77092 8.51858)">
<stop stop-color="#0066FF"/>
<stop offset="1" stop-color="#00E0FF" stop-opacity="0"/>
</radialGradient>
<radialGradient id="paint8_radial_325_2506" cx="0" cy="0" r="1" gradientUnits="userSpaceOnUse" gradientTransform="translate(0.421551 35.6081) rotate(74.7292) scale(15.1636 15.8579)">
<stop offset="0.0604609" stop-color="#FFF500"/>
<stop offset="1" stop-color="#8B00FF" stop-opacity="0"/>
</radialGradient>
<linearGradient id="paint9_linear_325_2506" x1="48.6242" y1="10.2324" x2="39.0684" y2="9.18887" gradientUnits="userSpaceOnUse">
<stop stop-color="#8B00FF"/>
<stop offset="1" stop-color="#EB00FF"/>
</linearGradient>
<radialGradient id="paint10_radial_325_2506" cx="0" cy="0" r="1" gradientUnits="userSpaceOnUse" gradientTransform="translate(54.0575 23.1466) rotate(-46.141) scale(8.30623 8.06741)">
<stop stop-color="#0066FF"/>
<stop offset="1" stop-color="#00E0FF" stop-opacity="0"/>
</radialGradient>
<radialGradient id="paint11_radial_325_2506" cx="0" cy="0" r="1" gradientUnits="userSpaceOnUse" gradientTransform="translate(41.3798 -3.61756) rotate(74.7221) scale(14.3574 15.021)">
<stop offset="0.0604609" stop-color="#FFF500"/>
<stop offset="1" stop-color="#8B00FF" stop-opacity="0"/>
</radialGradient>
<linearGradient id="paint12_linear_325_2506" x1="48.0112" y1="46.0723" x2="45.471" y2="45.9578" gradientUnits="userSpaceOnUse">
<stop stop-color="#8B00FF"/>
<stop offset="1" stop-color="#EB00FF"/>
</linearGradient>
<radialGradient id="paint13_radial_325_2506" cx="0" cy="0" r="1" gradientUnits="userSpaceOnUse" gradientTransform="translate(49.4414 54.3111) rotate(-68.3721) scale(4.11029 2.73779)">
<stop stop-color="#0066FF"/>
<stop offset="1" stop-color="#00E0FF" stop-opacity="0"/>
</radialGradient>
<radialGradient id="paint14_radial_325_2506" cx="0" cy="0" r="1" gradientUnits="userSpaceOnUse" gradientTransform="translate(46.1042 37.2364) rotate(83.5696) scale(8.8918 4.07305)">
<stop offset="0.0604609" stop-color="#FFF500"/>
<stop offset="1" stop-color="#8B00FF" stop-opacity="0"/>
</radialGradient>
<linearGradient id="paint15_linear_325_2506" x1="48.015" y1="55.1719" x2="45.4185" y2="54.8772" gradientUnits="userSpaceOnUse">
<stop stop-color="#8B00FF"/>
<stop offset="1" stop-color="#EB00FF"/>
</linearGradient>
<radialGradient id="paint16_radial_325_2506" cx="0" cy="0" r="1" gradientUnits="userSpaceOnUse" gradientTransform="translate(49.4927 58.5514) rotate(-45.0369) scale(2.21508 2.1531)">
<stop stop-color="#0066FF"/>
<stop offset="1" stop-color="#00E0FF" stop-opacity="0"/>
</radialGradient>
<radialGradient id="paint17_radial_325_2506" cx="0" cy="0" r="1" gradientUnits="userSpaceOnUse" gradientTransform="translate(46.0447 51.5475) rotate(74.1513) scale(3.76762 4.07402)">
<stop offset="0.0604609" stop-color="#FFF500"/>
<stop offset="1" stop-color="#8B00FF" stop-opacity="0"/>
</radialGradient>
<linearGradient id="paint18_linear_325_2506" x1="12.7215" y1="13.6953" x2="8.20808" y2="13.1815" gradientUnits="userSpaceOnUse">
<stop stop-color="#8B00FF"/>
<stop offset="1" stop-color="#EB00FF"/>
</linearGradient>
<radialGradient id="paint19_radial_325_2506" cx="0" cy="0" r="1" gradientUnits="userSpaceOnUse" gradientTransform="translate(15.2904 19.5524) rotate(-44.9495) scale(3.84488 3.73729)">
<stop stop-color="#0066FF"/>
<stop offset="1" stop-color="#00E0FF" stop-opacity="0"/>
</radialGradient>
<radialGradient id="paint20_radial_325_2506" cx="0" cy="0" r="1" gradientUnits="userSpaceOnUse" gradientTransform="translate(9.2963 7.41376) rotate(74.1053) scale(6.53126 7.08076)">
<stop offset="0.0604609" stop-color="#FFF500"/>
<stop offset="1" stop-color="#8B00FF" stop-opacity="0"/>
</radialGradient>
<linearGradient id="paint21_linear_325_2506" x1="9.3102" y1="50.2344" x2="5.61948" y2="49.8123" gradientUnits="userSpaceOnUse">
<stop stop-color="#8B00FF"/>
<stop offset="1" stop-color="#EB00FF"/>
</linearGradient>
<radialGradient id="paint22_radial_325_2506" cx="0" cy="0" r="1" gradientUnits="userSpaceOnUse" gradientTransform="translate(11.4111 55.0031) rotate(-44.8221) scale(3.13744 3.04959)">
<stop stop-color="#0066FF"/>
<stop offset="1" stop-color="#00E0FF" stop-opacity="0"/>
</radialGradient>
<radialGradient id="paint23_radial_325_2506" cx="0" cy="0" r="1" gradientUnits="userSpaceOnUse" gradientTransform="translate(6.50902 45.12) rotate(74.0381) scale(5.31944 5.7888)">
<stop offset="0.0604609" stop-color="#FFF500"/>
<stop offset="1" stop-color="#8B00FF" stop-opacity="0"/>
</radialGradient>
<linearGradient id="paint24_linear_325_2506" x1="49.7792" y1="10.2034" x2="46.2884" y2="9.80507" gradientUnits="userSpaceOnUse">
<stop stop-color="#8B00FF"/>
<stop offset="1" stop-color="#EB00FF"/>
</linearGradient>
<radialGradient id="paint25_radial_325_2506" cx="0" cy="0" r="1" gradientUnits="userSpaceOnUse" gradientTransform="translate(51.7661 14.7235) rotate(-44.8856) scale(2.97055 2.88741)">
<stop stop-color="#0066FF"/>
<stop offset="1" stop-color="#00E0FF" stop-opacity="0"/>
</radialGradient>
<radialGradient id="paint26_radial_325_2506" cx="0" cy="0" r="1" gradientUnits="userSpaceOnUse" gradientTransform="translate(47.1299 5.35567) rotate(74.0716) scale(5.04125 5.47575)">
<stop offset="0.0604609" stop-color="#FFF500"/>
<stop offset="1" stop-color="#8B00FF" stop-opacity="0"/>
</radialGradient>
<clipPath id="clip0_325_2506">
<rect width="60" height="60" fill="white" transform="translate(0.166626 0.5)"/>
</clipPath>
</defs>
</svg>
