<svg width="61" height="60" viewBox="0 0 61 60" fill="none" xmlns="http://www.w3.org/2000/svg">
<g clip-path="url(#clip0_325_2534)">
<path d="M27.088 -0.000137017C28.3383 0.000128131 29.4771 0.541123 29.6365 1.78125C29.9256 3.76562 30.1987 5.76562 30.4558 7.75C30.504 8.10937 30.6646 8.29688 31.002 8.42188C32.3513 8.96875 33.6044 9.65625 34.7449 10.5312C35.0983 10.8125 35.4036 10.7187 35.7409 10.5781C37.8132 9.75 39.9016 8.90625 41.9738 8.07812C42.9377 7.6875 43.1465 7.75 43.6767 8.625C44.9618 10.7656 46.2309 12.9219 47.4999 15.0625C48.0301 15.9688 47.9658 16.2344 47.0983 16.875C46.263 17.4844 45.4437 18.1094 44.6084 18.7188C44.3353 18.9219 44.2228 19.0781 44.5602 19.3438C48.1586 22.25 51.9979 24.7344 56.5923 25.9063C57.5883 26.1563 58.6003 26.2969 59.6285 26.3125C60.4799 26.3281 60.8172 26.625 60.8172 27.4375C60.9457 36.375 58.9538 44.7188 53.2509 51.9531C50.7289 55.1562 47.5481 57.6406 43.9016 59.5625C43.7852 59.6271 43.6689 59.6918 43.5526 59.7564C43.339 59.8752 43.0986 59.9375 42.8541 59.9375C42.624 59.9375 42.3971 59.8827 42.1936 59.7753C40.0745 58.6572 38.0618 57.3769 36.2389 55.8125C33.7489 53.7031 31.6927 51.25 30.0542 48.4531C29.6847 47.8125 29.267 47.6094 28.5441 47.625C25.8614 47.6719 23.1626 47.6406 20.4799 47.6406C19.4839 47.6406 19.2429 47.4219 19.1305 46.4688C18.8413 44.3281 18.5522 42.1719 18.263 40.0313C18.1987 39.5938 18.0381 39.2969 17.5722 39.125C16.3032 38.6719 15.1626 37.9688 14.0863 37.1719C13.6526 36.8438 13.2991 36.8438 12.8172 37.0469C10.7931 37.9688 8.75295 38.7656 6.71279 39.5781C5.79713 39.9375 5.47585 39.8281 4.99392 39.0156C3.72484 36.875 2.45577 34.7188 1.17062 32.5781C0.656568 31.7031 0.688697 31.4375 1.52404 30.8125C3.27504 29.5 5.00998 28.1875 6.77705 26.8906C7.19472 26.5781 7.32324 26.2813 7.25898 25.75C7.08227 24.4688 7.08227 23.1719 7.25898 21.9062C7.32324 21.4062 7.19472 21.1094 6.79311 20.8125C5.00998 19.5 3.25898 18.1719 1.49191 16.8594C0.688697 16.25 0.640504 16 1.15456 15.1406C2.4397 12.9688 3.72484 10.8125 5.00998 8.64062C5.47585 7.84375 5.78107 7.73438 6.68067 8.07812C8.78508 8.90625 10.8734 9.75 12.9618 10.5938C13.3634 10.75 13.6526 10.7344 14.006 10.4688C15.0983 9.64062 16.3032 8.95312 17.5883 8.45312C18.022 8.28125 18.1987 8 18.2469 7.57812C18.5361 5.4375 18.8252 3.28125 19.1144 1.14062C19.2335 0.329832 20.0749 -0.0131252 20.8944 -0.0100841C22.9634 -0.00240631 25.0264 -0.000574199 27.088 -0.000137017ZM24.753 46.0469C25.7971 46.0469 26.8413 46.0469 27.8855 46.0469C28.6726 46.0469 28.6726 46.0469 28.3674 45.3594C26.761 41.8594 25.7811 38.1875 25.2831 34.375C25.2028 33.8125 24.9939 33.625 24.3995 33.625C21.6847 33.6406 19.3072 32.7188 17.3634 30.8906C12.6726 26.5 13.3795 19.2031 18.7931 15.6562C23.9497 12.2656 31.2269 14.4063 33.6044 20C34.0542 21.0781 34.3273 22.1875 34.4076 23.3438C34.4397 23.75 34.6003 23.8594 34.9698 23.625C35.3393 23.3906 35.7248 23.1875 36.1104 22.9688C39.5642 21 42.3594 18.2031 45.5722 15.9375C45.8453 15.75 45.7971 15.5312 45.6365 15.2812C44.6405 13.625 43.6445 11.9844 42.6807 10.3125C42.4397 9.89062 42.2148 9.79688 41.7329 9.98438C39.773 10.7969 37.7971 11.5469 35.8373 12.375C35.1465 12.6562 34.6164 12.625 34.022 12.125C32.8333 11.125 31.4517 10.375 29.9738 9.84375C29.1867 9.5625 28.8333 9.10938 28.7369 8.3125C28.4959 6.26562 28.1746 4.21875 27.9176 2.15625C27.8694 1.75 27.7088 1.625 27.3072 1.625C25.3152 1.64062 23.3393 1.64062 21.3473 1.625C20.9136 1.625 20.753 1.79688 20.7048 2.20312C20.4317 4.32812 20.1264 6.45312 19.8534 8.59375C19.773 9.15625 19.516 9.51562 18.9538 9.71875C17.3152 10.2969 15.8212 11.125 14.4879 12.2187C14.006 12.6094 13.5722 12.6562 12.9939 12.4219C11.0019 11.5938 8.97785 10.8281 6.98589 10C6.47183 9.78125 6.19874 9.89062 5.92564 10.3594C5.00998 11.9688 4.06219 13.5469 3.09834 15.125C2.84131 15.5469 2.87344 15.7969 3.29111 16.0938C5.00998 17.3438 6.69673 18.6406 8.4156 19.9062C8.94572 20.2969 9.18669 20.7188 9.05818 21.4062C8.76902 23.0312 8.76902 24.6719 9.05818 26.2969C9.17062 26.8906 8.99392 27.2969 8.51199 27.6562C6.77705 28.9375 5.0903 30.2344 3.35536 31.5C2.90556 31.8281 2.84131 32.0781 3.13046 32.5469C4.09432 34.0938 5.02605 35.6719 5.94171 37.2656C6.2148 37.75 6.47183 37.8281 6.98589 37.625C8.99392 36.7969 11.0341 36.0156 13.0421 35.1719C13.5722 34.9531 13.9899 35.0156 14.4236 35.375C15.757 36.4688 17.2509 37.3125 18.8895 37.8906C19.5321 38.125 19.7891 38.5156 19.8694 39.1562C20.1425 41.25 20.4477 43.3281 20.7208 45.4219C20.7851 45.8594 20.9779 46.0312 21.4277 46.0156C22.5361 46.0312 23.6445 46.0469 24.753 46.0469ZM59.1305 29.5156C59.1305 29.3281 59.1305 29.125 59.1305 28.9375C59.1305 28.0312 59.1305 28.0312 58.2469 27.9219C56.1104 27.6875 54.0863 27.0469 52.1586 26.1875C48.9297 24.7344 46.006 22.8281 43.3393 20.5312C43.0019 20.25 42.7771 20.1875 42.4397 20.5312C42.006 20.9531 41.508 21.3281 41.01 21.7031C36.8975 24.7969 32.5281 27.3438 27.2269 27.9531C26.761 28 26.6325 28.2188 26.6325 28.6562C26.6325 30.125 26.7128 31.5781 26.8574 33.0312C27.4196 38.3438 28.8975 43.375 31.7248 47.9844C34.3112 52.2188 37.8293 55.5469 42.263 57.9531C42.6967 58.1875 43.0501 58.1875 43.4839 57.9531C48.014 55.4844 51.5963 52.0469 54.1987 47.6875C57.5562 42.0625 58.9216 35.9375 59.1305 29.5156ZM16.0301 23.8281C16.0301 28.2969 19.7088 31.9531 24.2228 31.9844C24.769 31.9844 24.9618 31.8281 24.9457 31.2812C24.9136 30.0156 24.9136 28.75 24.9297 27.4844C24.9457 26.7188 25.267 26.3906 26.006 26.375C27.6606 26.3281 29.267 25.9844 30.8252 25.4688C32.7851 24.8125 32.9136 24.625 32.5923 22.6094C31.9176 18.4531 28.014 15.4219 23.773 15.75C19.3554 16.0781 16.0301 19.5469 16.0301 23.8281Z" fill="url(#paint0_linear_325_2534)"/>
<path d="M27.088 -0.000137017C28.3383 0.000128131 29.4771 0.541123 29.6365 1.78125C29.9256 3.76562 30.1987 5.76562 30.4558 7.75C30.504 8.10937 30.6646 8.29688 31.002 8.42188C32.3513 8.96875 33.6044 9.65625 34.7449 10.5312C35.0983 10.8125 35.4036 10.7187 35.7409 10.5781C37.8132 9.75 39.9016 8.90625 41.9738 8.07812C42.9377 7.6875 43.1465 7.75 43.6767 8.625C44.9618 10.7656 46.2309 12.9219 47.4999 15.0625C48.0301 15.9688 47.9658 16.2344 47.0983 16.875C46.263 17.4844 45.4437 18.1094 44.6084 18.7188C44.3353 18.9219 44.2228 19.0781 44.5602 19.3438C48.1586 22.25 51.9979 24.7344 56.5923 25.9063C57.5883 26.1563 58.6003 26.2969 59.6285 26.3125C60.4799 26.3281 60.8172 26.625 60.8172 27.4375C60.9457 36.375 58.9538 44.7188 53.2509 51.9531C50.7289 55.1562 47.5481 57.6406 43.9016 59.5625C43.7852 59.6271 43.6689 59.6918 43.5526 59.7564C43.339 59.8752 43.0986 59.9375 42.8541 59.9375C42.624 59.9375 42.3971 59.8827 42.1936 59.7753C40.0745 58.6572 38.0618 57.3769 36.2389 55.8125C33.7489 53.7031 31.6927 51.25 30.0542 48.4531C29.6847 47.8125 29.267 47.6094 28.5441 47.625C25.8614 47.6719 23.1626 47.6406 20.4799 47.6406C19.4839 47.6406 19.2429 47.4219 19.1305 46.4688C18.8413 44.3281 18.5522 42.1719 18.263 40.0313C18.1987 39.5938 18.0381 39.2969 17.5722 39.125C16.3032 38.6719 15.1626 37.9688 14.0863 37.1719C13.6526 36.8438 13.2991 36.8438 12.8172 37.0469C10.7931 37.9688 8.75295 38.7656 6.71279 39.5781C5.79713 39.9375 5.47585 39.8281 4.99392 39.0156C3.72484 36.875 2.45577 34.7188 1.17062 32.5781C0.656568 31.7031 0.688697 31.4375 1.52404 30.8125C3.27504 29.5 5.00998 28.1875 6.77705 26.8906C7.19472 26.5781 7.32324 26.2813 7.25898 25.75C7.08227 24.4688 7.08227 23.1719 7.25898 21.9062C7.32324 21.4062 7.19472 21.1094 6.79311 20.8125C5.00998 19.5 3.25898 18.1719 1.49191 16.8594C0.688697 16.25 0.640504 16 1.15456 15.1406C2.4397 12.9688 3.72484 10.8125 5.00998 8.64062C5.47585 7.84375 5.78107 7.73438 6.68067 8.07812C8.78508 8.90625 10.8734 9.75 12.9618 10.5938C13.3634 10.75 13.6526 10.7344 14.006 10.4688C15.0983 9.64062 16.3032 8.95312 17.5883 8.45312C18.022 8.28125 18.1987 8 18.2469 7.57812C18.5361 5.4375 18.8252 3.28125 19.1144 1.14062C19.2335 0.329832 20.0749 -0.0131252 20.8944 -0.0100841C22.9634 -0.00240631 25.0264 -0.000574199 27.088 -0.000137017ZM24.753 46.0469C25.7971 46.0469 26.8413 46.0469 27.8855 46.0469C28.6726 46.0469 28.6726 46.0469 28.3674 45.3594C26.761 41.8594 25.7811 38.1875 25.2831 34.375C25.2028 33.8125 24.9939 33.625 24.3995 33.625C21.6847 33.6406 19.3072 32.7188 17.3634 30.8906C12.6726 26.5 13.3795 19.2031 18.7931 15.6562C23.9497 12.2656 31.2269 14.4063 33.6044 20C34.0542 21.0781 34.3273 22.1875 34.4076 23.3438C34.4397 23.75 34.6003 23.8594 34.9698 23.625C35.3393 23.3906 35.7248 23.1875 36.1104 22.9688C39.5642 21 42.3594 18.2031 45.5722 15.9375C45.8453 15.75 45.7971 15.5312 45.6365 15.2812C44.6405 13.625 43.6445 11.9844 42.6807 10.3125C42.4397 9.89062 42.2148 9.79688 41.7329 9.98438C39.773 10.7969 37.7971 11.5469 35.8373 12.375C35.1465 12.6562 34.6164 12.625 34.022 12.125C32.8333 11.125 31.4517 10.375 29.9738 9.84375C29.1867 9.5625 28.8333 9.10938 28.7369 8.3125C28.4959 6.26562 28.1746 4.21875 27.9176 2.15625C27.8694 1.75 27.7088 1.625 27.3072 1.625C25.3152 1.64062 23.3393 1.64062 21.3473 1.625C20.9136 1.625 20.753 1.79688 20.7048 2.20312C20.4317 4.32812 20.1264 6.45312 19.8534 8.59375C19.773 9.15625 19.516 9.51562 18.9538 9.71875C17.3152 10.2969 15.8212 11.125 14.4879 12.2187C14.006 12.6094 13.5722 12.6562 12.9939 12.4219C11.0019 11.5938 8.97785 10.8281 6.98589 10C6.47183 9.78125 6.19874 9.89062 5.92564 10.3594C5.00998 11.9688 4.06219 13.5469 3.09834 15.125C2.84131 15.5469 2.87344 15.7969 3.29111 16.0938C5.00998 17.3438 6.69673 18.6406 8.4156 19.9062C8.94572 20.2969 9.18669 20.7188 9.05818 21.4062C8.76902 23.0312 8.76902 24.6719 9.05818 26.2969C9.17062 26.8906 8.99392 27.2969 8.51199 27.6562C6.77705 28.9375 5.0903 30.2344 3.35536 31.5C2.90556 31.8281 2.84131 32.0781 3.13046 32.5469C4.09432 34.0938 5.02605 35.6719 5.94171 37.2656C6.2148 37.75 6.47183 37.8281 6.98589 37.625C8.99392 36.7969 11.0341 36.0156 13.0421 35.1719C13.5722 34.9531 13.9899 35.0156 14.4236 35.375C15.757 36.4688 17.2509 37.3125 18.8895 37.8906C19.5321 38.125 19.7891 38.5156 19.8694 39.1562C20.1425 41.25 20.4477 43.3281 20.7208 45.4219C20.7851 45.8594 20.9779 46.0312 21.4277 46.0156C22.5361 46.0312 23.6445 46.0469 24.753 46.0469ZM59.1305 29.5156C59.1305 29.3281 59.1305 29.125 59.1305 28.9375C59.1305 28.0312 59.1305 28.0312 58.2469 27.9219C56.1104 27.6875 54.0863 27.0469 52.1586 26.1875C48.9297 24.7344 46.006 22.8281 43.3393 20.5312C43.0019 20.25 42.7771 20.1875 42.4397 20.5312C42.006 20.9531 41.508 21.3281 41.01 21.7031C36.8975 24.7969 32.5281 27.3438 27.2269 27.9531C26.761 28 26.6325 28.2188 26.6325 28.6562C26.6325 30.125 26.7128 31.5781 26.8574 33.0312C27.4196 38.3438 28.8975 43.375 31.7248 47.9844C34.3112 52.2188 37.8293 55.5469 42.263 57.9531C42.6967 58.1875 43.0501 58.1875 43.4839 57.9531C48.014 55.4844 51.5963 52.0469 54.1987 47.6875C57.5562 42.0625 58.9216 35.9375 59.1305 29.5156ZM16.0301 23.8281C16.0301 28.2969 19.7088 31.9531 24.2228 31.9844C24.769 31.9844 24.9618 31.8281 24.9457 31.2812C24.9136 30.0156 24.9136 28.75 24.9297 27.4844C24.9457 26.7188 25.267 26.3906 26.006 26.375C27.6606 26.3281 29.267 25.9844 30.8252 25.4688C32.7851 24.8125 32.9136 24.625 32.5923 22.6094C31.9176 18.4531 28.014 15.4219 23.773 15.75C19.3554 16.0781 16.0301 19.5469 16.0301 23.8281Z" fill="url(#paint1_radial_325_2534)"/>
<path d="M27.088 -0.000137017C28.3383 0.000128131 29.4771 0.541123 29.6365 1.78125C29.9256 3.76562 30.1987 5.76562 30.4558 7.75C30.504 8.10937 30.6646 8.29688 31.002 8.42188C32.3513 8.96875 33.6044 9.65625 34.7449 10.5312C35.0983 10.8125 35.4036 10.7187 35.7409 10.5781C37.8132 9.75 39.9016 8.90625 41.9738 8.07812C42.9377 7.6875 43.1465 7.75 43.6767 8.625C44.9618 10.7656 46.2309 12.9219 47.4999 15.0625C48.0301 15.9688 47.9658 16.2344 47.0983 16.875C46.263 17.4844 45.4437 18.1094 44.6084 18.7188C44.3353 18.9219 44.2228 19.0781 44.5602 19.3438C48.1586 22.25 51.9979 24.7344 56.5923 25.9063C57.5883 26.1563 58.6003 26.2969 59.6285 26.3125C60.4799 26.3281 60.8172 26.625 60.8172 27.4375C60.9457 36.375 58.9538 44.7188 53.2509 51.9531C50.7289 55.1562 47.5481 57.6406 43.9016 59.5625C43.7852 59.6271 43.6689 59.6918 43.5526 59.7564C43.339 59.8752 43.0986 59.9375 42.8541 59.9375C42.624 59.9375 42.3971 59.8827 42.1936 59.7753C40.0745 58.6572 38.0618 57.3769 36.2389 55.8125C33.7489 53.7031 31.6927 51.25 30.0542 48.4531C29.6847 47.8125 29.267 47.6094 28.5441 47.625C25.8614 47.6719 23.1626 47.6406 20.4799 47.6406C19.4839 47.6406 19.2429 47.4219 19.1305 46.4688C18.8413 44.3281 18.5522 42.1719 18.263 40.0313C18.1987 39.5938 18.0381 39.2969 17.5722 39.125C16.3032 38.6719 15.1626 37.9688 14.0863 37.1719C13.6526 36.8438 13.2991 36.8438 12.8172 37.0469C10.7931 37.9688 8.75295 38.7656 6.71279 39.5781C5.79713 39.9375 5.47585 39.8281 4.99392 39.0156C3.72484 36.875 2.45577 34.7188 1.17062 32.5781C0.656568 31.7031 0.688697 31.4375 1.52404 30.8125C3.27504 29.5 5.00998 28.1875 6.77705 26.8906C7.19472 26.5781 7.32324 26.2813 7.25898 25.75C7.08227 24.4688 7.08227 23.1719 7.25898 21.9062C7.32324 21.4062 7.19472 21.1094 6.79311 20.8125C5.00998 19.5 3.25898 18.1719 1.49191 16.8594C0.688697 16.25 0.640504 16 1.15456 15.1406C2.4397 12.9688 3.72484 10.8125 5.00998 8.64062C5.47585 7.84375 5.78107 7.73438 6.68067 8.07812C8.78508 8.90625 10.8734 9.75 12.9618 10.5938C13.3634 10.75 13.6526 10.7344 14.006 10.4688C15.0983 9.64062 16.3032 8.95312 17.5883 8.45312C18.022 8.28125 18.1987 8 18.2469 7.57812C18.5361 5.4375 18.8252 3.28125 19.1144 1.14062C19.2335 0.329832 20.0749 -0.0131252 20.8944 -0.0100841C22.9634 -0.00240631 25.0264 -0.000574199 27.088 -0.000137017ZM24.753 46.0469C25.7971 46.0469 26.8413 46.0469 27.8855 46.0469C28.6726 46.0469 28.6726 46.0469 28.3674 45.3594C26.761 41.8594 25.7811 38.1875 25.2831 34.375C25.2028 33.8125 24.9939 33.625 24.3995 33.625C21.6847 33.6406 19.3072 32.7188 17.3634 30.8906C12.6726 26.5 13.3795 19.2031 18.7931 15.6562C23.9497 12.2656 31.2269 14.4063 33.6044 20C34.0542 21.0781 34.3273 22.1875 34.4076 23.3438C34.4397 23.75 34.6003 23.8594 34.9698 23.625C35.3393 23.3906 35.7248 23.1875 36.1104 22.9688C39.5642 21 42.3594 18.2031 45.5722 15.9375C45.8453 15.75 45.7971 15.5312 45.6365 15.2812C44.6405 13.625 43.6445 11.9844 42.6807 10.3125C42.4397 9.89062 42.2148 9.79688 41.7329 9.98438C39.773 10.7969 37.7971 11.5469 35.8373 12.375C35.1465 12.6562 34.6164 12.625 34.022 12.125C32.8333 11.125 31.4517 10.375 29.9738 9.84375C29.1867 9.5625 28.8333 9.10938 28.7369 8.3125C28.4959 6.26562 28.1746 4.21875 27.9176 2.15625C27.8694 1.75 27.7088 1.625 27.3072 1.625C25.3152 1.64062 23.3393 1.64062 21.3473 1.625C20.9136 1.625 20.753 1.79688 20.7048 2.20312C20.4317 4.32812 20.1264 6.45312 19.8534 8.59375C19.773 9.15625 19.516 9.51562 18.9538 9.71875C17.3152 10.2969 15.8212 11.125 14.4879 12.2187C14.006 12.6094 13.5722 12.6562 12.9939 12.4219C11.0019 11.5938 8.97785 10.8281 6.98589 10C6.47183 9.78125 6.19874 9.89062 5.92564 10.3594C5.00998 11.9688 4.06219 13.5469 3.09834 15.125C2.84131 15.5469 2.87344 15.7969 3.29111 16.0938C5.00998 17.3438 6.69673 18.6406 8.4156 19.9062C8.94572 20.2969 9.18669 20.7188 9.05818 21.4062C8.76902 23.0312 8.76902 24.6719 9.05818 26.2969C9.17062 26.8906 8.99392 27.2969 8.51199 27.6562C6.77705 28.9375 5.0903 30.2344 3.35536 31.5C2.90556 31.8281 2.84131 32.0781 3.13046 32.5469C4.09432 34.0938 5.02605 35.6719 5.94171 37.2656C6.2148 37.75 6.47183 37.8281 6.98589 37.625C8.99392 36.7969 11.0341 36.0156 13.0421 35.1719C13.5722 34.9531 13.9899 35.0156 14.4236 35.375C15.757 36.4688 17.2509 37.3125 18.8895 37.8906C19.5321 38.125 19.7891 38.5156 19.8694 39.1562C20.1425 41.25 20.4477 43.3281 20.7208 45.4219C20.7851 45.8594 20.9779 46.0312 21.4277 46.0156C22.5361 46.0312 23.6445 46.0469 24.753 46.0469ZM59.1305 29.5156C59.1305 29.3281 59.1305 29.125 59.1305 28.9375C59.1305 28.0312 59.1305 28.0312 58.2469 27.9219C56.1104 27.6875 54.0863 27.0469 52.1586 26.1875C48.9297 24.7344 46.006 22.8281 43.3393 20.5312C43.0019 20.25 42.7771 20.1875 42.4397 20.5312C42.006 20.9531 41.508 21.3281 41.01 21.7031C36.8975 24.7969 32.5281 27.3438 27.2269 27.9531C26.761 28 26.6325 28.2188 26.6325 28.6562C26.6325 30.125 26.7128 31.5781 26.8574 33.0312C27.4196 38.3438 28.8975 43.375 31.7248 47.9844C34.3112 52.2188 37.8293 55.5469 42.263 57.9531C42.6967 58.1875 43.0501 58.1875 43.4839 57.9531C48.014 55.4844 51.5963 52.0469 54.1987 47.6875C57.5562 42.0625 58.9216 35.9375 59.1305 29.5156ZM16.0301 23.8281C16.0301 28.2969 19.7088 31.9531 24.2228 31.9844C24.769 31.9844 24.9618 31.8281 24.9457 31.2812C24.9136 30.0156 24.9136 28.75 24.9297 27.4844C24.9457 26.7188 25.267 26.3906 26.006 26.375C27.6606 26.3281 29.267 25.9844 30.8252 25.4688C32.7851 24.8125 32.9136 24.625 32.5923 22.6094C31.9176 18.4531 28.014 15.4219 23.773 15.75C19.3554 16.0781 16.0301 19.5469 16.0301 23.8281Z" fill="url(#paint2_radial_325_2534)"/>
<path d="M42.8894 50.0469C40.3674 50.0469 37.8292 50.0469 35.3071 50.0469C34.2147 50.0469 33.9417 49.7969 33.9417 48.75C33.9417 44.8906 33.9417 41.0156 33.9417 37.1563C33.9417 36.1563 34.2147 35.8906 35.275 35.875C36.7529 35.8438 36.7529 35.8438 36.7529 34.3906C36.7529 33.7656 36.769 33.1406 36.8332 32.5156C36.9617 31.1719 37.6204 30.1563 38.7288 29.3906C41.1384 27.7344 44.8975 27.8438 47.1947 29.6094C48.2228 30.4063 48.769 31.4688 48.8011 32.75C48.8332 33.5156 48.8011 34.2656 48.8172 35.0313C48.8172 35.8594 48.8172 35.8594 49.7007 35.8594C50.0862 35.8594 50.4718 35.8438 50.8412 35.875C51.5159 35.9375 51.8212 36.2344 51.8212 36.8906C51.8372 40.9375 51.8372 44.9688 51.8212 49.0156C51.8212 49.75 51.4678 50.0313 50.6003 50.0313C48.03 50.0469 45.4597 50.0469 42.8894 50.0469ZM42.8894 48.2969C45.042 48.2969 47.1786 48.2813 49.3312 48.3125C49.8935 48.3125 50.1184 48.1719 50.1023 47.5938C50.0862 44.5156 50.0862 41.4219 50.1023 38.3438C50.1023 37.8125 49.9417 37.625 49.3794 37.625C45.0421 37.6406 40.7047 37.6406 36.3674 37.625C35.8051 37.625 35.6445 37.8125 35.6445 38.3438C35.6605 41.4063 35.6605 44.4688 35.6445 47.5469C35.6445 48.125 35.8051 48.3281 36.4316 48.3281C38.5842 48.2656 40.7368 48.2969 42.8894 48.2969ZM42.8412 35.8594C44.0621 35.8594 45.283 35.8594 46.52 35.8594C46.9216 35.8594 47.1143 35.7188 47.0983 35.3125C47.0822 34.4688 47.1143 33.625 47.0822 32.7969C47.0501 32 46.6806 31.3438 46.022 30.8438C44.3673 29.5938 41.3633 29.5625 39.6766 30.7813C38.9858 31.2813 38.5521 31.9531 38.5682 32.8281C38.5682 33.625 38.5842 34.4219 38.5521 35.2344C38.536 35.7344 38.7449 35.875 39.2268 35.875C40.4316 35.8594 41.6364 35.8594 42.8412 35.8594Z" fill="url(#paint3_linear_325_2534)"/>
<path d="M42.8894 50.0469C40.3674 50.0469 37.8292 50.0469 35.3071 50.0469C34.2147 50.0469 33.9417 49.7969 33.9417 48.75C33.9417 44.8906 33.9417 41.0156 33.9417 37.1563C33.9417 36.1563 34.2147 35.8906 35.275 35.875C36.7529 35.8438 36.7529 35.8438 36.7529 34.3906C36.7529 33.7656 36.769 33.1406 36.8332 32.5156C36.9617 31.1719 37.6204 30.1563 38.7288 29.3906C41.1384 27.7344 44.8975 27.8438 47.1947 29.6094C48.2228 30.4063 48.769 31.4688 48.8011 32.75C48.8332 33.5156 48.8011 34.2656 48.8172 35.0313C48.8172 35.8594 48.8172 35.8594 49.7007 35.8594C50.0862 35.8594 50.4718 35.8438 50.8412 35.875C51.5159 35.9375 51.8212 36.2344 51.8212 36.8906C51.8372 40.9375 51.8372 44.9688 51.8212 49.0156C51.8212 49.75 51.4678 50.0313 50.6003 50.0313C48.03 50.0469 45.4597 50.0469 42.8894 50.0469ZM42.8894 48.2969C45.042 48.2969 47.1786 48.2813 49.3312 48.3125C49.8935 48.3125 50.1184 48.1719 50.1023 47.5938C50.0862 44.5156 50.0862 41.4219 50.1023 38.3438C50.1023 37.8125 49.9417 37.625 49.3794 37.625C45.0421 37.6406 40.7047 37.6406 36.3674 37.625C35.8051 37.625 35.6445 37.8125 35.6445 38.3438C35.6605 41.4063 35.6605 44.4688 35.6445 47.5469C35.6445 48.125 35.8051 48.3281 36.4316 48.3281C38.5842 48.2656 40.7368 48.2969 42.8894 48.2969ZM42.8412 35.8594C44.0621 35.8594 45.283 35.8594 46.52 35.8594C46.9216 35.8594 47.1143 35.7188 47.0983 35.3125C47.0822 34.4688 47.1143 33.625 47.0822 32.7969C47.0501 32 46.6806 31.3438 46.022 30.8438C44.3673 29.5938 41.3633 29.5625 39.6766 30.7813C38.9858 31.2813 38.5521 31.9531 38.5682 32.8281C38.5682 33.625 38.5842 34.4219 38.5521 35.2344C38.536 35.7344 38.7449 35.875 39.2268 35.875C40.4316 35.8594 41.6364 35.8594 42.8412 35.8594Z" fill="url(#paint4_radial_325_2534)"/>
<path d="M42.8894 50.0469C40.3674 50.0469 37.8292 50.0469 35.3071 50.0469C34.2147 50.0469 33.9417 49.7969 33.9417 48.75C33.9417 44.8906 33.9417 41.0156 33.9417 37.1563C33.9417 36.1563 34.2147 35.8906 35.275 35.875C36.7529 35.8438 36.7529 35.8438 36.7529 34.3906C36.7529 33.7656 36.769 33.1406 36.8332 32.5156C36.9617 31.1719 37.6204 30.1563 38.7288 29.3906C41.1384 27.7344 44.8975 27.8438 47.1947 29.6094C48.2228 30.4063 48.769 31.4688 48.8011 32.75C48.8332 33.5156 48.8011 34.2656 48.8172 35.0313C48.8172 35.8594 48.8172 35.8594 49.7007 35.8594C50.0862 35.8594 50.4718 35.8438 50.8412 35.875C51.5159 35.9375 51.8212 36.2344 51.8212 36.8906C51.8372 40.9375 51.8372 44.9688 51.8212 49.0156C51.8212 49.75 51.4678 50.0313 50.6003 50.0313C48.03 50.0469 45.4597 50.0469 42.8894 50.0469ZM42.8894 48.2969C45.042 48.2969 47.1786 48.2813 49.3312 48.3125C49.8935 48.3125 50.1184 48.1719 50.1023 47.5938C50.0862 44.5156 50.0862 41.4219 50.1023 38.3438C50.1023 37.8125 49.9417 37.625 49.3794 37.625C45.0421 37.6406 40.7047 37.6406 36.3674 37.625C35.8051 37.625 35.6445 37.8125 35.6445 38.3438C35.6605 41.4063 35.6605 44.4688 35.6445 47.5469C35.6445 48.125 35.8051 48.3281 36.4316 48.3281C38.5842 48.2656 40.7368 48.2969 42.8894 48.2969ZM42.8412 35.8594C44.0621 35.8594 45.283 35.8594 46.52 35.8594C46.9216 35.8594 47.1143 35.7188 47.0983 35.3125C47.0822 34.4688 47.1143 33.625 47.0822 32.7969C47.0501 32 46.6806 31.3438 46.022 30.8438C44.3673 29.5938 41.3633 29.5625 39.6766 30.7813C38.9858 31.2813 38.5521 31.9531 38.5682 32.8281C38.5682 33.625 38.5842 34.4219 38.5521 35.2344C38.536 35.7344 38.7449 35.875 39.2268 35.875C40.4316 35.8594 41.6364 35.8594 42.8412 35.8594Z" fill="url(#paint5_radial_325_2534)"/>
<path d="M42.022 45C42.0863 44.4062 41.9738 43.9687 41.3473 43.6094C40.4156 43.0781 40.1425 41.7812 40.5923 40.7344C41.0582 39.6875 42.1024 39.0937 43.1947 39.2812C44.4477 39.4844 45.2349 40.3125 45.3152 41.4687C45.3795 42.4844 45.0582 43.3125 44.0943 43.8125C43.8212 43.9531 43.7409 44.1406 43.7409 44.4219C43.7409 44.875 43.757 45.3281 43.7088 45.7656C43.6445 46.3125 43.275 46.6406 42.8252 46.6094C42.2791 46.5625 42.0863 46.2031 42.022 45.7344C42.006 45.5156 42.022 45.2656 42.022 45ZM42.8895 41.0156C42.3754 41.0156 42.1666 41.2812 42.1666 41.7187C42.1666 42.1719 42.3915 42.4062 42.8574 42.4062C43.3393 42.4062 43.6124 42.125 43.5803 41.6719C43.5642 41.2187 43.2911 41.0312 42.8895 41.0156Z" fill="url(#paint6_linear_325_2534)"/>
<path d="M42.022 45C42.0863 44.4062 41.9738 43.9687 41.3473 43.6094C40.4156 43.0781 40.1425 41.7812 40.5923 40.7344C41.0582 39.6875 42.1024 39.0937 43.1947 39.2812C44.4477 39.4844 45.2349 40.3125 45.3152 41.4687C45.3795 42.4844 45.0582 43.3125 44.0943 43.8125C43.8212 43.9531 43.7409 44.1406 43.7409 44.4219C43.7409 44.875 43.757 45.3281 43.7088 45.7656C43.6445 46.3125 43.275 46.6406 42.8252 46.6094C42.2791 46.5625 42.0863 46.2031 42.022 45.7344C42.006 45.5156 42.022 45.2656 42.022 45ZM42.8895 41.0156C42.3754 41.0156 42.1666 41.2812 42.1666 41.7187C42.1666 42.1719 42.3915 42.4062 42.8574 42.4062C43.3393 42.4062 43.6124 42.125 43.5803 41.6719C43.5642 41.2187 43.2911 41.0312 42.8895 41.0156Z" fill="url(#paint7_radial_325_2534)"/>
<path d="M42.022 45C42.0863 44.4062 41.9738 43.9687 41.3473 43.6094C40.4156 43.0781 40.1425 41.7812 40.5923 40.7344C41.0582 39.6875 42.1024 39.0937 43.1947 39.2812C44.4477 39.4844 45.2349 40.3125 45.3152 41.4687C45.3795 42.4844 45.0582 43.3125 44.0943 43.8125C43.8212 43.9531 43.7409 44.1406 43.7409 44.4219C43.7409 44.875 43.757 45.3281 43.7088 45.7656C43.6445 46.3125 43.275 46.6406 42.8252 46.6094C42.2791 46.5625 42.0863 46.2031 42.022 45.7344C42.006 45.5156 42.022 45.2656 42.022 45ZM42.8895 41.0156C42.3754 41.0156 42.1666 41.2812 42.1666 41.7187C42.1666 42.1719 42.3915 42.4062 42.8574 42.4062C43.3393 42.4062 43.6124 42.125 43.5803 41.6719C43.5642 41.2187 43.2911 41.0312 42.8895 41.0156Z" fill="url(#paint8_radial_325_2534)"/>
</g>
<defs>
<linearGradient id="paint0_linear_325_2534" x1="24.8754" y1="29.961" x2="-5.80121" y2="26.4656" gradientUnits="userSpaceOnUse">
<stop stop-color="#8B00FF"/>
<stop offset="1" stop-color="#EB00FF"/>
</linearGradient>
<radialGradient id="paint1_radial_325_2534" cx="0" cy="0" r="1" gradientUnits="userSpaceOnUse" gradientTransform="translate(42.3359 69.7375) rotate(-44.9253) scale(26.1222 25.3912)">
<stop stop-color="#0066FF"/>
<stop offset="1" stop-color="#00E0FF" stop-opacity="0"/>
</radialGradient>
<radialGradient id="paint2_radial_325_2534" cx="0" cy="0" r="1" gradientUnits="userSpaceOnUse" gradientTransform="translate(1.59463 -12.698) rotate(74.0925) scale(44.3576 48.1241)">
<stop offset="0.0604609" stop-color="#FFF500"/>
<stop offset="1" stop-color="#8B00FF" stop-opacity="0"/>
</radialGradient>
<linearGradient id="paint3_linear_325_2534" x1="41.1147" y1="39.1304" x2="31.929" y2="38.2734" gradientUnits="userSpaceOnUse">
<stop stop-color="#8B00FF"/>
<stop offset="1" stop-color="#EB00FF"/>
</linearGradient>
<radialGradient id="paint4_radial_325_2534" cx="0" cy="0" r="1" gradientUnits="userSpaceOnUse" gradientTransform="translate(46.3209 53.6158) rotate(-50.6171) scale(8.69149 8.28642)">
<stop stop-color="#0066FF"/>
<stop offset="1" stop-color="#00E0FF" stop-opacity="0"/>
</radialGradient>
<radialGradient id="paint5_radial_325_2534" cx="0" cy="0" r="1" gradientUnits="userSpaceOnUse" gradientTransform="translate(34.173 23.5953) rotate(76.8651) scale(15.9524 14.5302)">
<stop offset="0.0604609" stop-color="#FFF500"/>
<stop offset="1" stop-color="#8B00FF" stop-opacity="0"/>
</radialGradient>
<linearGradient id="paint6_linear_325_2534" x1="42.362" y1="42.9291" x2="39.8172" y2="42.7347" gradientUnits="userSpaceOnUse">
<stop stop-color="#8B00FF"/>
<stop offset="1" stop-color="#EB00FF"/>
</linearGradient>
<radialGradient id="paint7_radial_325_2534" cx="0" cy="0" r="1" gradientUnits="userSpaceOnUse" gradientTransform="translate(43.8003 47.8152) rotate(-56.0861) scale(2.73053 2.45786)">
<stop stop-color="#0066FF"/>
<stop offset="1" stop-color="#00E0FF" stop-opacity="0"/>
</radialGradient>
<radialGradient id="paint8_radial_325_2534" cx="0" cy="0" r="1" gradientUnits="userSpaceOnUse" gradientTransform="translate(40.4444 37.689) rotate(79.1806) scale(5.33497 4.04864)">
<stop offset="0.0604609" stop-color="#FFF500"/>
<stop offset="1" stop-color="#8B00FF" stop-opacity="0"/>
</radialGradient>
<clipPath id="clip0_325_2534">
<rect width="60" height="60" fill="white" transform="translate(0.833252)"/>
</clipPath>
</defs>
</svg>
