<svg width="200" height="40" viewBox="0 0 200 40" fill="none" xmlns="http://www.w3.org/2000/svg">
<g clip-path="url(#clip0_608_16)">
<mask id="mask0_608_16" style="mask-type:luminance" maskUnits="userSpaceOnUse" x="0" y="0" width="200" height="40">
<path d="M200 0H0V39.599H200V0Z" fill="white"/>
</mask>
<g mask="url(#mask0_608_16)">
<path d="M56.1228 29.1007H53.6441L49.3802 10.5264H51.7103L54.6852 23.6117L55.0817 25.8661H55.1809L55.5774 23.6117L58.9985 10.5264H61.4281L64.7499 23.6607L65.1464 25.8661H65.2456L65.6421 23.6607L68.7158 10.5264H70.8476L66.4847 29.1007H64.006L60.6346 15.7703L60.1388 13.5159H59.99L59.4942 15.7703L56.1228 29.1007Z" fill="black"/>
<path d="M73.7233 29.1007V10.5264H84.3333V12.5847H76.1528V18.4167H83.2922V20.2791H76.1528V27.0423H84.9774V29.1007H73.7233Z" fill="black"/>
<path d="M96.4305 19.3479C97.9177 19.691 99.0085 20.3281 99.6531 21.1613C100.297 21.9944 100.645 22.9746 100.645 24.0527C100.645 24.9349 100.396 25.7681 99.9503 26.5522C99.5042 27.3363 98.8596 27.9734 97.9674 28.4145C97.1243 28.9046 95.637 29.1007 93.5548 29.1007H87.9027V10.5264H92.9102C95.1909 10.5264 96.7278 10.6734 97.4716 11.0164C98.2646 11.3595 98.8596 11.8006 99.2561 12.4377C99.6531 13.0748 99.8511 13.761 99.8511 14.5451C99.8511 15.3782 99.6035 16.2604 99.1077 17.0935C98.6611 17.9267 97.7193 18.6618 96.4305 19.3479ZM90.431 18.6128H92.7614C93.9513 18.6128 94.8932 18.4658 95.4882 18.1227C96.0832 17.7797 96.5789 17.3385 96.9263 16.7505C97.2731 16.1624 97.4716 15.5253 97.4716 14.9371C97.4716 14.251 97.1739 13.6629 96.6285 13.1728C96.0832 12.6828 95.0421 12.4377 93.6045 12.4377H90.431V18.6128ZM90.431 27.2383H93.9017C95.5378 27.2383 96.6285 26.9443 97.2731 26.3561C97.8681 25.7681 98.1654 25.0329 98.1654 24.1998C98.1654 23.5136 97.9674 22.9256 97.5704 22.3865C97.1739 21.8474 96.6285 21.3573 95.8355 21.0142C95.0917 20.6712 93.9017 20.4751 92.2656 20.4751H90.431V27.2383Z" fill="black"/>
<path d="M102.925 22.5332V20.6709H110.461V22.5332H102.925Z" fill="black"/>
<path d="M113.138 29.1007V10.5264H123.748V12.5847H115.568V18.4167H122.707V20.2791H115.568V27.0423H124.392V29.1007H113.138Z" fill="black"/>
<path d="M128.458 29.1007H126.029L132.028 19.691L126.475 10.5264H129.152L133.416 17.5346L137.928 10.5264H140.357L134.606 19.4949L140.407 29.1007H137.729L133.218 21.6513L128.458 29.1007Z" fill="black"/>
<path d="M144.968 29.1007H142.538V10.5264H147.744C149.727 10.5264 151.165 10.7224 151.958 11.1145C152.801 11.5065 153.396 12.0946 153.793 12.8788C154.189 13.6629 154.437 14.5451 154.437 15.5742C154.437 17.2896 153.842 18.7598 152.653 19.936C151.463 21.1122 149.678 21.7004 147.298 21.7004H144.968V29.1007ZM144.968 19.936H146.604C148.785 19.936 150.173 19.544 150.868 18.7108C151.562 17.8776 151.909 16.8975 151.909 15.7703C151.909 14.7901 151.612 13.957 151.066 13.3689C150.521 12.7808 149.43 12.4377 147.794 12.4377H144.968V19.936Z" fill="black"/>
<path d="M156.966 29.1007V10.5264H167.575V12.5847H159.395V18.4167H166.584V20.2791H159.445V27.0423H168.27V29.1007H156.966Z" fill="black"/>
<path d="M173.723 29.1007H171.294V10.5264H177.095C178.532 10.5264 179.573 10.7224 180.317 11.1145C181.011 11.5065 181.606 12.0946 182.003 12.8788C182.399 13.6629 182.648 14.4961 182.648 15.3782C182.648 16.1133 182.499 16.7995 182.201 17.4856C181.904 18.1717 181.507 18.7598 181.011 19.2989C180.516 19.838 179.722 20.3281 178.632 20.7202C179.028 20.9652 179.326 21.1613 179.524 21.3573C179.722 21.5533 179.97 21.8964 180.268 22.3374C180.565 22.7785 180.813 23.2196 181.011 23.6117L183.986 29.1007H181.16L178.582 24.1998C177.937 23.0236 177.144 21.9944 176.103 21.1122H173.624V29.1007H173.723ZM173.723 19.2989H176.103C177.095 19.2989 177.888 19.1519 178.384 18.8578C178.929 18.5638 179.326 18.1227 179.623 17.5346C179.921 16.9465 180.069 16.3094 180.069 15.6233C180.069 15.0351 179.97 14.4961 179.722 14.055C179.475 13.6139 179.127 13.2219 178.632 12.8788C178.185 12.5847 177.342 12.3887 176.252 12.3887H173.674V19.2989H173.723Z" fill="black"/>
<path d="M191.274 29.1007V12.3887H184.879V10.5264H200V12.3887H193.704V29.1007H191.274Z" fill="black"/>
<path d="M2.72682 23.152C3.0243 23.446 3.17303 23.8871 3.12345 24.2792C3.07387 24.6713 2.92514 25.0633 2.62766 25.3574C1.98314 25.8965 0.991574 25.8965 0.396629 25.2594C0.0991574 24.9163 0 24.5242 0 24.1322C0 23.7401 0.198314 23.3481 0.495786 23.054C1.14031 22.5149 2.13188 22.5149 2.72682 23.152Z" fill="#5D218F"/>
<path d="M24.591 13.4483C24.591 13.4973 24.591 13.5463 24.591 13.5463C24.591 13.8894 24.6406 14.2324 24.7893 14.5755L19.9802 18.9863L15.171 23.397C14.7744 23.152 14.3778 23.054 13.9812 23.054L8.77539 8.10637C8.97374 8.00833 9.22161 7.86131 9.37038 7.66527C9.56867 7.46923 9.71739 7.32221 9.86612 7.07715L24.591 13.4483Z" fill="#5D218F"/>
<path d="M4.36292 25.1123L11.7997 25.7984C11.8989 26.1905 12.0476 26.5336 12.3451 26.8276C12.6426 27.1216 12.9896 27.3177 13.3367 27.4647L13.4854 33.3457L13.5349 35.8942C13.3367 35.9922 13.0887 36.0903 12.94 36.2373L3.66882 26.2395C4.01588 25.9454 4.21419 25.5534 4.36292 25.1123Z" fill="#5D218F"/>
<path opacity="0.5" d="M7.23849 8.44956C7.28806 8.44956 7.33764 8.44956 7.38721 8.44956L12.6425 23.5442C12.593 23.5932 12.5433 23.6422 12.4938 23.6913C12.2459 23.8873 12.0972 24.1813 11.9484 24.4264L4.51164 23.7403C4.41248 23.1522 4.16459 22.6621 3.76796 22.221C3.37133 21.8289 2.92512 21.5349 2.37976 21.3879L6.6435 8.35156C6.84185 8.40053 7.04014 8.40053 7.23849 8.44956Z" fill="#5D218F"/>
<path d="M16.2618 25.5533C16.3113 25.1612 16.2618 24.7691 16.0635 24.3771L25.7313 15.6045C26.0784 15.8005 26.475 15.8986 26.8716 15.8986L32.474 31.3853C32.2757 31.4833 32.0774 31.6304 31.8791 31.7774C31.6807 31.9244 31.532 32.1204 31.4328 32.3165L16.2618 25.5533Z" fill="#5D218F"/>
<path d="M24.2438 3.54857C24.6901 4.03865 25.2354 4.3327 25.8799 4.43072V4.67576L26.0287 11.488C25.7808 11.635 25.5329 11.782 25.285 11.978C25.2354 12.0271 25.1859 12.0761 25.1363 12.1251L20.0793 9.96872L10.3123 5.75393C10.3123 5.70496 10.3123 5.65594 10.3123 5.60692C10.3123 5.41088 10.3123 5.21484 10.2627 5.01885L23.4506 2.0293C23.5993 2.56839 23.8473 3.10749 24.2438 3.54857Z" fill="#5D218F"/>
<path opacity="0.5" d="M37.3326 13.2528C37.0351 13.4978 36.8368 13.7919 36.6881 14.135L29.053 13.2038C28.9538 12.8117 28.8051 12.4196 28.5076 12.1256C28.2102 11.8316 27.8631 11.6355 27.516 11.4885L27.3177 4.48025V4.38223C27.7144 4.2352 28.111 4.03917 28.458 3.74512L37.3326 13.2528Z" fill="#5D218F"/>
<path d="M34.0109 30.9939C33.9613 30.9939 33.9118 30.9939 33.8126 30.9939L28.2102 15.4091C28.2598 15.3601 28.3094 15.3111 28.3589 15.3111C28.5573 15.1151 28.7556 14.87 28.8547 14.625L36.3907 15.5562C36.3907 16.2423 36.6881 16.9284 37.1839 17.4675C37.531 17.8596 38.0267 18.1536 38.5225 18.3006L34.5563 31.1409C34.4075 31.0429 34.2092 30.9939 34.0109 30.9939Z" fill="#5D218F"/>
<path opacity="0.5" d="M16.2617 36.4827C15.9147 36.0906 15.4685 35.8945 15.0223 35.7966L14.824 27.4651C15.1214 27.3671 15.3693 27.22 15.6172 27.024C15.6668 26.975 15.7164 26.926 15.7659 26.877L31.0362 33.6892C31.0362 33.7382 31.0362 33.7872 31.0362 33.8852C31.0362 34.0813 31.0362 34.2773 31.0857 34.4733L16.9559 37.5609C16.7079 37.1198 16.5096 36.7767 16.2617 36.4827Z" fill="#5D218F"/>
<path opacity="0.5" d="M8.9241 5.55771C8.9241 5.94979 8.72575 6.34187 8.42831 6.63591C7.7838 7.22403 6.79222 7.17501 6.24686 6.53792C5.94936 6.24388 5.80064 5.80278 5.85021 5.4107C5.85021 5.01862 6.04851 4.62657 6.346 4.33252C6.94094 3.79342 7.93252 3.84243 8.52746 4.43054C8.8249 4.77359 8.97367 5.16568 8.9241 5.55771Z" fill="#5D218F"/>
<path d="M27.4665 2.71551C26.822 3.30361 25.8304 3.2546 25.285 2.61749C24.9876 2.32344 24.8388 1.88236 24.8884 1.49029C24.8884 1.09822 25.0867 0.706151 25.3842 0.4121C26.0287 -0.176003 27.0203 -0.126995 27.5657 0.510116C27.8631 0.804171 28.0118 1.24525 27.9623 1.63732C27.9623 2.02938 27.8135 2.42145 27.4665 2.71551Z" fill="#5D218F"/>
<path opacity="0.5" d="M38.2251 16.4866C37.9276 16.1926 37.7789 15.7515 37.8285 15.3594C37.8285 14.9674 38.0268 14.5753 38.3243 14.2813C38.9688 13.6931 39.9604 13.7422 40.5057 14.3792C40.8032 14.6733 40.9519 15.1144 40.9024 15.5065C40.9024 15.8985 40.704 16.2906 40.4066 16.5847C39.762 17.1238 38.7705 17.0747 38.2251 16.4866Z" fill="#5D218F"/>
<path d="M32.3252 33.8848C32.3252 33.4928 32.5235 33.1007 32.821 32.8066C33.4655 32.2185 34.4571 32.2675 35.0024 32.9046C35.2999 33.1987 35.4487 33.6398 35.3991 34.0319C35.3991 34.4239 35.2008 34.816 34.9033 35.11C34.2588 35.6981 33.2672 35.6491 32.7218 35.012C32.4244 34.6689 32.3252 34.2769 32.3252 33.8848Z" fill="#5D218F"/>
<path opacity="0.5" d="M13.4358 36.9238C14.0804 36.3357 15.0719 36.3847 15.6173 37.0218C15.9148 37.3159 16.0635 37.757 16.0139 38.149C16.0139 38.5411 15.8156 38.9332 15.5182 39.2272C14.8736 39.8153 13.8821 39.7663 13.3367 39.1292C13.0392 38.8352 12.8905 38.3941 12.9401 38.002C12.9401 37.6099 13.0888 37.2179 13.4358 36.9238Z" fill="#5D218F"/>
</g>
</g>
<defs>
<clipPath id="clip0_608_16">
<rect width="200" height="39.599" fill="white"/>
</clipPath>
</defs>
</svg>
