<svg xmlns="http://www.w3.org/2000/svg" xmlns:xlink="http://www.w3.org/1999/xlink"><defs><linearGradient id="a" x1="8.19" y1="-9.044" x2="11.039" y2="22.113" gradientUnits="userSpaceOnUse"><stop stop-color="#80FF00"/><stop offset="1" stop-color="#67891A"/></linearGradient><clipPath id="a"><path d="M0 0h22v22H0z"/></clipPath></defs><symbol id="icon-arrow"><path d="M16 7H3.83l5.59-5.59L8 0 0 8l8 8 1.41-1.41L3.83 9H16V7Z"/></symbol><symbol id="icon-close"><path d="M.553.553a1.89 1.89 0 0 0 0 2.673L7.328 10 .553 16.774a1.89 1.89 0 1 0 2.673 2.673L10 12.672l6.774 6.775a1.89 1.89 0 0 0 2.673-2.673L12.672 10l6.775-6.774A1.89 1.89 0 0 0 16.774.553L10 7.328 3.226.553a1.89 1.89 0 0 0-2.673 0Z"/></symbol><symbol id="icon-envelope"><path d="M21 1 10 12M21 1l-7 20-4-9-9-4 20-7Z" stroke-linecap="round" stroke-linejoin="round"/></symbol><symbol id="icon-mail"><path d="M20 2c0-1.1-.9-2-2-2H2C.9 0 0 .9 0 2v12c0 1.1.9 2 2 2h16c1.1 0 2-.9 2-2V2Zm-2 0-8 4.99L2 2h16Zm0 12H2V4l8 5 8-5v10Z"/></symbol><symbol id="icon-phone"><g clip-path="url(#a)"><path d="M21 15.974v3.01a2.004 2.004 0 0 1-1.367 1.91c-.266.09-.547.123-.826.098a19.927 19.927 0 0 1-8.678-3.081 19.59 19.59 0 0 1-6.034-6.022 19.836 19.836 0 0 1-3.087-8.701 2.004 2.004 0 0 1 1.19-2.017c.256-.112.532-.17.811-.17h3.017a2.014 2.014 0 0 1 2.011 1.725c.128.964.364 1.91.704 2.82a2.003 2.003 0 0 1-.452 2.118L7.012 8.939a16.074 16.074 0 0 0 6.033 6.021l1.277-1.274a2.012 2.012 0 0 1 2.122-.452c.912.34 1.86.575 2.826.703A2.013 2.013 0 0 1 21 15.974Z" stroke-linecap="round" stroke-linejoin="round"/></g></symbol><symbol id="icon-pin"><path d="M7 0C3.13 0 0 3.13 0 7c0 5.25 7 13 7 13s7-7.75 7-13c0-3.87-3.13-7-7-7ZM2 7c0-2.76 2.24-5 5-5s5 2.24 5 5c0 2.88-2.88 7.19-5 9.88C4.92 14.21 2 9.85 2 7Z"/><path d="M7 9.5a2.5 2.5 0 1 0 0-5 2.5 2.5 0 0 0 0 5Z"/></symbol><symbol id="icon-search"><path fill-rule="evenodd" clip-rule="evenodd" d="M7.778 2.222a5.556 5.556 0 1 0 0 11.111 5.556 5.556 0 0 0 0-11.11ZM0 7.778a7.778 7.778 0 1 1 14.007 4.658l5.668 5.667a1.111 1.111 0 0 1-1.572 1.572l-5.667-5.668A7.778 7.778 0 0 1 0 7.777Z"/></symbol><symbol id="icon-zoom-in"><path d="M14 8H8v6H6V8H0V6h6V0h2v6h6v2Z"/></symbol><symbol id="icon-zoom-out"><path d="M14 2H0V0h14v2Z"/></symbol></svg>